<?xml version="1.0" encoding="UTF-8" standalone="no"?>
<!DOCTYPE svg PUBLIC "-//W3C//DTD SVG 1.1//EN"
 "http://www.w3.org/Graphics/SVG/1.1/DTD/svg11.dtd">
<!-- Generated by graphviz version 2.36.0 (20140111.2315)
 -->
<!-- Title: %3 Pages: 1 -->
<svg width="444pt" height="764pt"
 viewBox="0.00 0.00 444.41 764.00" xmlns="http://www.w3.org/2000/svg" xmlns:xlink="http://www.w3.org/1999/xlink">
<g id="graph0" class="graph" transform="scale(1 1) rotate(0) translate(4 760)">
<title>%3</title>
<polygon fill="white" stroke="none" points="-4,4 -4,-760 440.408,-760 440.408,4 -4,4"/>
<!-- 0 -->
<g id="node1" class="node"><title>0</title>
<ellipse fill="none" stroke="black" cx="148" cy="-522" rx="27" ry="18"/>
<text text-anchor="middle" x="148" y="-518.3" font-family="Times,serif" font-size="14.00">0</text>
</g>
<!-- 6 -->
<g id="node2" class="node"><title>6</title>
<ellipse fill="none" stroke="black" cx="317" cy="-450" rx="27" ry="18"/>
<text text-anchor="middle" x="317" y="-446.3" font-family="Times,serif" font-size="14.00">6</text>
</g>
<!-- 0&#45;&gt;6 -->
<g id="edge1" class="edge"><title>0&#45;&gt;6</title>
<path fill="none" stroke="black" d="M170.661,-511.621C196.245,-501.031 239.115,-483.283 276,-468 278.896,-466.8 281.908,-465.552 284.925,-464.301"/>
<polygon fill="black" stroke="black" points="286.547,-467.418 294.444,-460.355 283.866,-460.951 286.547,-467.418"/>
</g>
<!-- 7 -->
<g id="node3" class="node"><title>7</title>
<ellipse fill="none" stroke="black" cx="203" cy="-378" rx="27" ry="18"/>
<text text-anchor="middle" x="203" y="-374.3" font-family="Times,serif" font-size="14.00">7</text>
</g>
<!-- 0&#45;&gt;7 -->
<g id="edge2" class="edge"><title>0&#45;&gt;7</title>
<path fill="none" stroke="black" d="M154.417,-504.433C163.846,-480.088 181.541,-434.404 192.774,-405.402"/>
<polygon fill="black" stroke="black" points="196.105,-406.491 196.454,-395.902 189.578,-403.963 196.105,-406.491"/>
</g>
<!-- 8 -->
<g id="node4" class="node"><title>8</title>
<ellipse fill="none" stroke="black" cx="93" cy="-306" rx="27" ry="18"/>
<text text-anchor="middle" x="93" y="-302.3" font-family="Times,serif" font-size="14.00">8</text>
</g>
<!-- 0&#45;&gt;8 -->
<g id="edge3" class="edge"><title>0&#45;&gt;8</title>
<path fill="none" stroke="black" d="M143.422,-503.824C140.668,-493.456 137.106,-479.976 134,-468 121.767,-420.842 107.828,-365.826 99.7599,-333.85"/>
<polygon fill="black" stroke="black" points="103.098,-332.775 97.2597,-323.934 96.3109,-334.486 103.098,-332.775"/>
</g>
<!-- 9 -->
<g id="node5" class="node"><title>9</title>
<ellipse fill="none" stroke="black" cx="55" cy="-234" rx="27" ry="18"/>
<text text-anchor="middle" x="55" y="-230.3" font-family="Times,serif" font-size="14.00">9</text>
</g>
<!-- 0&#45;&gt;9 -->
<g id="edge4" class="edge"><title>0&#45;&gt;9</title>
<path fill="none" stroke="black" d="M137.887,-505.227C117.778,-472.838 73.3059,-395.825 57,-324 52.3596,-303.559 52.0745,-279.798 52.8326,-261.971"/>
<polygon fill="black" stroke="black" points="56.3276,-262.156 53.3919,-251.976 49.3385,-261.765 56.3276,-262.156"/>
</g>
<!-- 10 -->
<g id="node6" class="node"><title>10</title>
<ellipse fill="none" stroke="black" cx="165" cy="-162" rx="27" ry="18"/>
<text text-anchor="middle" x="165" y="-158.3" font-family="Times,serif" font-size="14.00">10</text>
</g>
<!-- 0&#45;&gt;10 -->
<g id="edge5" class="edge"><title>0&#45;&gt;10</title>
<path fill="none" stroke="black" d="M148,-503.951C148,-477.292 148,-424.115 148,-379 148,-379 148,-379 148,-305 148,-264.71 154.83,-218.444 159.832,-189.965"/>
<polygon fill="black" stroke="black" points="163.304,-190.434 161.641,-179.971 156.416,-189.187 163.304,-190.434"/>
</g>
<!-- 11 -->
<g id="node7" class="node"><title>11</title>
<ellipse fill="none" stroke="black" cx="110" cy="-90" rx="27" ry="18"/>
<text text-anchor="middle" x="110" y="-86.3" font-family="Times,serif" font-size="14.00">11</text>
</g>
<!-- 0&#45;&gt;11 -->
<g id="edge6" class="edge"><title>0&#45;&gt;11</title>
<path fill="none" stroke="black" d="M125.522,-511.92C84.1194,-493.534 0,-447.724 0,-379 0,-379 0,-379 0,-233 0,-179.183 49.9901,-133.393 82.5704,-109.265"/>
<polygon fill="black" stroke="black" points="84.7594,-112.002 90.8395,-103.325 80.6757,-106.316 84.7594,-112.002"/>
</g>
<!-- 12 -->
<g id="node8" class="node"><title>12</title>
<ellipse fill="none" stroke="black" cx="167" cy="-18" rx="27" ry="18"/>
<text text-anchor="middle" x="167" y="-14.3" font-family="Times,serif" font-size="14.00">12</text>
</g>
<!-- 0&#45;&gt;12 -->
<g id="edge7" class="edge"><title>0&#45;&gt;12</title>
<path fill="none" stroke="black" d="M167.339,-509.19C199.863,-487.674 262,-438.751 262,-379 262,-379 262,-379 262,-161 262,-110.517 220.009,-64.3945 191.861,-39.1485"/>
<polygon fill="black" stroke="black" points="193.827,-36.2194 183.984,-32.2984 189.233,-41.5015 193.827,-36.2194"/>
</g>
<!-- 6&#45;&gt;7 -->
<g id="edge20" class="edge"><title>6&#45;&gt;7</title>
<path fill="none" stroke="black" d="M297.661,-437.125C279.401,-425.913 251.805,-408.968 231.113,-396.263"/>
<polygon fill="black" stroke="black" points="232.787,-393.183 222.433,-390.933 229.124,-399.148 232.787,-393.183"/>
</g>
<!-- 7&#45;&gt;8 -->
<g id="edge21" class="edge"><title>7&#45;&gt;8</title>
<path fill="none" stroke="black" d="M183.839,-364.807C166.331,-353.665 140.241,-337.062 120.507,-324.504"/>
<polygon fill="black" stroke="black" points="122.257,-321.469 111.941,-319.053 118.499,-327.375 122.257,-321.469"/>
</g>
<!-- 7&#45;&gt;10 -->
<g id="edge22" class="edge"><title>7&#45;&gt;10</title>
<path fill="none" stroke="black" d="M199.955,-359.849C193.365,-322.74 177.74,-234.747 169.804,-190.054"/>
<polygon fill="black" stroke="black" points="173.202,-189.169 168.007,-179.935 166.31,-190.393 173.202,-189.169"/>
</g>
<!-- 7&#45;&gt;12 -->
<g id="edge23" class="edge"><title>7&#45;&gt;12</title>
<path fill="none" stroke="black" d="M207.149,-360.07C213.269,-333.571 224,-280.605 224,-235 224,-235 224,-235 224,-161 224,-117.085 200.231,-70.6731 183.391,-43.3013"/>
<polygon fill="black" stroke="black" points="186.3,-41.3525 177.99,-34.7798 180.387,-45.0999 186.3,-41.3525"/>
</g>
<!-- 8&#45;&gt;9 -->
<g id="edge24" class="edge"><title>8&#45;&gt;9</title>
<path fill="none" stroke="black" d="M84.1865,-288.765C79.5823,-280.283 73.845,-269.714 68.6786,-260.197"/>
<polygon fill="black" stroke="black" points="71.6126,-258.266 63.7657,-251.147 65.4607,-261.606 71.6126,-258.266"/>
</g>
<!-- 8&#45;&gt;11 -->
<g id="edge25" class="edge"><title>8&#45;&gt;11</title>
<path fill="none" stroke="black" d="M94.3624,-287.849C97.3031,-250.832 104.266,-163.181 107.824,-118.386"/>
<polygon fill="black" stroke="black" points="111.328,-118.478 108.631,-108.232 104.35,-117.924 111.328,-118.478"/>
</g>
<!-- 9&#45;&gt;10 -->
<g id="edge26" class="edge"><title>9&#45;&gt;10</title>
<path fill="none" stroke="black" d="M74.1605,-220.807C91.6689,-209.665 117.759,-193.062 137.493,-180.504"/>
<polygon fill="black" stroke="black" points="139.501,-183.375 146.059,-175.053 135.743,-177.469 139.501,-183.375"/>
</g>
<!-- 9&#45;&gt;11 -->
<g id="edge27" class="edge"><title>9&#45;&gt;11</title>
<path fill="none" stroke="black" d="M61.4168,-216.433C70.8463,-192.088 88.5409,-146.404 99.7739,-117.402"/>
<polygon fill="black" stroke="black" points="103.105,-118.491 103.454,-107.902 96.578,-115.963 103.105,-118.491"/>
</g>
<!-- 9&#45;&gt;12 -->
<g id="edge28" class="edge"><title>9&#45;&gt;12</title>
<path fill="none" stroke="black" d="M52.3103,-215.8C48.346,-184.379 44.3088,-116.814 74,-72 87.7342,-51.2703 112.519,-37.7312 133.05,-29.5292"/>
<polygon fill="black" stroke="black" points="134.281,-32.8055 142.424,-26.0265 131.831,-26.2483 134.281,-32.8055"/>
</g>
<!-- 10&#45;&gt;11 -->
<g id="edge29" class="edge"><title>10&#45;&gt;11</title>
<path fill="none" stroke="black" d="M153.066,-145.811C145.786,-136.546 136.337,-124.52 128.146,-114.094"/>
<polygon fill="black" stroke="black" points="130.841,-111.86 121.911,-106.159 125.337,-116.185 130.841,-111.86"/>
</g>
<!-- 11&#45;&gt;12 -->
<g id="edge30" class="edge"><title>11&#45;&gt;12</title>
<path fill="none" stroke="black" d="M122.368,-73.811C129.912,-64.5464 139.705,-52.5203 148.195,-42.0944"/>
<polygon fill="black" stroke="black" points="151.056,-44.1237 154.656,-34.1593 145.628,-39.7037 151.056,-44.1237"/>
</g>
<!-- 1 -->
<g id="node9" class="node"><title>1</title>
<ellipse fill="none" stroke="black" cx="357" cy="-738" rx="27" ry="18"/>
<text text-anchor="middle" x="357" y="-734.3" font-family="Times,serif" font-size="14.00">1</text>
</g>
<!-- 2 -->
<g id="node10" class="node"><title>2</title>
<ellipse fill="none" stroke="black" cx="385" cy="-666" rx="27" ry="18"/>
<text text-anchor="middle" x="385" y="-662.3" font-family="Times,serif" font-size="14.00">2</text>
</g>
<!-- 1&#45;&gt;2 -->
<g id="edge8" class="edge"><title>1&#45;&gt;2</title>
<path fill="none" stroke="black" d="M363.636,-720.411C366.913,-712.216 370.944,-702.14 374.618,-692.955"/>
<polygon fill="black" stroke="black" points="377.948,-694.055 378.412,-683.47 371.448,-691.455 377.948,-694.055"/>
</g>
<!-- 3 -->
<g id="node11" class="node"><title>3</title>
<ellipse fill="none" stroke="black" cx="330" cy="-594" rx="27" ry="18"/>
<text text-anchor="middle" x="330" y="-590.3" font-family="Times,serif" font-size="14.00">3</text>
</g>
<!-- 1&#45;&gt;3 -->
<g id="edge9" class="edge"><title>1&#45;&gt;3</title>
<path fill="none" stroke="black" d="M353.743,-719.871C349.142,-695.67 340.688,-651.211 335.209,-622.393"/>
<polygon fill="black" stroke="black" points="338.575,-621.359 333.268,-612.189 331.698,-622.667 338.575,-621.359"/>
</g>
<!-- 4 -->
<g id="node12" class="node"><title>4</title>
<ellipse fill="none" stroke="black" cx="330" cy="-522" rx="27" ry="18"/>
<text text-anchor="middle" x="330" y="-518.3" font-family="Times,serif" font-size="14.00">4</text>
</g>
<!-- 1&#45;&gt;4 -->
<g id="edge10" class="edge"><title>1&#45;&gt;4</title>
<path fill="none" stroke="black" d="M346.061,-721.363C330.854,-698.572 304.062,-654.321 294,-612 290.299,-596.434 289.297,-591.293 294,-576 297.286,-565.315 303.54,-554.851 309.925,-546.081"/>
<polygon fill="black" stroke="black" points="312.884,-547.977 316.25,-537.931 307.354,-543.686 312.884,-547.977"/>
</g>
<!-- 5 -->
<g id="node13" class="node"><title>5</title>
<ellipse fill="none" stroke="black" cx="399" cy="-450" rx="27" ry="18"/>
<text text-anchor="middle" x="399" y="-446.3" font-family="Times,serif" font-size="14.00">5</text>
</g>
<!-- 1&#45;&gt;5 -->
<g id="edge11" class="edge"><title>1&#45;&gt;5</title>
<path fill="none" stroke="black" d="M377.955,-726.238C393.015,-717.219 412.16,-702.799 421,-684 453.483,-614.924 426.443,-521.752 409.748,-477.049"/>
<polygon fill="black" stroke="black" points="412.936,-475.587 406.069,-467.52 406.406,-478.109 412.936,-475.587"/>
</g>
<!-- 2&#45;&gt;3 -->
<g id="edge12" class="edge"><title>2&#45;&gt;3</title>
<path fill="none" stroke="black" d="M373.066,-649.811C365.786,-640.546 356.337,-628.52 348.146,-618.094"/>
<polygon fill="black" stroke="black" points="350.841,-615.86 341.911,-610.159 345.337,-620.185 350.841,-615.86"/>
</g>
<!-- 2&#45;&gt;4 -->
<g id="edge13" class="edge"><title>2&#45;&gt;4</title>
<path fill="none" stroke="black" d="M383.344,-648.012C381.11,-629.654 376.174,-599.83 366,-576 361.611,-565.719 355.12,-555.342 348.853,-546.529"/>
<polygon fill="black" stroke="black" points="351.517,-544.244 342.748,-538.298 345.895,-548.415 351.517,-544.244"/>
</g>
<!-- 2&#45;&gt;5 -->
<g id="edge14" class="edge"><title>2&#45;&gt;5</title>
<path fill="none" stroke="black" d="M386.122,-647.849C388.544,-610.832 394.278,-523.181 397.208,-478.386"/>
<polygon fill="black" stroke="black" points="400.712,-478.44 397.873,-468.232 393.727,-477.983 400.712,-478.44"/>
</g>
<!-- 3&#45;&gt;6 -->
<g id="edge15" class="edge"><title>3&#45;&gt;6</title>
<path fill="none" stroke="black" d="M316.25,-578.069C308.039,-568.1 298.381,-554.247 294,-540 287.43,-518.635 294.934,-494.007 303.078,-476.082"/>
<polygon fill="black" stroke="black" points="306.331,-477.397 307.583,-466.877 300.044,-474.32 306.331,-477.397"/>
</g>
<!-- 3&#45;&gt;4 -->
<g id="edge16" class="edge"><title>3&#45;&gt;4</title>
<path fill="none" stroke="black" d="M330,-575.697C330,-567.983 330,-558.712 330,-550.112"/>
<polygon fill="black" stroke="black" points="333.5,-550.104 330,-540.104 326.5,-550.104 333.5,-550.104"/>
</g>
<!-- 3&#45;&gt;5 -->
<g id="edge17" class="edge"><title>3&#45;&gt;5</title>
<path fill="none" stroke="black" d="M342.083,-577.389C349.628,-567.149 359.172,-553.249 366,-540 376.398,-519.824 385.16,-495.596 391.036,-477.516"/>
<polygon fill="black" stroke="black" points="394.394,-478.504 394.074,-467.914 387.721,-476.392 394.394,-478.504"/>
</g>
<!-- 4&#45;&gt;6 -->
<g id="edge19" class="edge"><title>4&#45;&gt;6</title>
<path fill="none" stroke="black" d="M326.853,-504.055C325.421,-496.346 323.691,-487.027 322.082,-478.364"/>
<polygon fill="black" stroke="black" points="325.475,-477.468 320.208,-468.275 318.593,-478.746 325.475,-477.468"/>
</g>
<!-- 4&#45;&gt;5 -->
<g id="edge18" class="edge"><title>4&#45;&gt;5</title>
<path fill="none" stroke="black" d="M344.297,-506.496C353.919,-496.735 366.777,-483.69 377.61,-472.7"/>
<polygon fill="black" stroke="black" points="380.194,-475.064 384.721,-465.485 375.209,-470.15 380.194,-475.064"/>
</g>
</g>
</svg>
