<?xml version="1.0" encoding="UTF-8" standalone="no"?>
<!DOCTYPE svg PUBLIC "-//W3C//DTD SVG 1.1//EN"
 "http://www.w3.org/Graphics/SVG/1.1/DTD/svg11.dtd">
<!-- Generated by graphviz version 2.36.0 (20140111.2315)
 -->
<!-- Title: %3 Pages: 1 -->
<svg width="568pt" height="620pt"
 viewBox="0.00 0.00 568.46 620.00" xmlns="http://www.w3.org/2000/svg" xmlns:xlink="http://www.w3.org/1999/xlink">
<g id="graph0" class="graph" transform="scale(1 1) rotate(0) translate(4 616)">
<title>%3</title>
<polygon fill="white" stroke="none" points="-4,4 -4,-616 564.455,-616 564.455,4 -4,4"/>
<!-- 0 -->
<g id="node1" class="node"><title>0</title>
<ellipse fill="none" stroke="black" cx="166" cy="-522" rx="27" ry="18"/>
<text text-anchor="middle" x="166" y="-518.3" font-family="Times,serif" font-size="14.00">0</text>
</g>
<!-- 6 -->
<g id="node2" class="node"><title>6</title>
<ellipse fill="none" stroke="black" cx="335" cy="-450" rx="27" ry="18"/>
<text text-anchor="middle" x="335" y="-446.3" font-family="Times,serif" font-size="14.00">6</text>
</g>
<!-- 0&#45;&gt;6 -->
<g id="edge1" class="edge"><title>0&#45;&gt;6</title>
<path fill="none" stroke="black" d="M186.047,-509.837C209.876,-499.114 250.115,-482.455 285,-468 290.072,-465.898 295.497,-463.65 300.879,-461.499"/>
<polygon fill="black" stroke="black" points="302.382,-464.67 310.436,-457.785 299.847,-458.145 302.382,-464.67"/>
</g>
<!-- 7 -->
<g id="node3" class="node"><title>7</title>
<ellipse fill="none" stroke="black" cx="166" cy="-378" rx="27" ry="18"/>
<text text-anchor="middle" x="166" y="-374.3" font-family="Times,serif" font-size="14.00">7</text>
</g>
<!-- 0&#45;&gt;7 -->
<g id="edge2" class="edge"><title>0&#45;&gt;7</title>
<path fill="none" stroke="black" d="M161.445,-504.153C158.849,-479.92 158.556,-434.965 160.565,-406.046"/>
<polygon fill="black" stroke="black" points="164.074,-406.089 161.448,-395.825 157.1,-405.487 164.074,-406.089"/>
</g>
<!-- 8 -->
<g id="node4" class="node"><title>8</title>
<ellipse fill="none" stroke="black" cx="111" cy="-306" rx="27" ry="18"/>
<text text-anchor="middle" x="111" y="-302.3" font-family="Times,serif" font-size="14.00">8</text>
</g>
<!-- 0&#45;&gt;8 -->
<g id="edge3" class="edge"><title>0&#45;&gt;8</title>
<path fill="none" stroke="black" d="M160.73,-504.119C153.355,-480.195 139.765,-434.995 130,-396 124.851,-375.439 119.881,-351.986 116.316,-334.319"/>
<polygon fill="black" stroke="black" points="119.675,-333.267 114.289,-324.144 112.81,-334.635 119.675,-333.267"/>
</g>
<!-- 9 -->
<g id="node5" class="node"><title>9</title>
<ellipse fill="none" stroke="black" cx="187" cy="-234" rx="27" ry="18"/>
<text text-anchor="middle" x="187" y="-230.3" font-family="Times,serif" font-size="14.00">9</text>
</g>
<!-- 0&#45;&gt;9 -->
<g id="edge4" class="edge"><title>0&#45;&gt;9</title>
<path fill="none" stroke="black" d="M174.26,-504.661C179.168,-494.367 185.163,-480.672 189,-468 198.424,-436.878 199.1,-428.388 202,-396 206.229,-348.773 198.348,-293.779 192.496,-261.826"/>
<polygon fill="black" stroke="black" points="195.918,-261.086 190.609,-251.917 189.041,-262.396 195.918,-261.086"/>
</g>
<!-- 10 -->
<g id="node6" class="node"><title>10</title>
<ellipse fill="none" stroke="black" cx="94" cy="-162" rx="27" ry="18"/>
<text text-anchor="middle" x="94" y="-158.3" font-family="Times,serif" font-size="14.00">10</text>
</g>
<!-- 0&#45;&gt;10 -->
<g id="edge5" class="edge"><title>0&#45;&gt;10</title>
<path fill="none" stroke="black" d="M151.553,-506.503C127.163,-474.971 80.845,-397.102 66,-324 56.3465,-276.462 68.3027,-219.96 79.8935,-188.11"/>
<polygon fill="black" stroke="black" points="83.2005,-189.265 83.6161,-178.678 76.6893,-186.695 83.2005,-189.265"/>
</g>
<!-- 11 -->
<g id="node7" class="node"><title>11</title>
<ellipse fill="none" stroke="black" cx="132" cy="-90" rx="27" ry="18"/>
<text text-anchor="middle" x="132" y="-86.3" font-family="Times,serif" font-size="14.00">11</text>
</g>
<!-- 0&#45;&gt;11 -->
<g id="edge6" class="edge"><title>0&#45;&gt;11</title>
<path fill="none" stroke="black" d="M185.339,-509.19C217.863,-487.674 280,-438.751 280,-379 280,-379 280,-379 280,-305 280,-219.879 199.811,-144.121 157.484,-110.062"/>
<polygon fill="black" stroke="black" points="159.579,-107.257 149.559,-103.816 155.246,-112.755 159.579,-107.257"/>
</g>
<!-- 12 -->
<g id="node8" class="node"><title>12</title>
<ellipse fill="none" stroke="black" cx="159" cy="-18" rx="27" ry="18"/>
<text text-anchor="middle" x="159" y="-14.3" font-family="Times,serif" font-size="14.00">12</text>
</g>
<!-- 0&#45;&gt;12 -->
<g id="edge7" class="edge"><title>0&#45;&gt;12</title>
<path fill="none" stroke="black" d="M142.216,-513.252C96.3158,-496.634 0,-452.954 0,-379 0,-379 0,-379 0,-161 0,-93.9683 79.586,-50.7082 126.146,-31.1355"/>
<polygon fill="black" stroke="black" points="127.592,-34.3256 135.539,-27.3184 124.957,-27.8406 127.592,-34.3256"/>
</g>
<!-- 6&#45;&gt;0 -->
<g id="edge23" class="edge"><title>6&#45;&gt;0</title>
<path fill="none" stroke="black" d="M315.665,-462.707C311.491,-464.481 307.129,-466.289 303,-468 268.17,-482.432 228.004,-499.061 200.028,-509.786"/>
<polygon fill="black" stroke="black" points="198.426,-506.649 190.306,-513.455 200.898,-513.199 198.426,-506.649"/>
</g>
<!-- 6&#45;&gt;7 -->
<g id="edge22" class="edge"><title>6&#45;&gt;7</title>
<path fill="none" stroke="black" d="M312.558,-439.705C283.057,-427.485 231.064,-405.95 197.596,-392.087"/>
<polygon fill="black" stroke="black" points="198.844,-388.816 188.266,-388.222 196.165,-395.283 198.844,-388.816"/>
</g>
<!-- 7&#45;&gt;0 -->
<g id="edge24" class="edge"><title>7&#45;&gt;0</title>
<path fill="none" stroke="black" d="M170.552,-395.825C173.15,-420.046 173.445,-465 171.437,-493.928"/>
<polygon fill="black" stroke="black" points="167.927,-493.889 170.555,-504.153 174.901,-494.491 167.927,-493.889"/>
</g>
<!-- 7&#45;&gt;8 -->
<g id="edge25" class="edge"><title>7&#45;&gt;8</title>
<path fill="none" stroke="black" d="M149.937,-363.503C141.588,-354.475 131.705,-342.33 123.86,-331.613"/>
<polygon fill="black" stroke="black" points="126.699,-329.566 118.075,-323.412 120.979,-333.601 126.699,-329.566"/>
</g>
<!-- 7&#45;&gt;10 -->
<g id="edge26" class="edge"><title>7&#45;&gt;10</title>
<path fill="none" stroke="black" d="M163.368,-360.021C160.334,-341.926 154.75,-312.559 147,-288 135.791,-252.478 118.225,-213.181 106.422,-188.304"/>
<polygon fill="black" stroke="black" points="109.536,-186.704 102.054,-179.202 103.225,-189.732 109.536,-186.704"/>
</g>
<!-- 7&#45;&gt;12 -->
<g id="edge27" class="edge"><title>7&#45;&gt;12</title>
<path fill="none" stroke="black" d="M175.908,-361.2C189.68,-338.211 213.937,-293.72 223,-252 239.683,-175.206 197.679,-86.0354 173.945,-43.7234"/>
<polygon fill="black" stroke="black" points="176.923,-41.8806 168.907,-34.9529 170.853,-45.3675 176.923,-41.8806"/>
</g>
<!-- 8&#45;&gt;7 -->
<g id="edge28" class="edge"><title>8&#45;&gt;7</title>
<path fill="none" stroke="black" d="M127.204,-320.65C135.411,-329.54 145.074,-341.405 152.822,-351.954"/>
<polygon fill="black" stroke="black" points="150.173,-354.269 158.806,-360.411 155.887,-350.226 150.173,-354.269"/>
</g>
<!-- 8&#45;&gt;9 -->
<g id="edge29" class="edge"><title>8&#45;&gt;9</title>
<path fill="none" stroke="black" d="M126.38,-290.834C137.196,-280.872 151.857,-267.369 164.051,-256.137"/>
<polygon fill="black" stroke="black" points="166.659,-258.494 171.643,-249.144 161.916,-253.345 166.659,-258.494"/>
</g>
<!-- 8&#45;&gt;11 -->
<g id="edge30" class="edge"><title>8&#45;&gt;11</title>
<path fill="none" stroke="black" d="M98.2347,-289.726C75.3488,-260.372 32.0444,-194.516 58,-144 66.9349,-126.611 84.5169,-113.65 100.301,-104.9"/>
<polygon fill="black" stroke="black" points="102.04,-107.941 109.308,-100.233 98.8192,-101.726 102.04,-107.941"/>
</g>
<!-- 9&#45;&gt;10 -->
<g id="edge31" class="edge"><title>9&#45;&gt;10</title>
<path fill="none" stroke="black" d="M166.943,-221.753C151.825,-211.645 131.364,-196.531 115.86,-184.164"/>
<polygon fill="black" stroke="black" points="117.788,-181.221 107.822,-177.625 113.371,-186.651 117.788,-181.221"/>
</g>
<!-- 9&#45;&gt;11 -->
<g id="edge32" class="edge"><title>9&#45;&gt;11</title>
<path fill="none" stroke="black" d="M180.583,-216.433C171.154,-192.088 153.459,-146.404 142.226,-117.402"/>
<polygon fill="black" stroke="black" points="145.422,-115.963 138.546,-107.902 138.895,-118.491 145.422,-115.963"/>
</g>
<!-- 9&#45;&gt;12 -->
<g id="edge33" class="edge"><title>9&#45;&gt;12</title>
<path fill="none" stroke="black" d="M185.236,-215.57C182.177,-185.99 175.492,-124.096 168,-72 166.786,-63.5558 165.291,-54.3848 163.871,-46.0826"/>
<polygon fill="black" stroke="black" points="167.305,-45.4012 162.139,-36.1511 160.409,-46.6037 167.305,-45.4012"/>
</g>
<!-- 10&#45;&gt;0 -->
<g id="edge36" class="edge"><title>10&#45;&gt;0</title>
<path fill="none" stroke="black" d="M93.897,-180.068C88.6526,-209.624 73.4698,-272.145 84,-324 97.3175,-389.581 135.965,-458.997 155.373,-495.353"/>
<polygon fill="black" stroke="black" points="152.322,-497.07 160.084,-504.282 158.513,-493.804 152.322,-497.07"/>
</g>
<!-- 10&#45;&gt;9 -->
<g id="edge34" class="edge"><title>10&#45;&gt;9</title>
<path fill="none" stroke="black" d="M114.239,-174.368C129.264,-184.426 149.496,-199.369 164.909,-211.653"/>
<polygon fill="black" stroke="black" points="162.945,-214.566 172.913,-218.155 167.359,-209.133 162.945,-214.566"/>
</g>
<!-- 10&#45;&gt;11 -->
<g id="edge35" class="edge"><title>10&#45;&gt;11</title>
<path fill="none" stroke="black" d="M102.813,-144.765C107.418,-136.283 113.155,-125.714 118.321,-116.197"/>
<polygon fill="black" stroke="black" points="121.539,-117.606 123.234,-107.147 115.387,-114.266 121.539,-117.606"/>
</g>
<!-- 11&#45;&gt;12 -->
<g id="edge37" class="edge"><title>11&#45;&gt;12</title>
<path fill="none" stroke="black" d="M138.399,-72.411C141.514,-64.3352 145.334,-54.4312 148.835,-45.3547"/>
<polygon fill="black" stroke="black" points="152.126,-46.5458 152.46,-35.9562 145.595,-44.0267 152.126,-46.5458"/>
</g>
<!-- 1 -->
<g id="node9" class="node"><title>1</title>
<ellipse fill="none" stroke="black" cx="466" cy="-378" rx="27" ry="18"/>
<text text-anchor="middle" x="466" y="-374.3" font-family="Times,serif" font-size="14.00">1</text>
</g>
<!-- 2 -->
<g id="node10" class="node"><title>2</title>
<ellipse fill="none" stroke="black" cx="466" cy="-306" rx="27" ry="18"/>
<text text-anchor="middle" x="466" y="-302.3" font-family="Times,serif" font-size="14.00">2</text>
</g>
<!-- 1&#45;&gt;2 -->
<g id="edge8" class="edge"><title>1&#45;&gt;2</title>
<path fill="none" stroke="black" d="M460.16,-360.411C459.297,-352.507 459.048,-342.852 459.412,-333.935"/>
<polygon fill="black" stroke="black" points="462.903,-334.179 460.121,-323.956 455.921,-333.683 462.903,-334.179"/>
</g>
<!-- 3 -->
<g id="node11" class="node"><title>3</title>
<ellipse fill="none" stroke="black" cx="466" cy="-594" rx="27" ry="18"/>
<text text-anchor="middle" x="466" y="-590.3" font-family="Times,serif" font-size="14.00">3</text>
</g>
<!-- 1&#45;&gt;3 -->
<g id="edge9" class="edge"><title>1&#45;&gt;3</title>
<path fill="none" stroke="black" d="M466,-396.232C466,-433.324 466,-520.981 466,-565.712"/>
<polygon fill="black" stroke="black" points="462.5,-565.849 466,-575.849 469.5,-565.849 462.5,-565.849"/>
</g>
<!-- 4 -->
<g id="node12" class="node"><title>4</title>
<ellipse fill="none" stroke="black" cx="411" cy="-522" rx="27" ry="18"/>
<text text-anchor="middle" x="411" y="-518.3" font-family="Times,serif" font-size="14.00">4</text>
</g>
<!-- 1&#45;&gt;4 -->
<g id="edge10" class="edge"><title>1&#45;&gt;4</title>
<path fill="none" stroke="black" d="M459.454,-395.902C449.949,-420.441 432.246,-466.146 421.073,-494.994"/>
<polygon fill="black" stroke="black" points="417.765,-493.844 417.417,-504.433 424.292,-496.372 417.765,-493.844"/>
</g>
<!-- 5 -->
<g id="node13" class="node"><title>5</title>
<ellipse fill="none" stroke="black" cx="521" cy="-450" rx="27" ry="18"/>
<text text-anchor="middle" x="521" y="-446.3" font-family="Times,serif" font-size="14.00">5</text>
</g>
<!-- 1&#45;&gt;5 -->
<g id="edge11" class="edge"><title>1&#45;&gt;5</title>
<path fill="none" stroke="black" d="M482.204,-392.65C490.411,-401.54 500.074,-413.405 507.822,-423.954"/>
<polygon fill="black" stroke="black" points="505.173,-426.269 513.806,-432.411 510.887,-422.226 505.173,-426.269"/>
</g>
<!-- 2&#45;&gt;1 -->
<g id="edge12" class="edge"><title>2&#45;&gt;1</title>
<path fill="none" stroke="black" d="M471.879,-323.956C472.714,-331.827 472.948,-341.374 472.583,-350.187"/>
<polygon fill="black" stroke="black" points="469.074,-350.184 471.84,-360.411 476.056,-350.691 469.074,-350.184"/>
</g>
<!-- 2&#45;&gt;3 -->
<g id="edge13" class="edge"><title>2&#45;&gt;3</title>
<path fill="none" stroke="black" d="M482.703,-320.297C513.757,-346.749 575.615,-408.559 557,-468 543.955,-509.656 510.763,-548.829 488.284,-571.865"/>
<polygon fill="black" stroke="black" points="485.709,-569.491 481.116,-579.039 490.661,-574.439 485.709,-569.491"/>
</g>
<!-- 2&#45;&gt;4 -->
<g id="edge14" class="edge"><title>2&#45;&gt;4</title>
<path fill="none" stroke="black" d="M452.814,-322.123C444.829,-332.168 435.21,-346.035 430,-360 413.295,-404.778 410.392,-460.988 410.33,-493.764"/>
<polygon fill="black" stroke="black" points="406.831,-493.955 410.402,-503.93 413.831,-493.905 406.831,-493.955"/>
</g>
<!-- 2&#45;&gt;5 -->
<g id="edge15" class="edge"><title>2&#45;&gt;5</title>
<path fill="none" stroke="black" d="M478.748,-322.298C486.559,-332.413 496.148,-346.292 502,-360 510.465,-379.828 515.304,-403.804 517.977,-421.873"/>
<polygon fill="black" stroke="black" points="514.539,-422.569 519.344,-432.012 521.477,-421.634 514.539,-422.569"/>
</g>
<!-- 3&#45;&gt;6 -->
<g id="edge16" class="edge"><title>3&#45;&gt;6</title>
<path fill="none" stroke="black" d="M442.749,-584.262C422.564,-575.661 393.714,-560.79 375,-540 358.86,-522.07 348.299,-496.548 342.105,-477.428"/>
<polygon fill="black" stroke="black" points="345.441,-476.369 339.181,-467.821 338.744,-478.407 345.441,-476.369"/>
</g>
<!-- 3&#45;&gt;4 -->
<g id="edge17" class="edge"><title>3&#45;&gt;4</title>
<path fill="none" stroke="black" d="M454.066,-577.811C446.786,-568.546 437.337,-556.52 429.146,-546.094"/>
<polygon fill="black" stroke="black" points="431.841,-543.86 422.911,-538.159 426.337,-548.185 431.841,-543.86"/>
</g>
<!-- 3&#45;&gt;5 -->
<g id="edge18" class="edge"><title>3&#45;&gt;5</title>
<path fill="none" stroke="black" d="M472.417,-576.433C481.846,-552.088 499.541,-506.404 510.774,-477.402"/>
<polygon fill="black" stroke="black" points="514.105,-478.491 514.454,-467.902 507.578,-475.963 514.105,-478.491"/>
</g>
<!-- 4&#45;&gt;6 -->
<g id="edge20" class="edge"><title>4&#45;&gt;6</title>
<path fill="none" stroke="black" d="M395.62,-506.834C384.804,-496.872 370.143,-483.369 357.949,-472.137"/>
<polygon fill="black" stroke="black" points="360.084,-469.345 350.357,-465.144 355.341,-474.494 360.084,-469.345"/>
</g>
<!-- 4&#45;&gt;5 -->
<g id="edge19" class="edge"><title>4&#45;&gt;5</title>
<path fill="none" stroke="black" d="M430.161,-508.807C447.669,-497.665 473.759,-481.062 493.493,-468.504"/>
<polygon fill="black" stroke="black" points="495.501,-471.375 502.059,-463.053 491.743,-465.469 495.501,-471.375"/>
</g>
<!-- 5&#45;&gt;1 -->
<g id="edge21" class="edge"><title>5&#45;&gt;1</title>
<path fill="none" stroke="black" d="M504.937,-435.503C496.588,-426.475 486.705,-414.33 478.86,-403.613"/>
<polygon fill="black" stroke="black" points="481.699,-401.566 473.075,-395.412 475.979,-405.601 481.699,-401.566"/>
</g>
</g>
</svg>
