<?xml version="1.0" encoding="UTF-8" standalone="no"?>
<!DOCTYPE svg PUBLIC "-//W3C//DTD SVG 1.1//EN"
 "http://www.w3.org/Graphics/SVG/1.1/DTD/svg11.dtd">
<!-- Generated by graphviz version 2.36.0 (20140111.2315)
 -->
<!-- Title: %3 Pages: 1 -->
<svg width="608pt" height="692pt"
 viewBox="0.00 0.00 608.00 692.00" xmlns="http://www.w3.org/2000/svg" xmlns:xlink="http://www.w3.org/1999/xlink">
<g id="graph0" class="graph" transform="scale(1 1) rotate(0) translate(4 688)">
<title>%3</title>
<polygon fill="white" stroke="none" points="-4,4 -4,-688 604,-688 604,4 -4,4"/>
<!-- 1 -->
<g id="node1" class="node"><title>1</title>
<ellipse fill="none" stroke="black" cx="411" cy="-666" rx="27" ry="18"/>
<text text-anchor="middle" x="411" y="-662.3" font-family="Times,serif" font-size="14.00">1</text>
</g>
<!-- 7 -->
<g id="node2" class="node"><title>7</title>
<ellipse fill="none" stroke="black" cx="141" cy="-378" rx="27" ry="18"/>
<text text-anchor="middle" x="141" y="-374.3" font-family="Times,serif" font-size="14.00">7</text>
</g>
<!-- 1&#45;&gt;7 -->
<g id="edge1" class="edge"><title>1&#45;&gt;7</title>
<path fill="none" stroke="black" d="M387.221,-657.389C364.079,-648.029 329.216,-631.025 302,-612 229.599,-561.388 208.306,-544.994 165,-468 153.925,-448.309 145.248,-424.184 140.959,-406.021"/>
<polygon fill="black" stroke="black" points="144.365,-405.205 138.955,-396.095 137.503,-406.59 144.365,-405.205"/>
</g>
<!-- 8 -->
<g id="node3" class="node"><title>8</title>
<ellipse fill="none" stroke="black" cx="347" cy="-594" rx="27" ry="18"/>
<text text-anchor="middle" x="347" y="-590.3" font-family="Times,serif" font-size="14.00">8</text>
</g>
<!-- 1&#45;&gt;8 -->
<g id="edge2" class="edge"><title>1&#45;&gt;8</title>
<path fill="none" stroke="black" d="M393.551,-651.834C383.809,-642.618 371.964,-630.041 362.55,-619.06"/>
<polygon fill="black" stroke="black" points="364.983,-616.511 355.9,-611.057 359.599,-620.985 364.983,-616.511"/>
</g>
<!-- 9 -->
<g id="node4" class="node"><title>9</title>
<ellipse fill="none" stroke="black" cx="329" cy="-234" rx="27" ry="18"/>
<text text-anchor="middle" x="329" y="-230.3" font-family="Times,serif" font-size="14.00">9</text>
</g>
<!-- 1&#45;&gt;9 -->
<g id="edge3" class="edge"><title>1&#45;&gt;9</title>
<path fill="none" stroke="black" d="M385.115,-660.146C359.5,-653.373 321.947,-638.793 302,-612 243.546,-533.486 268.602,-493.412 259,-396 254.157,-346.867 262.857,-332.127 285,-288 290.585,-276.871 298.052,-265.248 305.428,-255.732"/>
<polygon fill="black" stroke="black" points="308.164,-257.915 311.836,-247.977 302.768,-253.456 308.164,-257.915"/>
</g>
<!-- 10 -->
<g id="node5" class="node"><title>10</title>
<ellipse fill="none" stroke="black" cx="405" cy="-306" rx="27" ry="18"/>
<text text-anchor="middle" x="405" y="-302.3" font-family="Times,serif" font-size="14.00">10</text>
</g>
<!-- 1&#45;&gt;10 -->
<g id="edge4" class="edge"><title>1&#45;&gt;10</title>
<path fill="none" stroke="black" d="M434.658,-656.889C481.802,-640.651 582,-599.025 582,-523 582,-523 582,-523 582,-449 582,-375.872 490.044,-335.378 438.574,-317.779"/>
<polygon fill="black" stroke="black" points="439.453,-314.383 428.859,-314.562 437.252,-321.028 439.453,-314.383"/>
</g>
<!-- 12 -->
<g id="node6" class="node"><title>12</title>
<ellipse fill="none" stroke="black" cx="527" cy="-450" rx="27" ry="18"/>
<text text-anchor="middle" x="527" y="-446.3" font-family="Times,serif" font-size="14.00">12</text>
</g>
<!-- 1&#45;&gt;12 -->
<g id="edge5" class="edge"><title>1&#45;&gt;12</title>
<path fill="none" stroke="black" d="M432.249,-654.795C450.293,-646.359 475,-632.423 489,-612 516.676,-571.626 520.231,-512.642 522.346,-478.405"/>
<polygon fill="black" stroke="black" points="525.852,-478.421 523.01,-468.214 518.867,-477.965 525.852,-478.421"/>
</g>
<!-- 13 -->
<g id="node7" class="node"><title>13</title>
<ellipse fill="none" stroke="black" cx="469" cy="-378" rx="27" ry="18"/>
<text text-anchor="middle" x="469" y="-374.3" font-family="Times,serif" font-size="14.00">13</text>
</g>
<!-- 1&#45;&gt;13 -->
<g id="edge6" class="edge"><title>1&#45;&gt;13</title>
<path fill="none" stroke="black" d="M410.784,-647.809C415.693,-623.894 429.741,-579.11 438,-540 447.897,-493.13 454.344,-437.603 460.19,-405.525"/>
<polygon fill="black" stroke="black" points="463.648,-406.08 462.153,-395.591 456.781,-404.723 463.648,-406.08"/>
</g>
<!-- 7&#45;&gt;1 -->
<g id="edge29" class="edge"><title>7&#45;&gt;1</title>
<path fill="none" stroke="black" d="M151.663,-394.766C159.457,-413.081 169.428,-443.87 183,-468 226.306,-544.994 247.599,-561.388 320,-612 340.022,-625.996 364.183,-638.898 382.708,-648.468"/>
<polygon fill="black" stroke="black" points="381.337,-651.698 391.831,-653.157 384.537,-645.473 381.337,-651.698"/>
</g>
<!-- 4 -->
<g id="node10" class="node"><title>4</title>
<ellipse fill="none" stroke="black" cx="150" cy="-18" rx="27" ry="18"/>
<text text-anchor="middle" x="150" y="-14.3" font-family="Times,serif" font-size="14.00">4</text>
</g>
<!-- 7&#45;&gt;4 -->
<g id="edge28" class="edge"><title>7&#45;&gt;4</title>
<path fill="none" stroke="black" d="M117.993,-368.272C77.7713,-349.408 0,-301.14 0,-235 0,-235 0,-235 0,-161 0,-115.63 18.1685,-104.33 50,-72 68.465,-53.2459 94.9379,-38.8247 116.174,-29.7935"/>
<polygon fill="black" stroke="black" points="117.55,-33.0127 125.516,-26.0271 114.932,-26.5206 117.55,-33.0127"/>
</g>
<!-- 5 -->
<g id="node11" class="node"><title>5</title>
<ellipse fill="none" stroke="black" cx="141" cy="-306" rx="27" ry="18"/>
<text text-anchor="middle" x="141" y="-302.3" font-family="Times,serif" font-size="14.00">5</text>
</g>
<!-- 7&#45;&gt;5 -->
<g id="edge27" class="edge"><title>7&#45;&gt;5</title>
<path fill="none" stroke="black" d="M135.16,-360.411C134.297,-352.507 134.048,-342.852 134.412,-333.935"/>
<polygon fill="black" stroke="black" points="137.903,-334.179 135.121,-323.956 130.921,-333.683 137.903,-334.179"/>
</g>
<!-- 8&#45;&gt;1 -->
<g id="edge34" class="edge"><title>8&#45;&gt;1</title>
<path fill="none" stroke="black" d="M364.623,-608.331C374.297,-617.498 386.007,-629.934 395.348,-640.821"/>
<polygon fill="black" stroke="black" points="392.871,-643.316 401.957,-648.765 398.252,-638.839 392.871,-643.316"/>
</g>
<!-- 8&#45;&gt;7 -->
<g id="edge30" class="edge"><title>8&#45;&gt;7</title>
<path fill="none" stroke="black" d="M326.933,-581.922C310.177,-572.134 286.179,-556.831 268,-540 221.914,-497.332 179.035,-437.014 156.829,-403.635"/>
<polygon fill="black" stroke="black" points="159.549,-401.401 151.128,-394.971 153.701,-405.249 159.549,-401.401"/>
</g>
<!-- 8&#45;&gt;9 -->
<g id="edge31" class="edge"><title>8&#45;&gt;9</title>
<path fill="none" stroke="black" d="M331.81,-578.811C312.201,-554.049 282,-500.821 282,-451 282,-451 282,-451 282,-377 282,-334.539 298.052,-287.289 311.761,-259.411"/>
<polygon fill="black" stroke="black" points="314.942,-260.88 316.482,-250.398 308.742,-257.632 314.942,-260.88"/>
</g>
<!-- 8&#45;&gt;13 -->
<g id="edge33" class="edge"><title>8&#45;&gt;13</title>
<path fill="none" stroke="black" d="M343.91,-575.933C345.78,-557.507 353.856,-527.626 366,-504 386.833,-463.469 420.753,-422.355 444.182,-398.844"/>
<polygon fill="black" stroke="black" points="446.649,-401.327 451.39,-391.852 441.775,-396.302 446.649,-401.327"/>
</g>
<!-- 11 -->
<g id="node13" class="node"><title>11</title>
<ellipse fill="none" stroke="black" cx="411" cy="-522" rx="27" ry="18"/>
<text text-anchor="middle" x="411" y="-518.3" font-family="Times,serif" font-size="14.00">11</text>
</g>
<!-- 8&#45;&gt;11 -->
<g id="edge32" class="edge"><title>8&#45;&gt;11</title>
<path fill="none" stroke="black" d="M356.043,-576.765C363.967,-566.885 375.453,-554.172 385.962,-543.59"/>
<polygon fill="black" stroke="black" points="388.679,-545.828 393.377,-536.331 383.782,-540.825 388.679,-545.828"/>
</g>
<!-- 9&#45;&gt;1 -->
<g id="edge37" class="edge"><title>9&#45;&gt;1</title>
<path fill="none" stroke="black" d="M324.123,-252.039C318.08,-262.135 309.33,-275.385 303,-288 280.857,-332.127 272.157,-346.867 277,-396 286.602,-493.412 261.546,-533.486 320,-612 334.621,-631.639 358.702,-644.717 378.53,-652.967"/>
<polygon fill="black" stroke="black" points="377.276,-656.235 387.863,-656.637 379.838,-649.72 377.276,-656.235"/>
</g>
<!-- 9&#45;&gt;8 -->
<g id="edge38" class="edge"><title>9&#45;&gt;8</title>
<path fill="none" stroke="black" d="M327.076,-252.093C319.206,-278.377 300,-330.553 300,-377 300,-451 300,-451 300,-451 300,-494.144 322.649,-539.843 336.824,-567.398"/>
<polygon fill="black" stroke="black" points="333.745,-569.065 341.434,-576.354 339.969,-565.861 333.745,-569.065"/>
</g>
<!-- 9&#45;&gt;10 -->
<g id="edge35" class="edge"><title>9&#45;&gt;10</title>
<path fill="none" stroke="black" d="M347.561,-247.238C359.494,-256.864 374.716,-270.548 386.597,-282.18"/>
<polygon fill="black" stroke="black" points="384.316,-284.85 393.853,-289.465 389.276,-279.91 384.316,-284.85"/>
</g>
<!-- 2 -->
<g id="node8" class="node"><title>2</title>
<ellipse fill="none" stroke="black" cx="205" cy="-162" rx="27" ry="18"/>
<text text-anchor="middle" x="205" y="-158.3" font-family="Times,serif" font-size="14.00">2</text>
</g>
<!-- 9&#45;&gt;2 -->
<g id="edge36" class="edge"><title>9&#45;&gt;2</title>
<path fill="none" stroke="black" d="M309.077,-221.753C288.74,-210.272 256.965,-192.335 233.872,-179.298"/>
<polygon fill="black" stroke="black" points="235.302,-176.087 224.873,-174.219 231.861,-182.183 235.302,-176.087"/>
</g>
<!-- 10&#45;&gt;1 -->
<g id="edge41" class="edge"><title>10&#45;&gt;1</title>
<path fill="none" stroke="black" d="M430.521,-312.234C483.619,-325.764 600,-366.731 600,-449 600,-523 600,-523 600,-523 600,-598.692 500.677,-640.286 445.902,-656.674"/>
<polygon fill="black" stroke="black" points="444.878,-653.327 436.227,-659.443 446.804,-660.057 444.878,-653.327"/>
</g>
<!-- 10&#45;&gt;9 -->
<g id="edge42" class="edge"><title>10&#45;&gt;9</title>
<path fill="none" stroke="black" d="M386.495,-292.807C374.54,-283.167 359.267,-269.439 347.363,-257.78"/>
<polygon fill="black" stroke="black" points="349.631,-255.097 340.094,-250.481 344.67,-260.037 349.631,-255.097"/>
</g>
<!-- 10&#45;&gt;2 -->
<g id="edge40" class="edge"><title>10&#45;&gt;2</title>
<path fill="none" stroke="black" d="M401.645,-287.795C396.879,-267.823 386.254,-235.18 365,-216 330.497,-184.864 277.222,-171.962 241.747,-166.654"/>
<polygon fill="black" stroke="black" points="242.179,-163.18 231.797,-165.293 241.231,-170.116 242.179,-163.18"/>
</g>
<!-- 10&#45;&gt;11 -->
<g id="edge39" class="edge"><title>10&#45;&gt;11</title>
<path fill="none" stroke="black" d="M409.332,-323.935C413.924,-360.847 416.667,-448.825 414.922,-493.685"/>
<polygon fill="black" stroke="black" points="411.417,-493.682 414.397,-503.849 418.408,-494.043 411.417,-493.682"/>
</g>
<!-- 12&#45;&gt;1 -->
<g id="edge47" class="edge"><title>12&#45;&gt;1</title>
<path fill="none" stroke="black" d="M533.453,-467.723C538.728,-498.949 537.832,-567.023 507,-612 492.605,-633 466.89,-647.141 445.537,-655.497"/>
<polygon fill="black" stroke="black" points="444.291,-652.226 436.089,-658.933 446.683,-658.804 444.291,-652.226"/>
</g>
<!-- 12&#45;&gt;10 -->
<g id="edge48" class="edge"><title>12&#45;&gt;10</title>
<path fill="none" stroke="black" d="M526.803,-431.805C525.736,-412.442 521.357,-380.951 505,-360 488.537,-338.914 461.301,-325.266 439.407,-317.108"/>
<polygon fill="black" stroke="black" points="440.376,-313.739 429.781,-313.739 438.064,-320.346 440.376,-313.739"/>
</g>
<!-- 12&#45;&gt;13 -->
<g id="edge46" class="edge"><title>12&#45;&gt;13</title>
<path fill="none" stroke="black" d="M510.359,-435.503C501.622,-426.475 491.219,-414.33 482.915,-403.613"/>
<polygon fill="black" stroke="black" points="485.572,-401.321 476.778,-395.412 479.967,-405.515 485.572,-401.321"/>
</g>
<!-- 12&#45;&gt;11 -->
<g id="edge49" class="edge"><title>12&#45;&gt;11</title>
<path fill="none" stroke="black" d="M510.292,-464.365C492.251,-476.261 463.517,-493.644 441.496,-506.009"/>
<polygon fill="black" stroke="black" points="439.579,-503.07 432.521,-510.971 442.966,-509.196 439.579,-503.07"/>
</g>
<!-- 13&#45;&gt;1 -->
<g id="edge50" class="edge"><title>13&#45;&gt;1</title>
<path fill="none" stroke="black" d="M472.923,-396.06C473.686,-425.604 466.958,-488.107 456,-540 448.577,-575.151 436.478,-614.885 426.221,-639.932"/>
<polygon fill="black" stroke="black" points="422.883,-638.832 422.104,-649.398 429.302,-641.624 422.883,-638.832"/>
</g>
<!-- 13&#45;&gt;8 -->
<g id="edge51" class="edge"><title>13&#45;&gt;8</title>
<path fill="none" stroke="black" d="M459.972,-395.153C442.496,-417.863 405.971,-461.256 384,-504 373.614,-524.205 366.204,-548.985 360.146,-567.262"/>
<polygon fill="black" stroke="black" points="356.763,-566.337 356.817,-576.932 363.382,-568.616 356.763,-566.337"/>
</g>
<!-- 13&#45;&gt;10 -->
<g id="edge52" class="edge"><title>13&#45;&gt;10</title>
<path fill="none" stroke="black" d="M455.427,-362.155C446.688,-352.596 435.166,-339.994 425.342,-329.249"/>
<polygon fill="black" stroke="black" points="427.884,-326.842 418.553,-321.824 422.718,-331.566 427.884,-326.842"/>
</g>
<!-- 13&#45;&gt;12 -->
<g id="edge53" class="edge"><title>13&#45;&gt;12</title>
<path fill="none" stroke="black" d="M485.789,-392.65C494.463,-401.629 504.752,-413.642 512.994,-424.27"/>
<polygon fill="black" stroke="black" points="510.297,-426.507 519.095,-432.411 515.899,-422.31 510.297,-426.507"/>
</g>
<!-- 3 -->
<g id="node9" class="node"><title>3</title>
<ellipse fill="none" stroke="black" cx="95" cy="-90" rx="27" ry="18"/>
<text text-anchor="middle" x="95" y="-86.3" font-family="Times,serif" font-size="14.00">3</text>
</g>
<!-- 2&#45;&gt;3 -->
<g id="edge7" class="edge"><title>2&#45;&gt;3</title>
<path fill="none" stroke="black" d="M183.814,-150.671C165.324,-140.118 138.783,-123.475 119.437,-110.444"/>
<polygon fill="black" stroke="black" points="121.338,-107.505 111.109,-104.746 117.385,-113.282 121.338,-107.505"/>
</g>
<!-- 2&#45;&gt;4 -->
<g id="edge8" class="edge"><title>2&#45;&gt;4</title>
<path fill="none" stroke="black" d="M194.471,-145.261C182.447,-121.232 164.252,-75.1032 154.947,-45.7516"/>
<polygon fill="black" stroke="black" points="158.286,-44.6992 152.051,-36.1329 151.583,-46.7174 158.286,-44.6992"/>
</g>
<!-- 2&#45;&gt;5 -->
<g id="edge9" class="edge"><title>2&#45;&gt;5</title>
<path fill="none" stroke="black" d="M207.868,-179.957C205.809,-198.288 197.572,-228.088 186,-252 180.528,-263.306 172.879,-274.95 165.266,-284.434"/>
<polygon fill="black" stroke="black" points="162.5,-282.283 158.64,-292.15 167.81,-286.844 162.5,-282.283"/>
</g>
<!-- 6 -->
<g id="node12" class="node"><title>6</title>
<ellipse fill="none" stroke="black" cx="141" cy="-234" rx="27" ry="18"/>
<text text-anchor="middle" x="141" y="-230.3" font-family="Times,serif" font-size="14.00">6</text>
</g>
<!-- 2&#45;&gt;6 -->
<g id="edge10" class="edge"><title>2&#45;&gt;6</title>
<path fill="none" stroke="black" d="M196.1,-179.057C188.066,-189.094 176.302,-202.105 165.616,-212.835"/>
<polygon fill="black" stroke="black" points="163.158,-210.343 158.449,-219.834 168.049,-215.351 163.158,-210.343"/>
</g>
<!-- 3&#45;&gt;2 -->
<g id="edge13" class="edge"><title>3&#45;&gt;2</title>
<path fill="none" stroke="black" d="M116.287,-101.386C134.739,-111.924 161.155,-128.488 180.457,-141.484"/>
<polygon fill="black" stroke="black" points="178.541,-144.414 188.771,-147.17 182.493,-138.636 178.541,-144.414"/>
</g>
<!-- 3&#45;&gt;4 -->
<g id="edge11" class="edge"><title>3&#45;&gt;4</title>
<path fill="none" stroke="black" d="M102.194,-72.411C108.669,-62.8405 118.061,-50.7026 126.896,-40.4171"/>
<polygon fill="black" stroke="black" points="129.771,-42.4505 133.796,-32.6499 124.538,-37.8016 129.771,-42.4505"/>
</g>
<!-- 3&#45;&gt;5 -->
<g id="edge12" class="edge"><title>3&#45;&gt;5</title>
<path fill="none" stroke="black" d="M98.5569,-108.019C99.5888,-138.029 96.8812,-201.915 114,-252 117.329,-261.739 122.955,-271.362 128.357,-279.681"/>
<polygon fill="black" stroke="black" points="125.544,-281.771 134.012,-288.139 131.363,-277.88 125.544,-281.771"/>
</g>
<!-- 4&#45;&gt;7 -->
<g id="edge16" class="edge"><title>4&#45;&gt;7</title>
<path fill="none" stroke="black" d="M129.853,-30.3561C111.855,-39.4182 86.0862,-53.6306 68,-72 36.1685,-104.33 18,-115.63 18,-161 18,-235 18,-235 18,-235 18,-292.56 76.9014,-336.583 113.329,-359.471"/>
<polygon fill="black" stroke="black" points="111.704,-362.58 122.057,-364.829 115.367,-356.614 111.704,-362.58"/>
</g>
<!-- 4&#45;&gt;2 -->
<g id="edge14" class="edge"><title>4&#45;&gt;2</title>
<path fill="none" stroke="black" d="M160.599,-34.8802C172.628,-58.9545 190.775,-104.978 200.06,-134.271"/>
<polygon fill="black" stroke="black" points="196.716,-135.305 202.95,-143.871 203.419,-133.287 196.716,-135.305"/>
</g>
<!-- 4&#45;&gt;3 -->
<g id="edge15" class="edge"><title>4&#45;&gt;3</title>
<path fill="none" stroke="black" d="M142.925,-35.4119C136.362,-45.1351 126.745,-57.5547 117.755,-67.9888"/>
<polygon fill="black" stroke="black" points="115.1,-65.7077 111.063,-75.5033 120.327,-70.3632 115.1,-65.7077"/>
</g>
<!-- 4&#45;&gt;5 -->
<g id="edge17" class="edge"><title>4&#45;&gt;5</title>
<path fill="none" stroke="black" d="M169.321,-30.866C202.329,-56.1749 263.487,-118.203 250,-180 242.494,-214.391 238.739,-224.314 217,-252 204.902,-267.407 187.454,-281.024 172.159,-290.597"/>
<polygon fill="black" stroke="black" points="170.281,-287.641 163.46,-295.749 173.848,-293.664 170.281,-287.641"/>
</g>
<!-- 4&#45;&gt;6 -->
<g id="edge18" class="edge"><title>4&#45;&gt;6</title>
<path fill="none" stroke="black" d="M149.275,-36.2325C147.715,-73.3243 144.029,-160.981 142.148,-205.712"/>
<polygon fill="black" stroke="black" points="138.645,-205.711 141.721,-215.849 145.638,-206.005 138.645,-205.711"/>
</g>
<!-- 5&#45;&gt;7 -->
<g id="edge23" class="edge"><title>5&#45;&gt;7</title>
<path fill="none" stroke="black" d="M146.879,-323.956C147.714,-331.827 147.948,-341.374 147.583,-350.187"/>
<polygon fill="black" stroke="black" points="144.074,-350.184 146.84,-360.411 151.056,-350.691 144.074,-350.184"/>
</g>
<!-- 5&#45;&gt;2 -->
<g id="edge20" class="edge"><title>5&#45;&gt;2</title>
<path fill="none" stroke="black" d="M146.473,-288.112C152.798,-278.066 161.798,-264.816 168,-252 177.897,-231.551 185.354,-206.794 191.554,-188.588"/>
<polygon fill="black" stroke="black" points="194.924,-189.557 194.972,-178.963 188.327,-187.215 194.924,-189.557"/>
</g>
<!-- 5&#45;&gt;3 -->
<g id="edge21" class="edge"><title>5&#45;&gt;3</title>
<path fill="none" stroke="black" d="M122.351,-292.565C112.223,-282.445 101.252,-267.367 96,-252 80.5384,-206.764 81.2503,-150.269 86.1096,-117.644"/>
<polygon fill="black" stroke="black" points="89.6004,-118.003 87.8992,-107.546 82.7078,-116.782 89.6004,-118.003"/>
</g>
<!-- 5&#45;&gt;4 -->
<g id="edge22" class="edge"><title>5&#45;&gt;4</title>
<path fill="none" stroke="black" d="M156.075,-291.012C168.945,-281.42 186.726,-267.631 199,-252 220.739,-224.314 224.494,-214.391 232,-180 243.878,-125.576 197.86,-70.9727 169.766,-41.4301"/>
<polygon fill="black" stroke="black" points="172.181,-38.8926 162.718,-34.1285 167.144,-43.7542 172.181,-38.8926"/>
</g>
<!-- 5&#45;&gt;6 -->
<g id="edge19" class="edge"><title>5&#45;&gt;6</title>
<path fill="none" stroke="black" d="M135.16,-288.411C134.297,-280.507 134.048,-270.852 134.412,-261.935"/>
<polygon fill="black" stroke="black" points="137.903,-262.179 135.121,-251.956 130.921,-261.683 137.903,-262.179"/>
</g>
<!-- 6&#45;&gt;2 -->
<g id="edge24" class="edge"><title>6&#45;&gt;2</title>
<path fill="none" stroke="black" d="M150.043,-216.765C157.967,-206.885 169.453,-194.172 179.962,-183.59"/>
<polygon fill="black" stroke="black" points="182.679,-185.828 187.377,-176.331 177.782,-180.825 182.679,-185.828"/>
</g>
<!-- 6&#45;&gt;3 -->
<g id="edge25" class="edge"><title>6&#45;&gt;3</title>
<path fill="none" stroke="black" d="M135.543,-216.153C127.658,-191.813 113.001,-146.568 103.638,-117.665"/>
<polygon fill="black" stroke="black" points="106.862,-116.26 100.45,-107.825 100.203,-118.417 106.862,-116.26"/>
</g>
<!-- 6&#45;&gt;5 -->
<g id="edge26" class="edge"><title>6&#45;&gt;5</title>
<path fill="none" stroke="black" d="M146.879,-251.956C147.714,-259.827 147.948,-269.374 147.583,-278.187"/>
<polygon fill="black" stroke="black" points="144.074,-278.184 146.84,-288.411 151.056,-278.691 144.074,-278.184"/>
</g>
<!-- 11&#45;&gt;8 -->
<g id="edge44" class="edge"><title>11&#45;&gt;8</title>
<path fill="none" stroke="black" d="M402.1,-539.057C394.066,-549.094 382.302,-562.105 371.616,-572.835"/>
<polygon fill="black" stroke="black" points="369.158,-570.343 364.449,-579.834 374.049,-575.351 369.158,-570.343"/>
</g>
<!-- 11&#45;&gt;10 -->
<g id="edge45" class="edge"><title>11&#45;&gt;10</title>
<path fill="none" stroke="black" d="M406.686,-504.208C402.078,-467.342 399.324,-379.045 401.084,-334.171"/>
<polygon fill="black" stroke="black" points="404.588,-334.179 401.613,-324.01 397.598,-333.815 404.588,-334.179"/>
</g>
<!-- 11&#45;&gt;12 -->
<g id="edge43" class="edge"><title>11&#45;&gt;12</title>
<path fill="none" stroke="black" d="M427.908,-507.503C445.955,-495.614 474.547,-478.321 496.484,-466.002"/>
<polygon fill="black" stroke="black" points="498.37,-468.959 505.428,-461.057 494.983,-462.833 498.37,-468.959"/>
</g>
</g>
</svg>
