<?xml version="1.0" encoding="UTF-8" standalone="no"?>
<!DOCTYPE svg PUBLIC "-//W3C//DTD SVG 1.1//EN"
 "http://www.w3.org/Graphics/SVG/1.1/DTD/svg11.dtd">
<!-- Generated by graphviz version 2.36.0 (20140111.2315)
 -->
<!-- Title: %3 Pages: 1 -->
<svg width="504pt" height="620pt"
 viewBox="0.00 0.00 503.83 620.00" xmlns="http://www.w3.org/2000/svg" xmlns:xlink="http://www.w3.org/1999/xlink">
<g id="graph0" class="graph" transform="scale(1 1) rotate(0) translate(4 616)">
<title>%3</title>
<polygon fill="white" stroke="none" points="-4,4 -4,-616 499.834,-616 499.834,4 -4,4"/>
<!-- 2 -->
<g id="node1" class="node"><title>2</title>
<ellipse fill="none" stroke="black" cx="264.834" cy="-378" rx="27" ry="18"/>
<text text-anchor="middle" x="264.834" y="-374.3" font-family="Times,serif" font-size="14.00">2</text>
</g>
<!-- 3 -->
<g id="node2" class="node"><title>3</title>
<ellipse fill="none" stroke="black" cx="170.834" cy="-306" rx="27" ry="18"/>
<text text-anchor="middle" x="170.834" y="-302.3" font-family="Times,serif" font-size="14.00">3</text>
</g>
<!-- 2&#45;&gt;3 -->
<g id="edge1" class="edge"><title>2&#45;&gt;3</title>
<path fill="none" stroke="black" d="M244.616,-365.753C229.353,-355.645 208.676,-340.531 192.996,-328.164"/>
<polygon fill="black" stroke="black" points="194.851,-325.164 184.865,-321.625 190.464,-330.619 194.851,-325.164"/>
</g>
<!-- 4 -->
<g id="node3" class="node"><title>4</title>
<ellipse fill="none" stroke="black" cx="162.834" cy="-90" rx="27" ry="18"/>
<text text-anchor="middle" x="162.834" y="-86.3" font-family="Times,serif" font-size="14.00">4</text>
</g>
<!-- 2&#45;&gt;4 -->
<g id="edge2" class="edge"><title>2&#45;&gt;4</title>
<path fill="none" stroke="black" d="M255.683,-360.94C240.241,-322.787 210.751,-223.92 178.834,-144 175.4,-135.402 171.248,-126.22 167.728,-117.955"/>
<polygon fill="black" stroke="black" points="170.858,-116.364 163.836,-108.43 164.378,-119.011 170.858,-116.364"/>
</g>
<!-- 5 -->
<g id="node4" class="node"><title>5</title>
<ellipse fill="none" stroke="black" cx="106.834" cy="-234" rx="27" ry="18"/>
<text text-anchor="middle" x="106.834" y="-230.3" font-family="Times,serif" font-size="14.00">5</text>
</g>
<!-- 2&#45;&gt;5 -->
<g id="edge3" class="edge"><title>2&#45;&gt;5</title>
<path fill="none" stroke="black" d="M238.193,-374.126C206.592,-369.071 155.222,-355.913 125.834,-324 110.187,-307.01 103.284,-281.334 101.794,-261.92"/>
<polygon fill="black" stroke="black" points="105.291,-261.767 101.501,-251.873 98.2936,-261.971 105.291,-261.767"/>
</g>
<!-- 6 -->
<g id="node5" class="node"><title>6</title>
<ellipse fill="none" stroke="black" cx="189.834" cy="-18" rx="27" ry="18"/>
<text text-anchor="middle" x="189.834" y="-14.3" font-family="Times,serif" font-size="14.00">6</text>
</g>
<!-- 2&#45;&gt;6 -->
<g id="edge4" class="edge"><title>2&#45;&gt;6</title>
<path fill="none" stroke="black" d="M270.4,-360.354C283.529,-334.655 311.834,-283.231 311.834,-235 311.834,-235 311.834,-235 311.834,-161 311.834,-103.642 253.378,-59.5506 217.247,-36.596"/>
<polygon fill="black" stroke="black" points="218.932,-33.5229 208.591,-31.2203 215.239,-39.4694 218.932,-33.5229"/>
</g>
<!-- 3&#45;&gt;2 -->
<g id="edge7" class="edge"><title>3&#45;&gt;2</title>
<path fill="none" stroke="black" d="M191.073,-318.261C206.382,-328.402 227.129,-343.57 242.819,-355.953"/>
<polygon fill="black" stroke="black" points="240.965,-358.953 250.949,-362.496 245.353,-353.5 240.965,-358.953"/>
</g>
<!-- 3&#45;&gt;4 -->
<g id="edge5" class="edge"><title>3&#45;&gt;4</title>
<path fill="none" stroke="black" d="M166.363,-288.208C161.41,-251.342 157.831,-163.045 159.172,-118.171"/>
<polygon fill="black" stroke="black" points="162.676,-118.151 159.605,-108.01 155.682,-117.852 162.676,-118.151"/>
</g>
<!-- 3&#45;&gt;5 -->
<g id="edge6" class="edge"><title>3&#45;&gt;5</title>
<path fill="none" stroke="black" d="M153.384,-291.834C143.642,-282.618 131.797,-270.041 122.383,-259.06"/>
<polygon fill="black" stroke="black" points="124.816,-256.511 115.733,-251.057 119.432,-260.985 124.816,-256.511"/>
</g>
<!-- 4&#45;&gt;2 -->
<g id="edge8" class="edge"><title>4&#45;&gt;2</title>
<path fill="none" stroke="black" d="M177.567,-105.188C184.37,-115.744 191.476,-130.584 196.834,-144 226.028,-217.102 253.191,-306.054 262.663,-349.898"/>
<polygon fill="black" stroke="black" points="259.248,-350.667 264.637,-359.789 266.112,-349.297 259.248,-350.667"/>
</g>
<!-- 4&#45;&gt;3 -->
<g id="edge9" class="edge"><title>4&#45;&gt;3</title>
<path fill="none" stroke="black" d="M167.324,-107.935C172.261,-144.847 175.827,-232.825 174.5,-277.685"/>
<polygon fill="black" stroke="black" points="170.996,-277.71 174.07,-287.849 177.99,-278.006 170.996,-277.71"/>
</g>
<!-- 4&#45;&gt;5 -->
<g id="edge11" class="edge"><title>4&#45;&gt;5</title>
<path fill="none" stroke="black" d="M160.662,-108.133C153.487,-132.988 135.497,-179.204 122.025,-207.904"/>
<polygon fill="black" stroke="black" points="118.7,-206.737 117.473,-217.261 124.995,-209.8 118.7,-206.737"/>
</g>
<!-- 4&#45;&gt;6 -->
<g id="edge12" class="edge"><title>4&#45;&gt;6</title>
<path fill="none" stroke="black" d="M169.232,-72.411C172.347,-64.3352 176.167,-54.4312 179.668,-45.3547"/>
<polygon fill="black" stroke="black" points="182.96,-46.5458 183.293,-35.9562 176.429,-44.0267 182.96,-46.5458"/>
</g>
<!-- 7 -->
<g id="node6" class="node"><title>7</title>
<ellipse fill="none" stroke="black" cx="50.8336" cy="-162" rx="27" ry="18"/>
<text text-anchor="middle" x="50.8336" y="-158.3" font-family="Times,serif" font-size="14.00">7</text>
</g>
<!-- 4&#45;&gt;7 -->
<g id="edge10" class="edge"><title>4&#45;&gt;7</title>
<path fill="none" stroke="black" d="M146.611,-104.556C129.369,-116.353 102.106,-133.439 80.9738,-145.718"/>
<polygon fill="black" stroke="black" points="78.9919,-142.82 72.0475,-150.821 82.466,-148.897 78.9919,-142.82"/>
</g>
<!-- 5&#45;&gt;2 -->
<g id="edge14" class="edge"><title>5&#45;&gt;2</title>
<path fill="none" stroke="black" d="M114.239,-251.526C118.953,-271.143 125.18,-303.744 143.834,-324 166.599,-348.721 202.555,-362.188 229.481,-369.351"/>
<polygon fill="black" stroke="black" points="228.763,-372.779 239.312,-371.799 230.454,-365.987 228.763,-372.779"/>
</g>
<!-- 5&#45;&gt;3 -->
<g id="edge15" class="edge"><title>5&#45;&gt;3</title>
<path fill="none" stroke="black" d="M124.457,-248.331C134.13,-257.498 145.84,-269.934 155.182,-280.821"/>
<polygon fill="black" stroke="black" points="152.704,-283.316 161.791,-288.765 158.086,-278.839 152.704,-283.316"/>
</g>
<!-- 5&#45;&gt;4 -->
<g id="edge16" class="edge"><title>5&#45;&gt;4</title>
<path fill="none" stroke="black" d="M109.004,-215.871C116.197,-190.953 134.263,-144.557 147.747,-115.872"/>
<polygon fill="black" stroke="black" points="150.895,-117.404 152.123,-106.88 144.6,-114.341 150.895,-117.404"/>
</g>
<!-- 5&#45;&gt;6 -->
<g id="edge13" class="edge"><title>5&#45;&gt;6</title>
<path fill="none" stroke="black" d="M81.1698,-228.142C56.5232,-221.43 21.4223,-206.971 5.83361,-180 -2.17296,-166.147 -1.4877,-158.227 5.83361,-144 36.8059,-83.8149 111.672,-46.1848 155.929,-29.3469"/>
<polygon fill="black" stroke="black" points="157.221,-32.6013 165.413,-25.8826 154.819,-26.0262 157.221,-32.6013"/>
</g>
<!-- 5&#45;&gt;7 -->
<g id="edge17" class="edge"><title>5&#45;&gt;7</title>
<path fill="none" stroke="black" d="M90.5782,-219.503C82.0994,-210.475 72.0431,-198.33 64.0456,-187.613"/>
<polygon fill="black" stroke="black" points="66.8252,-185.484 58.1427,-179.412 61.1437,-189.573 66.8252,-185.484"/>
</g>
<!-- 6&#45;&gt;2 -->
<g id="edge18" class="edge"><title>6&#45;&gt;2</title>
<path fill="none" stroke="black" d="M212.704,-27.7657C252.652,-46.6999 329.834,-95.0917 329.834,-161 329.834,-235 329.834,-235 329.834,-235 329.834,-279.956 305.243,-327.685 286.033,-354.772"/>
<polygon fill="black" stroke="black" points="283.208,-352.706 280.024,-362.811 288.814,-356.897 283.208,-352.706"/>
</g>
<!-- 6&#45;&gt;3 -->
<g id="edge19" class="edge"><title>6&#45;&gt;3</title>
<path fill="none" stroke="black" d="M193.487,-36.0925C195.509,-46.4315 197.814,-59.9098 198.834,-72 205.561,-151.796 207.383,-173.65 190.834,-252 188.905,-261.129 185.659,-270.771 182.337,-279.292"/>
<polygon fill="black" stroke="black" points="179.042,-278.102 178.477,-288.682 185.516,-280.764 179.042,-278.102"/>
</g>
<!-- 6&#45;&gt;5 -->
<g id="edge20" class="edge"><title>6&#45;&gt;5</title>
<path fill="none" stroke="black" d="M168.29,-29.0123C130.675,-45.6831 55.0128,-83.4129 23.8336,-144 16.5123,-158.227 15.827,-166.147 23.8336,-180 34.9876,-199.298 56.131,-212.19 74.3897,-220.423"/>
<polygon fill="black" stroke="black" points="73.0326,-223.649 83.6067,-224.312 75.7542,-217.2 73.0326,-223.649"/>
</g>
<!-- 7&#45;&gt;4 -->
<g id="edge22" class="edge"><title>7&#45;&gt;4</title>
<path fill="none" stroke="black" d="M66.9703,-147.503C84.1598,-135.737 111.375,-118.676 132.518,-106.384"/>
<polygon fill="black" stroke="black" points="134.511,-109.276 141.453,-101.272 131.035,-103.2 134.511,-109.276"/>
</g>
<!-- 7&#45;&gt;5 -->
<g id="edge21" class="edge"><title>7&#45;&gt;5</title>
<path fill="none" stroke="black" d="M67.2327,-176.65C75.6503,-185.629 85.5961,-197.642 93.5342,-208.27"/>
<polygon fill="black" stroke="black" points="90.7157,-210.345 99.4023,-216.411 96.3943,-206.252 90.7157,-210.345"/>
</g>
<!-- 8 -->
<g id="node7" class="node"><title>8</title>
<ellipse fill="none" stroke="black" cx="382.834" cy="-594" rx="27" ry="18"/>
<text text-anchor="middle" x="382.834" y="-590.3" font-family="Times,serif" font-size="14.00">8</text>
</g>
<!-- 8&#45;&gt;7 -->
<g id="edge23" class="edge"><title>8&#45;&gt;7</title>
<path fill="none" stroke="black" d="M355.746,-593.61C276.694,-593.85 51.8336,-582.939 51.8336,-451 51.8336,-451 51.8336,-451 51.8336,-305 51.8336,-264.995 51.4318,-218.652 51.1376,-190.079"/>
<polygon fill="black" stroke="black" points="54.6372,-190.011 51.0312,-180.049 47.6376,-190.086 54.6372,-190.011"/>
</g>
<!-- 9 -->
<g id="node8" class="node"><title>9</title>
<ellipse fill="none" stroke="black" cx="382.834" cy="-522" rx="27" ry="18"/>
<text text-anchor="middle" x="382.834" y="-518.3" font-family="Times,serif" font-size="14.00">9</text>
</g>
<!-- 8&#45;&gt;9 -->
<g id="edge24" class="edge"><title>8&#45;&gt;9</title>
<path fill="none" stroke="black" d="M376.994,-576.411C376.131,-568.507 375.882,-558.852 376.245,-549.935"/>
<polygon fill="black" stroke="black" points="379.737,-550.179 376.954,-539.956 372.754,-549.683 379.737,-550.179"/>
</g>
<!-- 11 -->
<g id="node9" class="node"><title>11</title>
<ellipse fill="none" stroke="black" cx="346.834" cy="-378" rx="27" ry="18"/>
<text text-anchor="middle" x="346.834" y="-374.3" font-family="Times,serif" font-size="14.00">11</text>
</g>
<!-- 8&#45;&gt;11 -->
<g id="edge25" class="edge"><title>8&#45;&gt;11</title>
<path fill="none" stroke="black" d="M363.919,-580.651C353.645,-570.578 342.607,-555.523 337.834,-540 323.809,-494.394 328.488,-438.023 335.831,-405.521"/>
<polygon fill="black" stroke="black" points="339.316,-406.019 338.4,-395.464 332.534,-404.286 339.316,-406.019"/>
</g>
<!-- 13 -->
<g id="node10" class="node"><title>13</title>
<ellipse fill="none" stroke="black" cx="439.834" cy="-234" rx="27" ry="18"/>
<text text-anchor="middle" x="439.834" y="-230.3" font-family="Times,serif" font-size="14.00">13</text>
</g>
<!-- 8&#45;&gt;13 -->
<g id="edge26" class="edge"><title>8&#45;&gt;13</title>
<path fill="none" stroke="black" d="M397.668,-578.587C424.689,-555.454 477.834,-506.92 477.834,-451 477.834,-451 477.834,-451 477.834,-377 477.834,-334.907 458.991,-289.189 447.451,-261.312"/>
<polygon fill="black" stroke="black" points="450.617,-259.808 443.579,-251.889 444.142,-262.468 450.617,-259.808"/>
</g>
<!-- 9&#45;&gt;2 -->
<g id="edge28" class="edge"><title>9&#45;&gt;2</title>
<path fill="none" stroke="black" d="M370.206,-505.804C349.534,-480.928 308.348,-431.364 284.04,-402.113"/>
<polygon fill="black" stroke="black" points="286.454,-399.541 277.371,-394.087 281.07,-404.015 286.454,-399.541"/>
</g>
<!-- 9&#45;&gt;8 -->
<g id="edge29" class="edge"><title>9&#45;&gt;8</title>
<path fill="none" stroke="black" d="M388.713,-539.956C389.548,-547.827 389.782,-557.374 389.417,-566.187"/>
<polygon fill="black" stroke="black" points="385.908,-566.184 388.674,-576.411 392.889,-566.691 385.908,-566.184"/>
</g>
<!-- 10 -->
<g id="node11" class="node"><title>10</title>
<ellipse fill="none" stroke="black" cx="401.834" cy="-450" rx="27" ry="18"/>
<text text-anchor="middle" x="401.834" y="-446.3" font-family="Times,serif" font-size="14.00">10</text>
</g>
<!-- 9&#45;&gt;10 -->
<g id="edge27" class="edge"><title>9&#45;&gt;10</title>
<path fill="none" stroke="black" d="M381.615,-503.697C382.981,-495.578 385.445,-485.735 388.304,-476.764"/>
<polygon fill="black" stroke="black" points="391.67,-477.739 391.661,-467.145 385.061,-475.433 391.67,-477.739"/>
</g>
<!-- 11&#45;&gt;8 -->
<g id="edge34" class="edge"><title>11&#45;&gt;8</title>
<path fill="none" stroke="black" d="M349,-396.412C347.628,-426.488 340.388,-489.773 355.834,-540 358.859,-549.838 364.4,-559.488 369.819,-567.801"/>
<polygon fill="black" stroke="black" points="367.025,-569.918 375.526,-576.243 372.825,-565.998 367.025,-569.918"/>
</g>
<!-- 11&#45;&gt;10 -->
<g id="edge35" class="edge"><title>11&#45;&gt;10</title>
<path fill="none" stroke="black" d="M363.038,-392.65C371.245,-401.54 380.908,-413.405 388.656,-423.954"/>
<polygon fill="black" stroke="black" points="386.006,-426.269 394.639,-432.411 391.721,-422.226 386.006,-426.269"/>
</g>
<!-- 12 -->
<g id="node12" class="node"><title>12</title>
<ellipse fill="none" stroke="black" cx="384.834" cy="-306" rx="27" ry="18"/>
<text text-anchor="middle" x="384.834" y="-302.3" font-family="Times,serif" font-size="14.00">12</text>
</g>
<!-- 11&#45;&gt;12 -->
<g id="edge33" class="edge"><title>11&#45;&gt;12</title>
<path fill="none" stroke="black" d="M350.154,-360.055C354.011,-351.224 359.77,-340.281 365.582,-330.632"/>
<polygon fill="black" stroke="black" points="368.724,-332.211 371.11,-321.888 362.808,-328.47 368.724,-332.211"/>
</g>
<!-- 13&#45;&gt;8 -->
<g id="edge39" class="edge"><title>13&#45;&gt;8</title>
<path fill="none" stroke="black" d="M453.728,-249.803C470.755,-275.054 495.834,-328.44 495.834,-377 495.834,-451 495.834,-451 495.834,-451 495.834,-505.278 445.764,-552.598 412.101,-576.484"/>
<polygon fill="black" stroke="black" points="409.823,-573.8 403.517,-582.314 413.756,-579.591 409.823,-573.8"/>
</g>
<!-- 13&#45;&gt;10 -->
<g id="edge40" class="edge"><title>13&#45;&gt;10</title>
<path fill="none" stroke="black" d="M436.826,-251.935C430.258,-288.925 414.584,-377.197 406.634,-421.969"/>
<polygon fill="black" stroke="black" points="403.181,-421.391 404.879,-431.849 410.074,-422.615 403.181,-421.391"/>
</g>
<!-- 13&#45;&gt;12 -->
<g id="edge41" class="edge"><title>13&#45;&gt;12</title>
<path fill="none" stroke="black" d="M432.759,-251.412C426.195,-261.135 416.579,-273.555 407.588,-283.989"/>
<polygon fill="black" stroke="black" points="404.933,-281.708 400.896,-291.503 410.161,-286.363 404.933,-281.708"/>
</g>
<!-- 10&#45;&gt;2 -->
<g id="edge31" class="edge"><title>10&#45;&gt;2</title>
<path fill="none" stroke="black" d="M381.026,-438.369C358.093,-426.651 321.001,-407.698 294.906,-394.366"/>
<polygon fill="black" stroke="black" points="296.334,-391.165 285.837,-389.732 293.149,-397.398 296.334,-391.165"/>
</g>
<!-- 10&#45;&gt;9 -->
<g id="edge32" class="edge"><title>10&#45;&gt;9</title>
<path fill="none" stroke="black" d="M403.055,-468.292C401.678,-476.477 399.184,-486.415 396.296,-495.446"/>
<polygon fill="black" stroke="black" points="392.912,-494.521 392.906,-505.116 399.517,-496.837 392.912,-494.521"/>
</g>
<!-- 10&#45;&gt;11 -->
<g id="edge30" class="edge"><title>10&#45;&gt;11</title>
<path fill="none" stroke="black" d="M385.771,-435.503C377.421,-426.475 367.538,-414.33 359.694,-403.613"/>
<polygon fill="black" stroke="black" points="362.533,-401.566 353.908,-395.412 356.813,-405.601 362.533,-401.566"/>
</g>
<!-- 12&#45;&gt;11 -->
<g id="edge38" class="edge"><title>12&#45;&gt;11</title>
<path fill="none" stroke="black" d="M381.472,-324.04C377.607,-332.873 371.852,-343.8 366.048,-353.43"/>
<polygon fill="black" stroke="black" points="362.917,-351.833 360.528,-362.155 368.833,-355.575 362.917,-351.833"/>
</g>
<!-- 12&#45;&gt;13 -->
<g id="edge36" class="edge"><title>12&#45;&gt;13</title>
<path fill="none" stroke="black" d="M392.028,-288.411C398.503,-278.841 407.895,-266.703 416.73,-256.417"/>
<polygon fill="black" stroke="black" points="419.605,-258.451 423.63,-248.65 414.372,-253.802 419.605,-258.451"/>
</g>
<!-- 12&#45;&gt;10 -->
<g id="edge37" class="edge"><title>12&#45;&gt;10</title>
<path fill="none" stroke="black" d="M386.891,-324.189C389.793,-348.424 395.116,-392.888 398.563,-421.679"/>
<polygon fill="black" stroke="black" points="395.119,-422.358 399.783,-431.871 402.069,-421.526 395.119,-422.358"/>
</g>
</g>
</svg>
