<?xml version="1.0" encoding="UTF-8" standalone="no"?>
<!DOCTYPE svg PUBLIC "-//W3C//DTD SVG 1.1//EN"
 "http://www.w3.org/Graphics/SVG/1.1/DTD/svg11.dtd">
<!-- Generated by graphviz version 2.36.0 (20140111.2315)
 -->
<!-- Title: %3 Pages: 1 -->
<svg width="2514pt" height="1052pt"
 viewBox="0.00 0.00 2514.00 1052.00" xmlns="http://www.w3.org/2000/svg" xmlns:xlink="http://www.w3.org/1999/xlink">
<g id="graph0" class="graph" transform="scale(1 1) rotate(0) translate(4 1048)">
<title>%3</title>
<polygon fill="white" stroke="none" points="-4,4 -4,-1048 2510,-1048 2510,4 -4,4"/>
<!-- Alice -->
<g id="node1" class="node"><title>Alice</title>
<ellipse fill="none" stroke="black" cx="2299" cy="-1026" rx="29.3479" ry="18"/>
<text text-anchor="middle" x="2299" y="-1022.3" font-family="Times,serif" font-size="14.00">Alice</text>
</g>
<!-- Gabriel -->
<g id="node2" class="node"><title>Gabriel</title>
<ellipse fill="none" stroke="black" cx="2187" cy="-954" rx="37.0701" ry="18"/>
<text text-anchor="middle" x="2187" y="-950.3" font-family="Times,serif" font-size="14.00">Gabriel</text>
</g>
<!-- Alice&#45;&gt;Gabriel -->
<g id="edge1" class="edge"><title>Alice&#45;&gt;Gabriel</title>
<path fill="none" stroke="black" d="M2276.71,-1014.22C2258.42,-1003.91 2232.74,-988.098 2213.45,-975.408"/>
<polygon fill="black" stroke="black" points="2215.35,-972.466 2205.09,-969.827 2211.47,-978.289 2215.35,-972.466"/>
</g>
<!-- Harry -->
<g id="node3" class="node"><title>Harry</title>
<ellipse fill="none" stroke="black" cx="2259" cy="-666" rx="31.2965" ry="18"/>
<text text-anchor="middle" x="2259" y="-662.3" font-family="Times,serif" font-size="14.00">Harry</text>
</g>
<!-- Alice&#45;&gt;Harry -->
<g id="edge2" class="edge"><title>Alice&#45;&gt;Harry</title>
<path fill="none" stroke="black" d="M2288.13,-1009.02C2276.62,-982.942 2262,-929.486 2262,-883 2262,-883 2262,-883 2262,-809 2262,-768.853 2257.18,-722.548 2255.94,-694.022"/>
<polygon fill="black" stroke="black" points="2259.44,-693.908 2255.66,-684.01 2252.44,-694.105 2259.44,-693.908"/>
</g>
<!-- Ian -->
<g id="node4" class="node"><title>Ian</title>
<ellipse fill="none" stroke="black" cx="2113" cy="-738" rx="27" ry="18"/>
<text text-anchor="middle" x="2113" y="-734.3" font-family="Times,serif" font-size="14.00">Ian</text>
</g>
<!-- Alice&#45;&gt;Ian -->
<g id="edge3" class="edge"><title>Alice&#45;&gt;Ian</title>
<path fill="none" stroke="black" d="M2269.59,-1024.51C2231.08,-1022.39 2165.25,-1012.83 2132,-972 2082.97,-911.787 2091.43,-812.089 2102.66,-765.07"/>
<polygon fill="black" stroke="black" points="2106.06,-765.909 2105.23,-755.346 2099.29,-764.118 2106.06,-765.909"/>
</g>
<!-- Julia -->
<g id="node5" class="node"><title>Julia</title>
<ellipse fill="none" stroke="black" cx="2257" cy="-378" rx="26.949" ry="18"/>
<text text-anchor="middle" x="2257" y="-374.3" font-family="Times,serif" font-size="14.00">Julia</text>
</g>
<!-- Alice&#45;&gt;Julia -->
<g id="edge4" class="edge"><title>Alice&#45;&gt;Julia</title>
<path fill="none" stroke="black" d="M2298.9,-1007.73C2303.85,-981.21 2318,-928.732 2318,-883 2318,-883 2318,-883 2318,-737 2318,-599.911 2310.87,-563.464 2272,-432 2269.39,-423.185 2265.61,-413.94 2262.21,-405.685"/>
<polygon fill="black" stroke="black" points="2265.37,-404.157 2258.38,-396.201 2258.88,-406.784 2265.37,-404.157"/>
</g>
<!-- Leo -->
<g id="node6" class="node"><title>Leo</title>
<ellipse fill="none" stroke="black" cx="2377" cy="-522" rx="27" ry="18"/>
<text text-anchor="middle" x="2377" y="-518.3" font-family="Times,serif" font-size="14.00">Leo</text>
</g>
<!-- Alice&#45;&gt;Leo -->
<g id="edge5" class="edge"><title>Alice&#45;&gt;Leo</title>
<path fill="none" stroke="black" d="M2310.11,-1008.88C2319.56,-999.093 2332.31,-985.843 2341,-972 2363.43,-936.271 2374,-925.187 2374,-883 2374,-883 2374,-883 2374,-665 2374,-624.96 2371.59,-578.627 2372.12,-550.065"/>
<polygon fill="black" stroke="black" points="2375.61,-550.158 2372.47,-540.039 2368.62,-549.909 2375.61,-550.158"/>
</g>
<!-- Maria -->
<g id="node7" class="node"><title>Maria</title>
<ellipse fill="none" stroke="black" cx="2441" cy="-450" rx="32.2457" ry="18"/>
<text text-anchor="middle" x="2441" y="-446.3" font-family="Times,serif" font-size="14.00">Maria</text>
</g>
<!-- Alice&#45;&gt;Maria -->
<g id="edge6" class="edge"><title>Alice&#45;&gt;Maria</title>
<path fill="none" stroke="black" d="M2325.55,-1017.81C2377.78,-1003.07 2488,-963.795 2488,-883 2488,-883 2488,-883 2488,-593 2488,-550.093 2465.6,-504.659 2451.41,-477.057"/>
<polygon fill="black" stroke="black" points="2454.47,-475.36 2446.78,-468.072 2448.25,-478.565 2454.47,-475.36"/>
</g>
<!-- Gabriel&#45;&gt;Alice -->
<g id="edge30" class="edge"><title>Gabriel&#45;&gt;Alice</title>
<path fill="none" stroke="black" d="M2212.32,-967.502C2230.62,-977.958 2255.07,-993.063 2273.42,-1005.17"/>
<polygon fill="black" stroke="black" points="2271.63,-1008.18 2281.88,-1010.83 2275.52,-1002.36 2271.63,-1008.18"/>
</g>
<!-- Dartha -->
<g id="node10" class="node"><title>Dartha</title>
<ellipse fill="none" stroke="black" cx="2064" cy="-162" rx="34.1708" ry="18"/>
<text text-anchor="middle" x="2064" y="-158.3" font-family="Times,serif" font-size="14.00">Dartha</text>
</g>
<!-- Gabriel&#45;&gt;Dartha -->
<g id="edge29" class="edge"><title>Gabriel&#45;&gt;Dartha</title>
<path fill="none" stroke="black" d="M2183.37,-935.861C2179.28,-884.31 2182,-726.151 2182,-595 2182,-595 2182,-595 2182,-521 2182,-389.772 2105.27,-246.25 2075.32,-188.833"/>
<polygon fill="black" stroke="black" points="2078.32,-187.021 2070.61,-179.751 2072.11,-190.241 2078.32,-187.021"/>
</g>
<!-- Emma -->
<g id="node11" class="node"><title>Emma</title>
<ellipse fill="none" stroke="black" cx="1957" cy="-882" rx="34.1708" ry="18"/>
<text text-anchor="middle" x="1957" y="-878.3" font-family="Times,serif" font-size="14.00">Emma</text>
</g>
<!-- Gabriel&#45;&gt;Emma -->
<g id="edge28" class="edge"><title>Gabriel&#45;&gt;Emma</title>
<path fill="none" stroke="black" d="M2155.16,-944.695C2112.93,-932.642 2038.88,-910.188 1994.17,-895.95"/>
<polygon fill="black" stroke="black" points="1995.14,-892.587 1984.55,-892.868 1993.01,-899.253 1995.14,-892.587"/>
</g>
<!-- Harry&#45;&gt;Alice -->
<g id="edge35" class="edge"><title>Harry&#45;&gt;Alice</title>
<path fill="none" stroke="black" d="M2266.97,-683.576C2273.8,-710.036 2280,-763.477 2280,-809 2280,-883 2280,-883 2280,-883 2280,-923.551 2291.13,-969.407 2297.1,-997.764"/>
<polygon fill="black" stroke="black" points="2293.7,-998.613 2299.1,-1007.73 2300.56,-997.234 2293.7,-998.613"/>
</g>
<!-- Harry&#45;&gt;Gabriel -->
<g id="edge31" class="edge"><title>Harry&#45;&gt;Gabriel</title>
<path fill="none" stroke="black" d="M2254.73,-683.945C2242.71,-731.722 2208.45,-867.815 2193.79,-926.039"/>
<polygon fill="black" stroke="black" points="2190.34,-925.414 2191.29,-935.966 2197.12,-927.123 2190.34,-925.414"/>
</g>
<!-- Harry&#45;&gt;Ian -->
<g id="edge32" class="edge"><title>Harry&#45;&gt;Ian</title>
<path fill="none" stroke="black" d="M2237.99,-679.63C2213.64,-692.206 2173.59,-711.413 2145.31,-724.087"/>
<polygon fill="black" stroke="black" points="2143.57,-721.029 2135.84,-728.276 2146.4,-727.431 2143.57,-721.029"/>
</g>
<!-- Harry&#45;&gt;Maria -->
<g id="edge34" class="edge"><title>Harry&#45;&gt;Maria</title>
<path fill="none" stroke="black" d="M2277.61,-651.377C2308.55,-631.325 2369.55,-590.696 2404,-540 2416.91,-521.009 2424.1,-495.762 2429.49,-477.01"/>
<polygon fill="black" stroke="black" points="2432.87,-477.921 2432.31,-467.341 2426.15,-475.956 2432.87,-477.921"/>
</g>
<!-- Kat -->
<g id="node14" class="node"><title>Kat</title>
<ellipse fill="none" stroke="black" cx="2259" cy="-594" rx="27" ry="18"/>
<text text-anchor="middle" x="2259" y="-590.3" font-family="Times,serif" font-size="14.00">Kat</text>
</g>
<!-- Harry&#45;&gt;Kat -->
<g id="edge33" class="edge"><title>Harry&#45;&gt;Kat</title>
<path fill="none" stroke="black" d="M2253.12,-648.055C2252.29,-640.231 2252.05,-630.748 2252.41,-621.977"/>
<polygon fill="black" stroke="black" points="2255.92,-622.013 2253.14,-611.789 2248.93,-621.514 2255.92,-622.013"/>
</g>
<!-- Ian&#45;&gt;Alice -->
<g id="edge38" class="edge"><title>Ian&#45;&gt;Alice</title>
<path fill="none" stroke="black" d="M2113.92,-756.267C2110.83,-798.397 2097.65,-907.707 2150,-972 2176.9,-1005.04 2225.14,-1017.61 2259.55,-1022.32"/>
<polygon fill="black" stroke="black" points="2259.4,-1025.83 2269.74,-1023.54 2260.23,-1018.88 2259.4,-1025.83"/>
</g>
<!-- Ian&#45;&gt;Harry -->
<g id="edge39" class="edge"><title>Ian&#45;&gt;Harry</title>
<path fill="none" stroke="black" d="M2132.25,-725.284C2155.81,-713.045 2195.73,-693.855 2224.57,-680.868"/>
<polygon fill="black" stroke="black" points="2226.17,-683.986 2233.88,-676.721 2223.32,-677.591 2226.17,-683.986"/>
</g>
<!-- Ian&#45;&gt;Julia -->
<g id="edge36" class="edge"><title>Ian&#45;&gt;Julia</title>
<path fill="none" stroke="black" d="M2111.69,-719.646C2114.88,-693.02 2126,-640.403 2126,-595 2126,-595 2126,-595 2126,-521 2126,-462.175 2186.98,-415.55 2225.9,-393.278"/>
<polygon fill="black" stroke="black" points="2227.71,-396.278 2234.79,-388.397 2224.34,-390.141 2227.71,-396.278"/>
</g>
<!-- Bob -->
<g id="node8" class="node"><title>Bob</title>
<ellipse fill="none" stroke="black" cx="2075" cy="-306" rx="27" ry="18"/>
<text text-anchor="middle" x="2075" y="-302.3" font-family="Times,serif" font-size="14.00">Bob</text>
</g>
<!-- Ian&#45;&gt;Bob -->
<g id="edge37" class="edge"><title>Ian&#45;&gt;Bob</title>
<path fill="none" stroke="black" d="M2108.06,-720.12C2100.78,-693.687 2088,-640.808 2088,-595 2088,-595 2088,-595 2088,-449 2088,-408.829 2082.78,-362.53 2078.95,-334.013"/>
<polygon fill="black" stroke="black" points="2082.4,-333.43 2077.57,-324.003 2075.47,-334.388 2082.4,-333.43"/>
</g>
<!-- sockpuppet0 -->
<g id="node13" class="node"><title>sockpuppet0</title>
<ellipse fill="none" stroke="black" cx="1461" cy="-810" rx="55.3682" ry="18"/>
<text text-anchor="middle" x="1461" y="-806.3" font-family="Times,serif" font-size="14.00">sockpuppet0</text>
</g>
<!-- Ian&#45;&gt;sockpuppet0 -->
<g id="edge40" class="edge"><title>Ian&#45;&gt;sockpuppet0</title>
<path fill="none" stroke="black" d="M2086.45,-742.175C1990.55,-752.965 1661.37,-788.343 1522.98,-802.78"/>
<polygon fill="black" stroke="black" points="1522.54,-799.307 1512.95,-803.824 1523.26,-806.27 1522.54,-799.307"/>
</g>
<!-- Julia&#45;&gt;Alice -->
<g id="edge43" class="edge"><title>Julia&#45;&gt;Alice</title>
<path fill="none" stroke="black" d="M2272.08,-392.987C2278.99,-403.443 2285.93,-418.245 2290,-432 2328.87,-563.464 2336,-599.911 2336,-737 2336,-883 2336,-883 2336,-883 2336,-924.401 2324.4,-971.332 2313.73,-999.524"/>
<polygon fill="black" stroke="black" points="2310.4,-998.436 2309.87,-1009.02 2316.88,-1001.08 2310.4,-998.436"/>
</g>
<!-- Julia&#45;&gt;Ian -->
<g id="edge44" class="edge"><title>Julia&#45;&gt;Ian</title>
<path fill="none" stroke="black" d="M2239.4,-392.01C2207.37,-413.747 2144,-461.034 2144,-521 2144,-595 2144,-595 2144,-595 2144,-636.104 2134.89,-683.12 2125.99,-711.411"/>
<polygon fill="black" stroke="black" points="2122.66,-710.346 2122.74,-720.941 2129.28,-712.606 2122.66,-710.346"/>
</g>
<!-- Julia&#45;&gt;Bob -->
<g id="edge42" class="edge"><title>Julia&#45;&gt;Bob</title>
<path fill="none" stroke="black" d="M2233.95,-368.134C2201.95,-355.827 2143.9,-333.502 2107.51,-319.505"/>
<polygon fill="black" stroke="black" points="2108.45,-316.117 2097.86,-315.794 2105.94,-322.65 2108.45,-316.117"/>
</g>
<!-- Julia&#45;&gt;Kat -->
<g id="edge41" class="edge"><title>Julia&#45;&gt;Kat</title>
<path fill="none" stroke="black" d="M2261.02,-395.935C2264.92,-432.847 2266.02,-520.825 2263.43,-565.685"/>
<polygon fill="black" stroke="black" points="2259.93,-565.628 2262.72,-575.849 2266.91,-566.119 2259.93,-565.628"/>
</g>
<!-- Leo&#45;&gt;Alice -->
<g id="edge49" class="edge"><title>Leo&#45;&gt;Alice</title>
<path fill="none" stroke="black" d="M2383.82,-539.605C2388.9,-566.104 2392,-619.598 2392,-665 2392,-883 2392,-883 2392,-883 2392,-925.187 2381.43,-936.271 2359,-972 2350.86,-984.967 2339.16,-997.413 2328.09,-1006.98"/>
<polygon fill="black" stroke="black" points="2325.75,-1004.38 2320.2,-1013.41 2330.17,-1009.8 2325.75,-1004.38"/>
</g>
<!-- Leo&#45;&gt;Julia -->
<g id="edge50" class="edge"><title>Leo&#45;&gt;Julia</title>
<path fill="none" stroke="black" d="M2372.26,-504.049C2366.26,-484.909 2354.43,-453.623 2336,-432 2322.66,-416.343 2303.6,-403.375 2287.54,-394.186"/>
<polygon fill="black" stroke="black" points="2288.95,-390.968 2278.5,-389.221 2285.58,-397.103 2288.95,-390.968"/>
</g>
<!-- Leo&#45;&gt;Maria -->
<g id="edge48" class="edge"><title>Leo&#45;&gt;Maria</title>
<path fill="none" stroke="black" d="M2386.04,-504.765C2393.76,-495.145 2404.85,-482.84 2415.13,-472.43"/>
<polygon fill="black" stroke="black" points="2417.75,-474.763 2422.41,-465.25 2412.83,-469.779 2417.75,-474.763"/>
</g>
<!-- Leo&#45;&gt;Kat -->
<g id="edge51" class="edge"><title>Leo&#45;&gt;Kat</title>
<path fill="none" stroke="black" d="M2360.21,-536.174C2341.7,-548.167 2311.96,-565.852 2289.4,-578.301"/>
<polygon fill="black" stroke="black" points="2287.64,-575.269 2280.53,-583.119 2290.99,-581.42 2287.64,-575.269"/>
</g>
<!-- Maria&#45;&gt;Alice -->
<g id="edge52" class="edge"><title>Maria&#45;&gt;Alice</title>
<path fill="none" stroke="black" d="M2456.82,-465.989C2476.44,-491.083 2506,-543.709 2506,-593 2506,-883 2506,-883 2506,-883 2506,-963.376 2396.92,-1002.66 2337.01,-1017.58"/>
<polygon fill="black" stroke="black" points="2336.05,-1014.21 2327.13,-1019.93 2337.67,-1021.02 2336.05,-1014.21"/>
</g>
<!-- Maria&#45;&gt;Harry -->
<g id="edge53" class="edge"><title>Maria&#45;&gt;Harry</title>
<path fill="none" stroke="black" d="M2445.2,-468.02C2444.4,-486.941 2437.11,-517.761 2422,-540 2388.37,-589.492 2329.43,-629.39 2292.23,-649.914"/>
<polygon fill="black" stroke="black" points="2290.44,-646.905 2283.27,-654.709 2293.74,-653.077 2290.44,-646.905"/>
</g>
<!-- Maria&#45;&gt;Julia -->
<g id="edge54" class="edge"><title>Maria&#45;&gt;Julia</title>
<path fill="none" stroke="black" d="M2415.03,-439.119C2382.07,-426.58 2325.21,-404.95 2289.43,-391.339"/>
<polygon fill="black" stroke="black" points="2290.53,-388.012 2279.94,-387.727 2288.04,-394.554 2290.53,-388.012"/>
</g>
<!-- Maria&#45;&gt;Leo -->
<g id="edge55" class="edge"><title>Maria&#45;&gt;Leo</title>
<path fill="none" stroke="black" d="M2431.9,-467.311C2423.93,-477.233 2412.4,-489.989 2401.87,-500.578"/>
<polygon fill="black" stroke="black" points="2399.15,-498.34 2394.45,-507.834 2404.05,-503.346 2399.15,-498.34"/>
</g>
<!-- Charlie -->
<g id="node9" class="node"><title>Charlie</title>
<ellipse fill="none" stroke="black" cx="2002" cy="-234" rx="36.096" ry="18"/>
<text text-anchor="middle" x="2002" y="-230.3" font-family="Times,serif" font-size="14.00">Charlie</text>
</g>
<!-- Bob&#45;&gt;Charlie -->
<g id="edge7" class="edge"><title>Bob&#45;&gt;Charlie</title>
<path fill="none" stroke="black" d="M2056.63,-292.485C2045.5,-283.156 2031.54,-270.129 2020.42,-258.835"/>
<polygon fill="black" stroke="black" points="2022.7,-256.15 2013.25,-251.359 2017.65,-260.997 2022.7,-256.15"/>
</g>
<!-- Bob&#45;&gt;Dartha -->
<g id="edge8" class="edge"><title>Bob&#45;&gt;Dartha</title>
<path fill="none" stroke="black" d="M2069.14,-288.153C2064.69,-264.05 2060.93,-219.447 2060.66,-190.514"/>
<polygon fill="black" stroke="black" points="2064.17,-190.293 2060.74,-180.268 2057.17,-190.242 2064.17,-190.293"/>
</g>
<!-- Bob&#45;&gt;Emma -->
<g id="edge9" class="edge"><title>Bob&#45;&gt;Emma</title>
<path fill="none" stroke="black" d="M2073.89,-324.171C2067.18,-350.556 2050,-402.864 2050,-449 2050,-739 2050,-739 2050,-739 2050,-781.187 2039.43,-792.271 2017,-828 2009.21,-840.41 1998.16,-852.344 1987.52,-861.734"/>
<polygon fill="black" stroke="black" points="1984.97,-859.298 1979.53,-868.385 1989.45,-864.678 1984.97,-859.298"/>
</g>
<!-- Fred -->
<g id="node12" class="node"><title>Fred</title>
<ellipse fill="none" stroke="black" cx="2033" cy="-90" rx="27" ry="18"/>
<text text-anchor="middle" x="2033" y="-86.3" font-family="Times,serif" font-size="14.00">Fred</text>
</g>
<!-- Bob&#45;&gt;Fred -->
<g id="edge10" class="edge"><title>Bob&#45;&gt;Fred</title>
<path fill="none" stroke="black" d="M2079.9,-288.018C2093.13,-257.519 2122.75,-192.161 2098,-144 2090,-128.434 2075.08,-116.418 2061.44,-107.793"/>
<polygon fill="black" stroke="black" points="2063.13,-104.727 2052.75,-102.611 2059.55,-110.739 2063.13,-104.727"/>
</g>
<!-- Charlie&#45;&gt;Bob -->
<g id="edge13" class="edge"><title>Charlie&#45;&gt;Bob</title>
<path fill="none" stroke="black" d="M2022.31,-249.159C2033.26,-258.474 2046.49,-270.887 2057.05,-281.644"/>
<polygon fill="black" stroke="black" points="2054.75,-284.308 2064.2,-289.116 2059.81,-279.47 2054.75,-284.308"/>
</g>
<!-- Charlie&#45;&gt;Dartha -->
<g id="edge11" class="edge"><title>Charlie&#45;&gt;Dartha</title>
<path fill="none" stroke="black" d="M2010.85,-216.411C2018.16,-207.004 2028.53,-195.115 2038.25,-184.944"/>
<polygon fill="black" stroke="black" points="2040.98,-187.157 2045.49,-177.57 2035.99,-182.251 2040.98,-187.157"/>
</g>
<!-- Charlie&#45;&gt;Emma -->
<g id="edge12" class="edge"><title>Charlie&#45;&gt;Emma</title>
<path fill="none" stroke="black" d="M2004.35,-251.971C2002.69,-278.525 1994,-331.563 1994,-377 1994,-739 1994,-739 1994,-739 1994,-780.178 1982.53,-826.825 1971.91,-855.065"/>
<polygon fill="black" stroke="black" points="1968.56,-854.01 1968.06,-864.593 1975.05,-856.633 1968.56,-854.01"/>
</g>
<!-- Dartha&#45;&gt;Gabriel -->
<g id="edge16" class="edge"><title>Dartha&#45;&gt;Gabriel</title>
<path fill="none" stroke="black" d="M2077.85,-178.701C2112.9,-227.427 2200,-381.191 2200,-521 2200,-595 2200,-595 2200,-595 2200,-718.466 2197.59,-865.869 2192.31,-925.728"/>
<polygon fill="black" stroke="black" points="2188.81,-925.56 2191.29,-935.861 2195.77,-926.262 2188.81,-925.56"/>
</g>
<!-- Dartha&#45;&gt;Bob -->
<g id="edge14" class="edge"><title>Dartha&#45;&gt;Bob</title>
<path fill="none" stroke="black" d="M2069.84,-179.748C2074.31,-203.865 2078.08,-248.651 2078.34,-277.619"/>
<polygon fill="black" stroke="black" points="2074.84,-277.845 2078.26,-287.871 2081.84,-277.899 2074.84,-277.845"/>
</g>
<!-- Dartha&#45;&gt;Charlie -->
<g id="edge15" class="edge"><title>Dartha&#45;&gt;Charlie</title>
<path fill="none" stroke="black" d="M2055.26,-179.448C2047.94,-188.886 2037.5,-200.856 2027.72,-211.085"/>
<polygon fill="black" stroke="black" points="2024.95,-208.91 2020.44,-218.496 2029.94,-213.817 2024.95,-208.91"/>
</g>
<!-- Dartha&#45;&gt;Emma -->
<g id="edge17" class="edge"><title>Dartha&#45;&gt;Emma</title>
<path fill="none" stroke="black" d="M2036.2,-172.547C2014.24,-180.562 1984.6,-194.265 1966,-216 1939.04,-247.505 1938,-263.533 1938,-305 1938,-739 1938,-739 1938,-739 1938,-779.551 1949.13,-825.407 1955.1,-853.764"/>
<polygon fill="black" stroke="black" points="1951.7,-854.613 1957.1,-863.728 1958.56,-853.234 1951.7,-854.613"/>
</g>
<!-- Dartha&#45;&gt;Fred -->
<g id="edge18" class="edge"><title>Dartha&#45;&gt;Fred</title>
<path fill="none" stroke="black" d="M2056.65,-144.411C2052.99,-136.129 2048.47,-125.925 2044.36,-116.662"/>
<polygon fill="black" stroke="black" points="2047.54,-115.196 2040.29,-107.47 2041.14,-118.031 2047.54,-115.196"/>
</g>
<!-- Emma&#45;&gt;Gabriel -->
<g id="edge23" class="edge"><title>Emma&#45;&gt;Gabriel</title>
<path fill="none" stroke="black" d="M1986.97,-890.771C2028.44,-902.569 2102.97,-925.152 2148.49,-939.624"/>
<polygon fill="black" stroke="black" points="2147.43,-942.958 2158.02,-942.671 2149.56,-936.291 2147.43,-942.958"/>
</g>
<!-- Emma&#45;&gt;Bob -->
<g id="edge20" class="edge"><title>Emma&#45;&gt;Bob</title>
<path fill="none" stroke="black" d="M1968.11,-864.882C1977.56,-855.093 1990.31,-841.843 1999,-828 2021.43,-792.271 2032,-781.187 2032,-739 2032,-739 2032,-739 2032,-449 2032,-406.823 2046.36,-359.488 2058.89,-331.515"/>
<polygon fill="black" stroke="black" points="2062.06,-333 2063.22,-322.469 2055.74,-329.98 2062.06,-333"/>
</g>
<!-- Emma&#45;&gt;Charlie -->
<g id="edge21" class="edge"><title>Emma&#45;&gt;Charlie</title>
<path fill="none" stroke="black" d="M1956.9,-863.728C1961.85,-837.21 1976,-784.732 1976,-739 1976,-739 1976,-739 1976,-377 1976,-336.49 1982.91,-289.938 1990.24,-261.5"/>
<polygon fill="black" stroke="black" points="1993.71,-262.113 1993.06,-251.538 1986.97,-260.206 1993.71,-262.113"/>
</g>
<!-- Emma&#45;&gt;Dartha -->
<g id="edge22" class="edge"><title>Emma&#45;&gt;Dartha</title>
<path fill="none" stroke="black" d="M1945.94,-864.593C1934.46,-838.364 1920,-785.235 1920,-739 1920,-739 1920,-739 1920,-305 1920,-263.533 1921.04,-247.505 1948,-216 1967.04,-193.753 1997.64,-179.921 2022.77,-171.99"/>
<polygon fill="black" stroke="black" points="2023.84,-175.323 2032.44,-169.138 2021.86,-168.609 2023.84,-175.323"/>
</g>
<!-- Emma&#45;&gt;Fred -->
<g id="edge19" class="edge"><title>Emma&#45;&gt;Fred</title>
<path fill="none" stroke="black" d="M1936.49,-867.287C1908.82,-843.643 1864,-792.563 1864,-739 1864,-739 1864,-739 1864,-233 1864,-163.682 1949.05,-119.96 1998.62,-101.357"/>
<polygon fill="black" stroke="black" points="2000.09,-104.547 2008.32,-97.87 1997.72,-97.9593 2000.09,-104.547"/>
</g>
<!-- Emma&#45;&gt;sockpuppet0 -->
<g id="edge24" class="edge"><title>Emma&#45;&gt;sockpuppet0</title>
<path fill="none" stroke="black" d="M1924.05,-876.831C1841.46,-865.736 1625.34,-835.296 1520.13,-820.009"/>
<polygon fill="black" stroke="black" points="1520.4,-816.511 1510,-818.533 1519.39,-823.438 1520.4,-816.511"/>
</g>
<!-- Fred&#45;&gt;Bob -->
<g id="edge25" class="edge"><title>Fred&#45;&gt;Bob</title>
<path fill="none" stroke="black" d="M2057.59,-97.9797C2077.77,-106.054 2104.3,-121.23 2116,-144 2139.21,-189.181 2114.59,-249.495 2094.45,-281.967"/>
<polygon fill="black" stroke="black" points="2091.51,-280.074 2088.93,-290.352 2097.35,-283.922 2091.51,-280.074"/>
</g>
<!-- Fred&#45;&gt;Charlie -->
<g id="edge26" class="edge"><title>Fred&#45;&gt;Charlie</title>
<path fill="none" stroke="black" d="M2029.06,-108.174C2026.69,-118.542 2023.63,-132.022 2021,-144 2016.45,-164.701 2011.45,-188.147 2007.72,-205.776"/>
<polygon fill="black" stroke="black" points="2004.22,-205.417 2005.58,-215.925 2011.07,-206.862 2004.22,-205.417"/>
</g>
<!-- Fred&#45;&gt;Emma -->
<g id="edge27" class="edge"><title>Fred&#45;&gt;Emma</title>
<path fill="none" stroke="black" d="M2011.24,-100.664C1969.21,-118.859 1882,-162.806 1882,-233 1882,-739 1882,-739 1882,-739 1882,-785.781 1916.19,-830.669 1938.61,-857.037"/>
<polygon fill="black" stroke="black" points="1936.23,-859.642 1945.41,-864.927 1941.53,-855.069 1936.23,-859.642"/>
</g>
<!-- sockpuppet0&#45;&gt;Ian -->
<g id="edge68" class="edge"><title>sockpuppet0&#45;&gt;Ian</title>
<path fill="none" stroke="black" d="M1512.06,-803.092C1638.99,-789.041 1966.04,-753.956 2076.23,-742.605"/>
<polygon fill="black" stroke="black" points="2076.91,-746.053 2086.5,-741.551 2076.19,-739.09 2076.91,-746.053"/>
</g>
<!-- sockpuppet0&#45;&gt;Emma -->
<g id="edge67" class="edge"><title>sockpuppet0&#45;&gt;Emma</title>
<path fill="none" stroke="black" d="M1511.29,-817.515C1609.2,-830.84 1823.47,-861.079 1914.67,-874.442"/>
<polygon fill="black" stroke="black" points="1914.25,-877.917 1924.65,-875.909 1915.27,-870.992 1914.25,-877.917"/>
</g>
<!-- sockpuppet1 -->
<g id="node15" class="node"><title>sockpuppet1</title>
<ellipse fill="none" stroke="black" cx="925" cy="-18" rx="55.3682" ry="18"/>
<text text-anchor="middle" x="925" y="-14.3" font-family="Times,serif" font-size="14.00">sockpuppet1</text>
</g>
<!-- sockpuppet0&#45;&gt;sockpuppet1 -->
<g id="edge56" class="edge"><title>sockpuppet0&#45;&gt;sockpuppet1</title>
<path fill="none" stroke="black" d="M1512.48,-803.514C1582.77,-795.696 1704.03,-779.631 1742,-756 1783.81,-729.978 1808,-716.245 1808,-667 1808,-667 1808,-667 1808,-161 1808,-133.52 1985.42,-162.297 1589,-72 1475.56,-46.1612 1133.31,-28.5237 989.566,-21.9071"/>
<polygon fill="black" stroke="black" points="989.304,-18.3915 979.154,-21.4311 988.984,-25.3842 989.304,-18.3915"/>
</g>
<!-- sockpuppet2 -->
<g id="node16" class="node"><title>sockpuppet2</title>
<ellipse fill="none" stroke="black" cx="925" cy="-90" rx="55.3682" ry="18"/>
<text text-anchor="middle" x="925" y="-86.3" font-family="Times,serif" font-size="14.00">sockpuppet2</text>
</g>
<!-- sockpuppet0&#45;&gt;sockpuppet2 -->
<g id="edge57" class="edge"><title>sockpuppet0&#45;&gt;sockpuppet2</title>
<path fill="none" stroke="black" d="M1515.25,-806.612C1599.54,-799.552 1752,-772.162 1752,-667 1752,-667 1752,-667 1752,-593 1752,-287.993 1522.45,-240.183 1233,-144 1150.61,-116.623 1051.28,-102.946 988.046,-96.4296"/>
<polygon fill="black" stroke="black" points="988.13,-92.9205 977.831,-95.4066 987.432,-99.8857 988.13,-92.9205"/>
</g>
<!-- sockpuppet3 -->
<g id="node17" class="node"><title>sockpuppet3</title>
<ellipse fill="none" stroke="black" cx="1017" cy="-162" rx="55.3682" ry="18"/>
<text text-anchor="middle" x="1017" y="-158.3" font-family="Times,serif" font-size="14.00">sockpuppet3</text>
</g>
<!-- sockpuppet0&#45;&gt;sockpuppet3 -->
<g id="edge58" class="edge"><title>sockpuppet0&#45;&gt;sockpuppet3</title>
<path fill="none" stroke="black" d="M1499.43,-796.846C1552.15,-778.654 1640,-738.58 1640,-667 1640,-667 1640,-667 1640,-449 1640,-248.613 1440.27,-289.889 1254,-216 1195.8,-192.914 1125.67,-179.067 1076.79,-171.348"/>
<polygon fill="black" stroke="black" points="1077.11,-167.856 1066.69,-169.793 1076.04,-174.775 1077.11,-167.856"/>
</g>
<!-- sockpuppet4 -->
<g id="node18" class="node"><title>sockpuppet4</title>
<ellipse fill="none" stroke="black" cx="609" cy="-234" rx="55.3682" ry="18"/>
<text text-anchor="middle" x="609" y="-230.3" font-family="Times,serif" font-size="14.00">sockpuppet4</text>
</g>
<!-- sockpuppet0&#45;&gt;sockpuppet4 -->
<g id="edge59" class="edge"><title>sockpuppet0&#45;&gt;sockpuppet4</title>
<path fill="none" stroke="black" d="M1405.72,-809.486C1139.15,-811.215 0,-810.581 0,-667 0,-667 0,-667 0,-449 0,-334.268 394.126,-264.94 548.307,-242.783"/>
<polygon fill="black" stroke="black" points="549.138,-246.2 558.548,-241.331 548.155,-239.27 549.138,-246.2"/>
</g>
<!-- sockpuppet5 -->
<g id="node19" class="node"><title>sockpuppet5</title>
<ellipse fill="none" stroke="black" cx="757" cy="-306" rx="55.3682" ry="18"/>
<text text-anchor="middle" x="757" y="-302.3" font-family="Times,serif" font-size="14.00">sockpuppet5</text>
</g>
<!-- sockpuppet0&#45;&gt;sockpuppet5 -->
<g id="edge60" class="edge"><title>sockpuppet0&#45;&gt;sockpuppet5</title>
<path fill="none" stroke="black" d="M1406.26,-807.675C1221.58,-802.808 629.165,-784.693 549,-756 497.776,-737.666 474.688,-732.482 450,-684 379.742,-546.029 461.182,-461.616 578,-360 609.874,-332.274 656.16,-319.046 693.757,-312.739"/>
<polygon fill="black" stroke="black" points="694.765,-316.124 704.112,-311.137 693.695,-309.207 694.765,-316.124"/>
</g>
<!-- sockpuppet6 -->
<g id="node20" class="node"><title>sockpuppet6</title>
<ellipse fill="none" stroke="black" cx="1165" cy="-378" rx="55.3682" ry="18"/>
<text text-anchor="middle" x="1165" y="-374.3" font-family="Times,serif" font-size="14.00">sockpuppet6</text>
</g>
<!-- sockpuppet0&#45;&gt;sockpuppet6 -->
<g id="edge61" class="edge"><title>sockpuppet0&#45;&gt;sockpuppet6</title>
<path fill="none" stroke="black" d="M1449.24,-792.411C1416.8,-737.478 1324.39,-557.844 1217,-432 1207.87,-421.306 1196.55,-410.863 1186.68,-402.113"/>
<polygon fill="black" stroke="black" points="1188.97,-399.464 1179.15,-395.486 1184.34,-404.72 1188.97,-399.464"/>
</g>
<!-- sockpuppet7 -->
<g id="node21" class="node"><title>sockpuppet7</title>
<ellipse fill="none" stroke="black" cx="661" cy="-450" rx="55.3682" ry="18"/>
<text text-anchor="middle" x="661" y="-446.3" font-family="Times,serif" font-size="14.00">sockpuppet7</text>
</g>
<!-- sockpuppet0&#45;&gt;sockpuppet7 -->
<g id="edge62" class="edge"><title>sockpuppet0&#45;&gt;sockpuppet7</title>
<path fill="none" stroke="black" d="M1405.63,-809.113C1297.65,-808.35 1052.52,-801.402 853,-756 743.289,-731.035 616,-779.516 616,-667 616,-667 616,-667 616,-593 616,-551.367 630.72,-504.915 643.688,-476.831"/>
<polygon fill="black" stroke="black" points="646.906,-478.22 648.175,-467.701 640.623,-475.132 646.906,-478.22"/>
</g>
<!-- sockpuppet8 -->
<g id="node22" class="node"><title>sockpuppet8</title>
<ellipse fill="none" stroke="black" cx="717" cy="-522" rx="55.3682" ry="18"/>
<text text-anchor="middle" x="717" y="-518.3" font-family="Times,serif" font-size="14.00">sockpuppet8</text>
</g>
<!-- sockpuppet0&#45;&gt;sockpuppet8 -->
<g id="edge63" class="edge"><title>sockpuppet0&#45;&gt;sockpuppet8</title>
<path fill="none" stroke="black" d="M1407.33,-805.817C1264,-796.013 877.197,-762.091 781,-684 739.108,-649.993 720.326,-586.76 715.585,-550.484"/>
<polygon fill="black" stroke="black" points="719.03,-549.756 714.554,-540.153 712.064,-550.451 719.03,-549.756"/>
</g>
<!-- sockpuppet9 -->
<g id="node23" class="node"><title>sockpuppet9</title>
<ellipse fill="none" stroke="black" cx="1183" cy="-594" rx="55.3682" ry="18"/>
<text text-anchor="middle" x="1183" y="-590.3" font-family="Times,serif" font-size="14.00">sockpuppet9</text>
</g>
<!-- sockpuppet0&#45;&gt;sockpuppet9 -->
<g id="edge64" class="edge"><title>sockpuppet0&#45;&gt;sockpuppet9</title>
<path fill="none" stroke="black" d="M1437.3,-793.61C1385.14,-756.403 1261.54,-661.428 1208.12,-617.684"/>
<polygon fill="black" stroke="black" points="1210.1,-614.788 1200.16,-611.12 1205.65,-620.186 1210.1,-614.788"/>
</g>
<!-- sockpuppet10 -->
<g id="node24" class="node"><title>sockpuppet10</title>
<ellipse fill="none" stroke="black" cx="528" cy="-666" rx="59.1941" ry="18"/>
<text text-anchor="middle" x="528" y="-662.3" font-family="Times,serif" font-size="14.00">sockpuppet10</text>
</g>
<!-- sockpuppet0&#45;&gt;sockpuppet10 -->
<g id="edge65" class="edge"><title>sockpuppet0&#45;&gt;sockpuppet10</title>
<path fill="none" stroke="black" d="M1406,-808.19C1226.37,-805.122 664.916,-792.476 593,-756 566.114,-742.363 545.326,-714.144 534.534,-693.118"/>
<polygon fill="black" stroke="black" points="537.697,-691.619 530.293,-684.041 531.355,-694.582 537.697,-691.619"/>
</g>
<!-- sockpuppet11 -->
<g id="node25" class="node"><title>sockpuppet11</title>
<ellipse fill="none" stroke="black" cx="1183" cy="-738" rx="59.1941" ry="18"/>
<text text-anchor="middle" x="1183" y="-734.3" font-family="Times,serif" font-size="14.00">sockpuppet11</text>
</g>
<!-- sockpuppet0&#45;&gt;sockpuppet11 -->
<g id="edge66" class="edge"><title>sockpuppet0&#45;&gt;sockpuppet11</title>
<path fill="none" stroke="black" d="M1416.89,-799.119C1367.26,-787.188 1286.95,-767.025 1234.5,-753.373"/>
<polygon fill="black" stroke="black" points="1235.29,-749.96 1224.73,-750.818 1233.52,-756.732 1235.29,-749.96"/>
</g>
<!-- Kat&#45;&gt;Harry -->
<g id="edge46" class="edge"><title>Kat&#45;&gt;Harry</title>
<path fill="none" stroke="black" d="M2264.86,-611.789C2265.7,-619.591 2265.94,-629.067 2265.6,-637.848"/>
<polygon fill="black" stroke="black" points="2262.09,-637.834 2264.88,-648.055 2269.07,-638.325 2262.09,-637.834"/>
</g>
<!-- Kat&#45;&gt;Julia -->
<g id="edge47" class="edge"><title>Kat&#45;&gt;Julia</title>
<path fill="none" stroke="black" d="M2254.96,-575.849C2251.07,-538.74 2249.98,-450.747 2252.58,-406.054"/>
<polygon fill="black" stroke="black" points="2256.08,-406.158 2253.3,-395.935 2249.1,-405.662 2256.08,-406.158"/>
</g>
<!-- Kat&#45;&gt;Leo -->
<g id="edge45" class="edge"><title>Kat&#45;&gt;Leo</title>
<path fill="none" stroke="black" d="M2275.78,-579.834C2294.26,-567.859 2323.94,-550.209 2346.49,-537.761"/>
<polygon fill="black" stroke="black" points="2348.24,-540.792 2355.36,-532.941 2344.9,-534.642 2348.24,-540.792"/>
</g>
<!-- sockpuppet1&#45;&gt;sockpuppet0 -->
<g id="edge69" class="edge"><title>sockpuppet1&#45;&gt;sockpuppet0</title>
<path fill="none" stroke="black" d="M979.502,-21.0676C1119.48,-26.9252 1488.37,-44.9777 1607,-72 2003.42,-162.297 1826,-133.52 1826,-161 1826,-667 1826,-667 1826,-667 1826,-716.245 1801.81,-729.978 1760,-756 1721.92,-779.699 1600.07,-795.789 1524.1,-803.581"/>
<polygon fill="black" stroke="black" points="1523.3,-800.144 1513.7,-804.626 1524,-807.109 1523.3,-800.144"/>
</g>
<!-- sockpuppet1&#45;&gt;sockpuppet2 -->
<g id="edge70" class="edge"><title>sockpuppet1&#45;&gt;sockpuppet2</title>
<path fill="none" stroke="black" d="M930.913,-36.2753C931.715,-44.03 931.94,-53.3618 931.591,-62.0054"/>
<polygon fill="black" stroke="black" points="928.094,-61.8325 930.878,-72.055 935.077,-62.3275 928.094,-61.8325"/>
</g>
<!-- sockpuppet1&#45;&gt;sockpuppet3 -->
<g id="edge71" class="edge"><title>sockpuppet1&#45;&gt;sockpuppet3</title>
<path fill="none" stroke="black" d="M955.788,-33.1354C970.691,-42.6002 987.374,-56.1974 998,-72 1010.54,-90.6526 1017.71,-115.234 1020.22,-133.836"/>
<polygon fill="black" stroke="black" points="1016.75,-134.373 1021.16,-144.008 1023.72,-133.728 1016.75,-134.373"/>
</g>
<!-- sockpuppet1&#45;&gt;sockpuppet4 -->
<g id="edge72" class="edge"><title>sockpuppet1&#45;&gt;sockpuppet4</title>
<path fill="none" stroke="black" d="M874.319,-25.148C813.22,-33.0331 715.488,-48.5534 687,-72 645.434,-106.211 628.36,-170.095 618.805,-206.254"/>
<polygon fill="black" stroke="black" points="615.375,-205.533 616.179,-216.097 622.139,-207.337 615.375,-205.533"/>
</g>
<!-- sockpuppet1&#45;&gt;sockpuppet5 -->
<g id="edge73" class="edge"><title>sockpuppet1&#45;&gt;sockpuppet5</title>
<path fill="none" stroke="black" d="M909.717,-35.3074C897.911,-45.0606 882.065,-58.2121 870,-72 821.059,-127.928 811.091,-146.412 785,-216 777.396,-236.282 772.487,-260.364 768.186,-278.361"/>
<polygon fill="black" stroke="black" points="764.761,-277.626 765.707,-288.179 771.548,-279.34 764.761,-277.626"/>
</g>
<!-- sockpuppet1&#45;&gt;sockpuppet6 -->
<g id="edge74" class="edge"><title>sockpuppet1&#45;&gt;sockpuppet6</title>
<path fill="none" stroke="black" d="M967.001,-29.8227C1037.84,-51.8845 1177.51,-109.234 1226,-216 1230.96,-226.914 1242.64,-304.836 1234,-324 1228.02,-337.254 1216.91,-348.526 1205.25,-357.223"/>
<polygon fill="black" stroke="black" points="1202.97,-354.538 1196.72,-363.091 1206.94,-360.305 1202.97,-354.538"/>
</g>
<!-- sockpuppet1&#45;&gt;sockpuppet7 -->
<g id="edge75" class="edge"><title>sockpuppet1&#45;&gt;sockpuppet7</title>
<path fill="none" stroke="black" d="M869.742,-18.6344C707.101,-19.1837 242,-32.3023 242,-161 242,-235 242,-235 242,-235 242,-393.26 479.004,-434.486 596.574,-445.222"/>
<polygon fill="black" stroke="black" points="596.619,-448.739 606.883,-446.113 597.222,-441.765 596.619,-448.739"/>
</g>
<!-- sockpuppet1&#45;&gt;sockpuppet8 -->
<g id="edge76" class="edge"><title>sockpuppet1&#45;&gt;sockpuppet8</title>
<path fill="none" stroke="black" d="M870.21,-20.2408C734.378,-23.7412 385.619,-35.909 275,-72 203.114,-95.454 130,-85.3843 130,-161 130,-307 130,-307 130,-307 130,-419.24 509.147,-488.573 658.065,-512.042"/>
<polygon fill="black" stroke="black" points="657.538,-515.502 667.958,-513.587 658.618,-508.586 657.538,-515.502"/>
</g>
<!-- sockpuppet1&#45;&gt;sockpuppet9 -->
<g id="edge77" class="edge"><title>sockpuppet1&#45;&gt;sockpuppet9</title>
<path fill="none" stroke="black" d="M974.925,-25.8665C1016.68,-33.3834 1076.6,-47.7224 1124,-72 1235.22,-128.971 1254.06,-173.447 1304,-288 1348.76,-390.672 1376.75,-453.173 1306,-540 1289.46,-560.299 1263.38,-573.212 1239.42,-581.204"/>
<polygon fill="black" stroke="black" points="1238.18,-577.925 1229.66,-584.233 1240.25,-584.61 1238.18,-577.925"/>
</g>
<!-- sockpuppet1&#45;&gt;sockpuppet10 -->
<g id="edge78" class="edge"><title>sockpuppet1&#45;&gt;sockpuppet10</title>
<path fill="none" stroke="black" d="M870.258,-20.3797C704.371,-24.7557 215.242,-39.9653 151,-72 104.192,-95.3412 74,-108.695 74,-161 74,-523 74,-523 74,-523 74,-604.063 336.692,-643.573 462.49,-658.136"/>
<polygon fill="black" stroke="black" points="462.434,-661.652 472.766,-659.305 463.226,-654.697 462.434,-661.652"/>
</g>
<!-- sockpuppet1&#45;&gt;sockpuppet11 -->
<g id="edge79" class="edge"><title>sockpuppet1&#45;&gt;sockpuppet11</title>
<path fill="none" stroke="black" d="M978.874,-22.1956C1165.16,-34.3149 1770,-80.8584 1770,-161 1770,-379 1770,-379 1770,-379 1770,-620.876 1399.66,-704.911 1247.24,-728.817"/>
<polygon fill="black" stroke="black" points="1246.45,-725.399 1237.09,-730.371 1247.5,-732.318 1246.45,-725.399"/>
</g>
<!-- sockpuppet2&#45;&gt;sockpuppet0 -->
<g id="edge80" class="edge"><title>sockpuppet2&#45;&gt;sockpuppet0</title>
<path fill="none" stroke="black" d="M978.701,-94.3354C1044.55,-99.7856 1158.47,-113.251 1251,-144 1540.45,-240.183 1770,-287.993 1770,-593 1770,-667 1770,-667 1770,-667 1770,-772.421 1616.78,-799.687 1526.06,-806.663"/>
<polygon fill="black" stroke="black" points="1525.59,-803.188 1515.86,-807.383 1526.08,-810.17 1525.59,-803.188"/>
</g>
<!-- sockpuppet2&#45;&gt;sockpuppet1 -->
<g id="edge81" class="edge"><title>sockpuppet2&#45;&gt;sockpuppet1</title>
<path fill="none" stroke="black" d="M919.122,-72.055C918.304,-64.3456 918.061,-55.0269 918.395,-46.3642"/>
<polygon fill="black" stroke="black" points="921.894,-46.4915 919.087,-36.2753 914.911,-46.0122 921.894,-46.4915"/>
</g>
<!-- sockpuppet2&#45;&gt;sockpuppet3 -->
<g id="edge82" class="edge"><title>sockpuppet2&#45;&gt;sockpuppet3</title>
<path fill="none" stroke="black" d="M950.425,-106.038C963.732,-115.295 979.822,-127.351 992.921,-137.812"/>
<polygon fill="black" stroke="black" points="991.07,-140.818 1001.04,-144.411 995.486,-135.387 991.07,-140.818"/>
</g>
<!-- sockpuppet2&#45;&gt;sockpuppet4 -->
<g id="edge83" class="edge"><title>sockpuppet2&#45;&gt;sockpuppet4</title>
<path fill="none" stroke="black" d="M894.358,-105.019C868.602,-115.253 831.251,-129.77 799,-144 747.316,-166.806 688.891,-196.213 650.495,-214.844"/>
<polygon fill="black" stroke="black" points="648.667,-211.84 641.181,-219.338 651.709,-218.145 648.667,-211.84"/>
</g>
<!-- sockpuppet2&#45;&gt;sockpuppet5 -->
<g id="edge84" class="edge"><title>sockpuppet2&#45;&gt;sockpuppet5</title>
<path fill="none" stroke="black" d="M902.67,-106.706C887.814,-116.004 868.846,-128.91 855,-144 817.267,-185.123 789.577,-245.124 772.939,-279.068"/>
<polygon fill="black" stroke="black" points="769.659,-277.804 768.336,-288.315 775.926,-280.923 769.659,-277.804"/>
</g>
<!-- sockpuppet2&#45;&gt;sockpuppet6 -->
<g id="edge85" class="edge"><title>sockpuppet2&#45;&gt;sockpuppet6</title>
<path fill="none" stroke="black" d="M974.699,-97.938C1037.97,-110.073 1144.5,-141.381 1193,-216 1219.38,-256.582 1220.3,-277.463 1207,-324 1204.1,-334.161 1198.62,-344.27 1192.45,-352.893"/>
<polygon fill="black" stroke="black" points="1189.53,-350.937 1186.12,-360.967 1195.04,-355.255 1189.53,-350.937"/>
</g>
<!-- sockpuppet2&#45;&gt;sockpuppet7 -->
<g id="edge86" class="edge"><title>sockpuppet2&#45;&gt;sockpuppet7</title>
<path fill="none" stroke="black" d="M921.332,-108.14C903.316,-161.222 833.927,-319.601 830,-324 809.037,-347.485 794.387,-341.385 769,-360 741.07,-380.48 711.915,-407.48 690.735,-426.349"/>
<polygon fill="black" stroke="black" points="688.209,-423.911 683.027,-433.152 692.841,-429.159 688.209,-423.911"/>
</g>
<!-- sockpuppet2&#45;&gt;sockpuppet8 -->
<g id="edge87" class="edge"><title>sockpuppet2&#45;&gt;sockpuppet8</title>
<path fill="none" stroke="black" d="M927.191,-108.205C924.917,-137.967 911.59,-200.791 894,-252 859.745,-351.724 782.729,-452.778 742.328,-497.369"/>
<polygon fill="black" stroke="black" points="739.693,-495.063 735.464,-504.777 744.828,-499.821 739.693,-495.063"/>
</g>
<!-- sockpuppet2&#45;&gt;sockpuppet9 -->
<g id="edge88" class="edge"><title>sockpuppet2&#45;&gt;sockpuppet9</title>
<path fill="none" stroke="black" d="M978.897,-93.9371C1029.05,-98.7094 1104,-111.221 1160,-144 1197.46,-165.93 1201.89,-179.898 1226,-216 1290.61,-312.772 1315.64,-353.142 1297,-468 1291.6,-501.295 1293.59,-513.282 1273,-540 1261.6,-554.8 1244.82,-566.741 1228.75,-575.515"/>
<polygon fill="black" stroke="black" points="1226.71,-572.628 1219.42,-580.313 1229.91,-578.854 1226.71,-572.628"/>
</g>
<!-- sockpuppet2&#45;&gt;sockpuppet10 -->
<g id="edge89" class="edge"><title>sockpuppet2&#45;&gt;sockpuppet10</title>
<path fill="none" stroke="black" d="M872.594,-95.7156C703.822,-111.051 186,-162.614 186,-233 186,-451 186,-451 186,-451 186,-582.618 368.149,-635.661 466.651,-655.034"/>
<polygon fill="black" stroke="black" points="466.014,-658.475 476.492,-656.912 467.326,-651.599 466.014,-658.475"/>
</g>
<!-- sockpuppet2&#45;&gt;sockpuppet11 -->
<g id="edge90" class="edge"><title>sockpuppet2&#45;&gt;sockpuppet11</title>
<path fill="none" stroke="black" d="M980.123,-90.4959C1039.99,-92.0516 1135.99,-101.553 1205,-144 1271.15,-184.691 1272.51,-217.004 1304,-288 1375.38,-448.947 1397.17,-542.053 1293,-684 1279.75,-702.054 1258.5,-714.5 1238.12,-722.77"/>
<polygon fill="black" stroke="black" points="1236.66,-719.581 1228.54,-726.39 1239.13,-726.129 1236.66,-719.581"/>
</g>
<!-- sockpuppet3&#45;&gt;sockpuppet0 -->
<g id="edge91" class="edge"><title>sockpuppet3&#45;&gt;sockpuppet0</title>
<path fill="none" stroke="black" d="M1068.86,-168.192C1121.67,-174.999 1204.79,-189.339 1272,-216 1458.27,-289.889 1658,-248.613 1658,-449 1658,-667 1658,-667 1658,-667 1658,-737.372 1573.09,-777.292 1514.66,-795.907"/>
<polygon fill="black" stroke="black" points="1513.35,-792.649 1504.81,-798.925 1515.4,-799.342 1513.35,-792.649"/>
</g>
<!-- sockpuppet3&#45;&gt;sockpuppet1 -->
<g id="edge92" class="edge"><title>sockpuppet3&#45;&gt;sockpuppet1</title>
<path fill="none" stroke="black" d="M1008.07,-144.008C1002.32,-125.111 995.004,-94.3134 980,-72 972.187,-60.3809 961.099,-49.9541 950.833,-41.4856"/>
<polygon fill="black" stroke="black" points="952.857,-38.6226 942.855,-35.1284 948.495,-44.0973 952.857,-38.6226"/>
</g>
<!-- sockpuppet3&#45;&gt;sockpuppet2 -->
<g id="edge93" class="edge"><title>sockpuppet3&#45;&gt;sockpuppet2</title>
<path fill="none" stroke="black" d="M991.359,-145.811C978.001,-136.509 961.883,-124.424 948.806,-113.969"/>
<polygon fill="black" stroke="black" points="950.676,-110.979 940.711,-107.38 946.257,-116.408 950.676,-110.979"/>
</g>
<!-- sockpuppet3&#45;&gt;sockpuppet4 -->
<g id="edge94" class="edge"><title>sockpuppet3&#45;&gt;sockpuppet4</title>
<path fill="none" stroke="black" d="M970.576,-171.763C895.914,-185.047 749.536,-210.166 667.731,-223.739"/>
<polygon fill="black" stroke="black" points="667.136,-220.29 657.841,-225.376 668.279,-227.196 667.136,-220.29"/>
</g>
<!-- sockpuppet3&#45;&gt;sockpuppet5 -->
<g id="edge95" class="edge"><title>sockpuppet3&#45;&gt;sockpuppet5</title>
<path fill="none" stroke="black" d="M993.264,-178.361C948.306,-204.564 850.925,-257.816 796.179,-286.199"/>
<polygon fill="black" stroke="black" points="794.41,-283.173 787.124,-290.865 797.616,-289.396 794.41,-283.173"/>
</g>
<!-- sockpuppet3&#45;&gt;sockpuppet6 -->
<g id="edge96" class="edge"><title>sockpuppet3&#45;&gt;sockpuppet6</title>
<path fill="none" stroke="black" d="M1068.94,-168.22C1101.03,-174.312 1139.84,-187.495 1161,-216 1190.09,-255.177 1185.64,-315.476 1176.98,-350.085"/>
<polygon fill="black" stroke="black" points="1173.54,-349.374 1174.19,-359.949 1180.28,-351.279 1173.54,-349.374"/>
</g>
<!-- sockpuppet3&#45;&gt;sockpuppet7 -->
<g id="edge97" class="edge"><title>sockpuppet3&#45;&gt;sockpuppet7</title>
<path fill="none" stroke="black" d="M1009.55,-179.868C989.515,-210.749 935.744,-277.469 881,-324 835.911,-362.325 820.015,-366.011 769,-396 748.107,-408.282 724.161,-421.133 704.022,-431.105"/>
<polygon fill="black" stroke="black" points="702.226,-428.087 694.768,-435.612 705.291,-434.38 702.226,-428.087"/>
</g>
<!-- sockpuppet3&#45;&gt;sockpuppet8 -->
<g id="edge98" class="edge"><title>sockpuppet3&#45;&gt;sockpuppet8</title>
<path fill="none" stroke="black" d="M1030.09,-179.579C1055.07,-221.083 1100.56,-330.799 1049,-396 1005.94,-450.454 962.066,-407.789 897,-432 846.179,-450.91 791.192,-481.534 755.387,-501.469"/>
<polygon fill="black" stroke="black" points="753.303,-498.623 746.264,-506.542 756.705,-504.741 753.303,-498.623"/>
</g>
<!-- sockpuppet3&#45;&gt;sockpuppet9 -->
<g id="edge99" class="edge"><title>sockpuppet3&#45;&gt;sockpuppet9</title>
<path fill="none" stroke="black" d="M1063.41,-171.891C1108.87,-182.114 1173.7,-199.6 1193,-216 1247.67,-262.47 1249.32,-290.211 1266,-360 1284.77,-438.556 1276.79,-467.594 1241,-540 1235.26,-551.612 1226.17,-562.488 1216.77,-571.329"/>
<polygon fill="black" stroke="black" points="1214.43,-568.727 1209.23,-577.958 1219.05,-573.984 1214.43,-568.727"/>
</g>
<!-- sockpuppet3&#45;&gt;sockpuppet10 -->
<g id="edge100" class="edge"><title>sockpuppet3&#45;&gt;sockpuppet10</title>
<path fill="none" stroke="black" d="M962.72,-165.476C846.461,-171.1 582.1,-186.68 554,-216 440.846,-334.066 501.617,-559.864 522.395,-637.774"/>
<polygon fill="black" stroke="black" points="519.096,-638.988 525.04,-647.759 525.863,-637.196 519.096,-638.988"/>
</g>
<!-- sockpuppet3&#45;&gt;sockpuppet11 -->
<g id="edge101" class="edge"><title>sockpuppet3&#45;&gt;sockpuppet11</title>
<path fill="none" stroke="black" d="M1066.52,-169.981C1122.32,-179.211 1208.26,-196.592 1234,-216 1263.58,-238.305 1262.26,-253.596 1276,-288 1329.41,-421.74 1301.88,-469.661 1280,-612 1274.99,-644.602 1280.18,-656.479 1262,-684 1253.04,-697.563 1239.4,-709.023 1225.88,-717.778"/>
<polygon fill="black" stroke="black" points="1223.79,-714.952 1217.06,-723.137 1227.43,-720.934 1223.79,-714.952"/>
</g>
<!-- sockpuppet4&#45;&gt;sockpuppet0 -->
<g id="edge102" class="edge"><title>sockpuppet4&#45;&gt;sockpuppet0</title>
<path fill="none" stroke="black" d="M559.857,-242.305C417.911,-263.929 18,-333.429 18,-449 18,-667 18,-667 18,-667 18,-807.812 1113.64,-811.138 1395.54,-809.582"/>
<polygon fill="black" stroke="black" points="1395.63,-813.082 1405.61,-809.522 1395.59,-806.082 1395.63,-813.082"/>
</g>
<!-- sockpuppet4&#45;&gt;sockpuppet1 -->
<g id="edge103" class="edge"><title>sockpuppet4&#45;&gt;sockpuppet1</title>
<path fill="none" stroke="black" d="M606.083,-215.841C607.311,-182.619 623.449,-109.491 669,-72 697.608,-48.4543 796.048,-32.9021 862.266,-25.0485"/>
<polygon fill="black" stroke="black" points="863.07,-28.479 872.602,-23.8541 862.266,-21.5253 863.07,-28.479"/>
</g>
<!-- sockpuppet4&#45;&gt;sockpuppet2 -->
<g id="edge104" class="edge"><title>sockpuppet4&#45;&gt;sockpuppet2</title>
<path fill="none" stroke="black" d="M632.043,-217.59C664.955,-199.209 726.698,-167.961 781,-144 812.116,-130.27 847.98,-116.274 876.241,-106.115"/>
<polygon fill="black" stroke="black" points="877.645,-109.33 885.9,-102.688 875.305,-102.733 877.645,-109.33"/>
</g>
<!-- sockpuppet4&#45;&gt;sockpuppet3 -->
<g id="edge105" class="edge"><title>sockpuppet4&#45;&gt;sockpuppet3</title>
<path fill="none" stroke="black" d="M655.602,-224.205C730.401,-210.899 876.853,-185.767 958.541,-172.216"/>
<polygon fill="black" stroke="black" points="959.12,-175.668 968.414,-170.582 957.977,-168.762 959.12,-175.668"/>
</g>
<!-- sockpuppet4&#45;&gt;sockpuppet5 -->
<g id="edge106" class="edge"><title>sockpuppet4&#45;&gt;sockpuppet5</title>
<path fill="none" stroke="black" d="M642.635,-248.338C666.304,-258.833 697.781,-273.611 721.781,-285.444"/>
<polygon fill="black" stroke="black" points="720.395,-288.664 730.908,-289.983 723.513,-282.396 720.395,-288.664"/>
</g>
<!-- sockpuppet4&#45;&gt;sockpuppet6 -->
<g id="edge107" class="edge"><title>sockpuppet4&#45;&gt;sockpuppet6</title>
<path fill="none" stroke="black" d="M653.912,-244.48C698.801,-255.012 769.334,-272.569 830,-288 931.865,-313.91 1050.52,-344.755 1115.84,-362.489"/>
<polygon fill="black" stroke="black" points="1115.28,-365.966 1125.85,-365.22 1117.12,-359.212 1115.28,-365.966"/>
</g>
<!-- sockpuppet4&#45;&gt;sockpuppet7 -->
<g id="edge108" class="edge"><title>sockpuppet4&#45;&gt;sockpuppet7</title>
<path fill="none" stroke="black" d="M616.972,-251.935C629.525,-288.925 651.245,-377.197 659.1,-421.969"/>
<polygon fill="black" stroke="black" points="655.647,-422.542 660.71,-431.849 662.556,-421.416 655.647,-422.542"/>
</g>
<!-- sockpuppet4&#45;&gt;sockpuppet8 -->
<g id="edge109" class="edge"><title>sockpuppet4&#45;&gt;sockpuppet8</title>
<path fill="none" stroke="black" d="M605.282,-252.019C591.197,-293.131 551.095,-399.512 597,-468 611.455,-489.566 636.432,-502.364 659.92,-509.956"/>
<polygon fill="black" stroke="black" points="658.93,-513.313 669.512,-512.807 660.924,-506.603 658.93,-513.313"/>
</g>
<!-- sockpuppet4&#45;&gt;sockpuppet9 -->
<g id="edge110" class="edge"><title>sockpuppet4&#45;&gt;sockpuppet9</title>
<path fill="none" stroke="black" d="M663.374,-237.151C802.85,-244.087 1166.81,-270.886 1238,-360 1263.38,-391.767 1222.35,-512.879 1198.06,-566.817"/>
<polygon fill="black" stroke="black" points="1194.8,-565.529 1193.74,-576.07 1201.14,-568.491 1194.8,-565.529"/>
</g>
<!-- sockpuppet4&#45;&gt;sockpuppet10 -->
<g id="edge111" class="edge"><title>sockpuppet4&#45;&gt;sockpuppet10</title>
<path fill="none" stroke="black" d="M602.17,-252.011C595.447,-261.889 586.399,-274.932 581,-288 580.763,-288.574 539.4,-489.26 534,-576 532.711,-596.701 533.597,-620.147 533.437,-637.776"/>
<polygon fill="black" stroke="black" points="529.934,-637.837 533.173,-647.924 536.932,-638.019 529.934,-637.837"/>
</g>
<!-- sockpuppet4&#45;&gt;sockpuppet11 -->
<g id="edge112" class="edge"><title>sockpuppet4&#45;&gt;sockpuppet11</title>
<path fill="none" stroke="black" d="M624.374,-251.742C677.303,-316.327 857.264,-552.21 1057,-684 1081.12,-699.915 1110.75,-712.212 1135.28,-720.936"/>
<polygon fill="black" stroke="black" points="1134.16,-724.253 1144.76,-724.222 1136.46,-717.64 1134.16,-724.253"/>
</g>
<!-- sockpuppet5&#45;&gt;sockpuppet0 -->
<g id="edge113" class="edge"><title>sockpuppet5&#45;&gt;sockpuppet0</title>
<path fill="none" stroke="black" d="M706.2,-313.259C671.696,-319.763 627.022,-333.015 596,-360 479.182,-461.616 397.742,-546.029 468,-684 492.688,-732.482 515.776,-737.666 567,-756 644.674,-783.801 1203.25,-801.672 1395.93,-807.183"/>
<polygon fill="black" stroke="black" points="1396.09,-810.689 1406.19,-807.475 1396.29,-803.692 1396.09,-810.689"/>
</g>
<!-- sockpuppet5&#45;&gt;sockpuppet1 -->
<g id="edge114" class="edge"><title>sockpuppet5&#45;&gt;sockpuppet1</title>
<path fill="none" stroke="black" d="M752.444,-287.844C752.728,-269.602 757.959,-240.114 767,-216 793.091,-146.412 803.059,-127.928 852,-72 862.421,-60.0916 875.661,-48.658 888.099,-39.4785"/>
<polygon fill="black" stroke="black" points="890.398,-42.1396 896.538,-33.5054 886.354,-36.4261 890.398,-42.1396"/>
</g>
<!-- sockpuppet5&#45;&gt;sockpuppet2 -->
<g id="edge115" class="edge"><title>sockpuppet5&#45;&gt;sockpuppet2</title>
<path fill="none" stroke="black" d="M758.061,-287.826C766.514,-256.446 795.758,-188.947 837,-144 849.601,-130.267 866.444,-118.342 882.112,-109.3"/>
<polygon fill="black" stroke="black" points="884.088,-112.207 891.16,-104.318 880.712,-106.076 884.088,-112.207"/>
</g>
<!-- sockpuppet5&#45;&gt;sockpuppet3 -->
<g id="edge116" class="edge"><title>sockpuppet5&#45;&gt;sockpuppet3</title>
<path fill="none" stroke="black" d="M780.918,-289.533C825.935,-263.304 923.061,-210.194 977.748,-181.839"/>
<polygon fill="black" stroke="black" points="979.509,-184.869 986.794,-177.177 976.302,-178.647 979.509,-184.869"/>
</g>
<!-- sockpuppet5&#45;&gt;sockpuppet4 -->
<g id="edge117" class="edge"><title>sockpuppet5&#45;&gt;sockpuppet4</title>
<path fill="none" stroke="black" d="M723.379,-291.669C699.686,-281.163 668.164,-266.363 644.151,-254.522"/>
<polygon fill="black" stroke="black" points="645.533,-251.301 635.02,-249.981 642.415,-257.568 645.533,-251.301"/>
</g>
<!-- sockpuppet5&#45;&gt;sockpuppet6 -->
<g id="edge118" class="edge"><title>sockpuppet5&#45;&gt;sockpuppet6</title>
<path fill="none" stroke="black" d="M805.586,-314.582C881.556,-327.114 1027.84,-352.177 1108.43,-366.437"/>
<polygon fill="black" stroke="black" points="1107.94,-369.905 1118.4,-368.205 1109.16,-363.012 1107.94,-369.905"/>
</g>
<!-- sockpuppet5&#45;&gt;sockpuppet7 -->
<g id="edge119" class="edge"><title>sockpuppet5&#45;&gt;sockpuppet7</title>
<path fill="none" stroke="black" d="M749.885,-324.172C742.43,-334.313 731.68,-347.563 723,-360 708.538,-380.721 693.985,-405.507 682.31,-423.654"/>
<polygon fill="black" stroke="black" points="679.07,-422.207 676.482,-432.481 684.912,-426.064 679.07,-422.207"/>
</g>
<!-- sockpuppet5&#45;&gt;sockpuppet8 -->
<g id="edge120" class="edge"><title>sockpuppet5&#45;&gt;sockpuppet8</title>
<path fill="none" stroke="black" d="M729.796,-321.725C693.633,-340.81 631.882,-378.148 606,-432 599.069,-446.421 597.266,-454.594 606,-468 618.938,-487.857 641.186,-500.328 662.432,-508.137"/>
<polygon fill="black" stroke="black" points="661.493,-511.514 672.087,-511.407 663.738,-504.884 661.493,-511.514"/>
</g>
<!-- sockpuppet5&#45;&gt;sockpuppet9 -->
<g id="edge121" class="edge"><title>sockpuppet5&#45;&gt;sockpuppet9</title>
<path fill="none" stroke="black" d="M796.02,-318.793C868.76,-342.955 1021.03,-398.613 1065,-432 1114.76,-469.784 1155.98,-531.429 1174.09,-566.461"/>
<polygon fill="black" stroke="black" points="1171.02,-568.158 1178.57,-575.594 1177.3,-565.075 1171.02,-568.158"/>
</g>
<!-- sockpuppet5&#45;&gt;sockpuppet10 -->
<g id="edge122" class="edge"><title>sockpuppet5&#45;&gt;sockpuppet10</title>
<path fill="none" stroke="black" d="M712.826,-316.98C685.824,-324.658 652.272,-337.843 629,-360 549.244,-435.933 537.898,-578.25 532.56,-637.755"/>
<polygon fill="black" stroke="black" points="529.061,-637.586 531.618,-647.868 536.031,-638.236 529.061,-637.586"/>
</g>
<!-- sockpuppet5&#45;&gt;sockpuppet11 -->
<g id="edge123" class="edge"><title>sockpuppet5&#45;&gt;sockpuppet11</title>
<path fill="none" stroke="black" d="M784.053,-321.854C855.391,-364.968 1042,-489.092 1042,-521 1042,-595 1042,-595 1042,-595 1042,-653.465 1102.84,-695.056 1144.7,-717.553"/>
<polygon fill="black" stroke="black" points="1143.09,-720.662 1153.58,-722.196 1146.34,-714.459 1143.09,-720.662"/>
</g>
<!-- sockpuppet6&#45;&gt;sockpuppet0 -->
<g id="edge124" class="edge"><title>sockpuppet6&#45;&gt;sockpuppet0</title>
<path fill="none" stroke="black" d="M1192.44,-393.673C1206.41,-403.642 1222.71,-417.593 1235,-432 1336.7,-551.175 1424.96,-718.59 1452.59,-782.654"/>
<polygon fill="black" stroke="black" points="1449.42,-784.141 1456.49,-792.025 1455.88,-781.448 1449.42,-784.141"/>
</g>
<!-- sockpuppet6&#45;&gt;sockpuppet1 -->
<g id="edge125" class="edge"><title>sockpuppet6&#45;&gt;sockpuppet1</title>
<path fill="none" stroke="black" d="M1183.93,-360.892C1195.53,-351.8 1209.14,-339.204 1216,-324 1224.64,-304.836 1212.96,-226.914 1208,-216 1162.93,-116.76 1039.08,-60.2147 971.025,-35.0187"/>
<polygon fill="black" stroke="black" points="972,-31.6492 961.406,-31.5274 969.612,-38.2292 972,-31.6492"/>
</g>
<!-- sockpuppet6&#45;&gt;sockpuppet2 -->
<g id="edge126" class="edge"><title>sockpuppet6&#45;&gt;sockpuppet2</title>
<path fill="none" stroke="black" d="M1171.06,-360.038C1177.19,-350.176 1185.25,-337.131 1189,-324 1202.3,-277.463 1201.38,-256.582 1175,-216 1131.34,-148.826 1040.65,-116.751 981.26,-102.166"/>
<polygon fill="black" stroke="black" points="981.82,-98.7022 971.283,-99.8074 980.209,-105.514 981.82,-98.7022"/>
</g>
<!-- sockpuppet6&#45;&gt;sockpuppet3 -->
<g id="edge127" class="edge"><title>sockpuppet6&#45;&gt;sockpuppet3</title>
<path fill="none" stroke="black" d="M1163.78,-359.949C1166.36,-328.177 1175.09,-259.23 1143,-216 1126.64,-193.958 1099.72,-181.078 1074.91,-173.554"/>
<polygon fill="black" stroke="black" points="1075.74,-170.152 1065.17,-170.832 1073.86,-176.894 1075.74,-170.152"/>
</g>
<!-- sockpuppet6&#45;&gt;sockpuppet4 -->
<g id="edge128" class="edge"><title>sockpuppet6&#45;&gt;sockpuppet4</title>
<path fill="none" stroke="black" d="M1121.3,-367.02C1054.41,-350.451 923.2,-316.284 812,-288 759.521,-274.652 699.659,-259.713 658.521,-249.106"/>
<polygon fill="black" stroke="black" points="659.299,-245.692 648.741,-246.574 657.545,-252.469 659.299,-245.692"/>
</g>
<!-- sockpuppet6&#45;&gt;sockpuppet5 -->
<g id="edge129" class="edge"><title>sockpuppet6&#45;&gt;sockpuppet5</title>
<path fill="none" stroke="black" d="M1116.16,-369.376C1040.05,-356.819 893.836,-331.767 813.376,-317.529"/>
<polygon fill="black" stroke="black" points="813.882,-314.064 803.424,-315.763 812.659,-320.956 813.882,-314.064"/>
</g>
<!-- sockpuppet6&#45;&gt;sockpuppet7 -->
<g id="edge130" class="edge"><title>sockpuppet6&#45;&gt;sockpuppet7</title>
<path fill="none" stroke="black" d="M1116.18,-386.384C1023.54,-399.691 822.799,-427.577 721.682,-441.189"/>
<polygon fill="black" stroke="black" points="721.07,-437.74 711.625,-442.54 722.002,-444.678 721.07,-437.74"/>
</g>
<!-- sockpuppet6&#45;&gt;sockpuppet8 -->
<g id="edge131" class="edge"><title>sockpuppet6&#45;&gt;sockpuppet8</title>
<path fill="none" stroke="black" d="M1124.75,-390.464C1066.83,-405.585 966.902,-430.474 963,-432 931.881,-444.167 927.776,-454.99 897,-468 856.44,-485.146 808.399,-499.547 772.055,-508.99"/>
<polygon fill="black" stroke="black" points="770.956,-505.658 762.13,-511.52 772.685,-512.441 770.956,-505.658"/>
</g>
<!-- sockpuppet6&#45;&gt;sockpuppet9 -->
<g id="edge132" class="edge"><title>sockpuppet6&#45;&gt;sockpuppet9</title>
<path fill="none" stroke="black" d="M1171.73,-395.927C1177.55,-425.271 1182.4,-487.481 1187,-540 1187.73,-548.322 1188.57,-557.375 1188.95,-565.605"/>
<polygon fill="black" stroke="black" points="1185.45,-565.888 1189.14,-575.82 1192.45,-565.755 1185.45,-565.888"/>
</g>
<!-- sockpuppet6&#45;&gt;sockpuppet10 -->
<g id="edge133" class="edge"><title>sockpuppet6&#45;&gt;sockpuppet10</title>
<path fill="none" stroke="black" d="M1135.95,-393.469C1034.08,-441.299 693.5,-594.258 571.69,-646.955"/>
<polygon fill="black" stroke="black" points="570.08,-643.838 562.284,-651.012 572.853,-650.266 570.08,-643.838"/>
</g>
<!-- sockpuppet6&#45;&gt;sockpuppet11 -->
<g id="edge134" class="edge"><title>sockpuppet6&#45;&gt;sockpuppet11</title>
<path fill="none" stroke="black" d="M1179.79,-395.364C1202.59,-428.2 1243.36,-505.063 1256,-576 1265.07,-626.887 1233.12,-682.003 1208.42,-712.74"/>
<polygon fill="black" stroke="black" points="1205.45,-710.836 1201.68,-720.74 1210.8,-715.345 1205.45,-710.836"/>
</g>
<!-- sockpuppet7&#45;&gt;sockpuppet0 -->
<g id="edge135" class="edge"><title>sockpuppet7&#45;&gt;sockpuppet0</title>
<path fill="none" stroke="black" d="M659.481,-468.133C652.196,-494.469 634,-546.712 634,-593 634,-667 634,-667 634,-667 634,-779.516 761.289,-731.035 871,-756 1058.12,-798.58 1285.36,-807.338 1395.29,-808.891"/>
<polygon fill="black" stroke="black" points="1395.52,-812.394 1405.56,-809.02 1395.6,-805.394 1395.52,-812.394"/>
</g>
<!-- sockpuppet7&#45;&gt;sockpuppet1 -->
<g id="edge136" class="edge"><title>sockpuppet7&#45;&gt;sockpuppet1</title>
<path fill="none" stroke="black" d="M606.454,-446.793C489.164,-438.857 224,-402.398 224,-235 224,-235 224,-235 224,-161 224,-32.7868 685.606,-19.2841 859.699,-18.6411"/>
<polygon fill="black" stroke="black" points="859.763,-22.1411 869.755,-18.6172 859.747,-15.1411 859.763,-22.1411"/>
</g>
<!-- sockpuppet7&#45;&gt;sockpuppet2 -->
<g id="edge137" class="edge"><title>sockpuppet7&#45;&gt;sockpuppet2</title>
<path fill="none" stroke="black" d="M671.087,-432.146C687.619,-413.374 720.061,-382.687 751,-360 776.387,-341.385 791.037,-347.485 812,-324 815.729,-319.823 878.473,-176.829 909.098,-116.957"/>
<polygon fill="black" stroke="black" points="912.37,-118.252 913.899,-107.768 906.166,-115.011 912.37,-118.252"/>
</g>
<!-- sockpuppet7&#45;&gt;sockpuppet3 -->
<g id="edge138" class="edge"><title>sockpuppet7&#45;&gt;sockpuppet3</title>
<path fill="none" stroke="black" d="M683.968,-433.382C702.41,-423.14 728.479,-409.239 751,-396 802.015,-366.011 817.911,-362.325 863,-324 913.731,-280.879 963.627,-220.422 992.565,-187.214"/>
<polygon fill="black" stroke="black" points="995.477,-189.204 999.459,-179.386 990.223,-184.578 995.477,-189.204"/>
</g>
<!-- sockpuppet7&#45;&gt;sockpuppet4 -->
<g id="edge139" class="edge"><title>sockpuppet7&#45;&gt;sockpuppet4</title>
<path fill="none" stroke="black" d="M652.955,-431.849C640.398,-394.753 618.763,-306.81 610.913,-262.103"/>
<polygon fill="black" stroke="black" points="614.367,-261.538 609.302,-252.232 607.458,-262.666 614.367,-261.538"/>
</g>
<!-- sockpuppet7&#45;&gt;sockpuppet5 -->
<g id="edge140" class="edge"><title>sockpuppet7&#45;&gt;sockpuppet5</title>
<path fill="none" stroke="black" d="M663.583,-431.814C671.324,-413.546 688.223,-384.037 705,-360 712.028,-349.93 720.414,-339.327 728.502,-330.273"/>
<polygon fill="black" stroke="black" points="731.239,-332.47 735.493,-322.767 726.116,-327.7 731.239,-332.47"/>
</g>
<!-- sockpuppet7&#45;&gt;sockpuppet6 -->
<g id="edge141" class="edge"><title>sockpuppet7&#45;&gt;sockpuppet6</title>
<path fill="none" stroke="black" d="M710.105,-441.575C802.951,-428.24 1003.65,-400.361 1104.58,-386.776"/>
<polygon fill="black" stroke="black" points="1105.17,-390.228 1114.62,-385.428 1104.24,-383.29 1105.17,-390.228"/>
</g>
<!-- sockpuppet7&#45;&gt;sockpuppet8 -->
<g id="edge142" class="edge"><title>sockpuppet7&#45;&gt;sockpuppet8</title>
<path fill="none" stroke="black" d="M679.854,-467.307C687.556,-475.756 696.196,-486.262 703.3,-495.735"/>
<polygon fill="black" stroke="black" points="700.624,-498.006 709.322,-504.055 706.294,-493.902 700.624,-498.006"/>
</g>
<!-- sockpuppet7&#45;&gt;sockpuppet9 -->
<g id="edge143" class="edge"><title>sockpuppet7&#45;&gt;sockpuppet9</title>
<path fill="none" stroke="black" d="M703.668,-461.584C799.773,-486.693 1032.29,-549.896 1134.05,-578.517"/>
<polygon fill="black" stroke="black" points="1133.19,-581.913 1143.77,-581.259 1135.09,-575.176 1133.19,-581.913"/>
</g>
<!-- sockpuppet7&#45;&gt;sockpuppet10 -->
<g id="edge144" class="edge"><title>sockpuppet7&#45;&gt;sockpuppet10</title>
<path fill="none" stroke="black" d="M646.434,-467.545C635.514,-477.181 621.208,-490.142 611,-504 579.585,-546.648 556.952,-604.762 542.761,-638.243"/>
<polygon fill="black" stroke="black" points="539.386,-637.23 538.628,-647.798 545.811,-640.009 539.386,-637.23"/>
</g>
<!-- sockpuppet7&#45;&gt;sockpuppet11 -->
<g id="edge145" class="edge"><title>sockpuppet7&#45;&gt;sockpuppet11</title>
<path fill="none" stroke="black" d="M702.336,-461.949C729,-470.979 763.316,-485.328 790,-504 880.911,-567.616 866.506,-629.22 963,-684 1010.51,-710.971 1070.95,-724.227 1116.53,-730.737"/>
<polygon fill="black" stroke="black" points="1116.22,-734.228 1126.6,-732.102 1117.16,-727.291 1116.22,-734.228"/>
</g>
<!-- sockpuppet8&#45;&gt;sockpuppet0 -->
<g id="edge146" class="edge"><title>sockpuppet8&#45;&gt;sockpuppet0</title>
<path fill="none" stroke="black" d="M724.644,-539.897C734.594,-572.988 752.655,-646.378 799,-684 891.145,-758.802 1249.93,-793.077 1397.34,-804.448"/>
<polygon fill="black" stroke="black" points="1397.34,-807.958 1407.58,-805.227 1397.88,-800.979 1397.34,-807.958"/>
</g>
<!-- sockpuppet8&#45;&gt;sockpuppet1 -->
<g id="edge147" class="edge"><title>sockpuppet8&#45;&gt;sockpuppet1</title>
<path fill="none" stroke="black" d="M666.601,-514.572C521.214,-493.902 112,-423.605 112,-307 112,-307 112,-307 112,-161 112,-85.3843 185.114,-95.454 257,-72 367.29,-36.0161 714.31,-23.8137 859.858,-20.2722"/>
<polygon fill="black" stroke="black" points="860.069,-23.7683 869.983,-20.032 859.903,-16.7703 860.069,-23.7683"/>
</g>
<!-- sockpuppet8&#45;&gt;sockpuppet2 -->
<g id="edge148" class="edge"><title>sockpuppet8&#45;&gt;sockpuppet2</title>
<path fill="none" stroke="black" d="M726.87,-504.184C756.156,-463.862 839.867,-357.19 876,-252 891.872,-205.792 904.274,-150.126 913.453,-117.828"/>
<polygon fill="black" stroke="black" points="916.819,-118.788 916.32,-108.205 910.11,-116.789 916.819,-118.788"/>
</g>
<!-- sockpuppet8&#45;&gt;sockpuppet3 -->
<g id="edge149" class="edge"><title>sockpuppet8&#45;&gt;sockpuppet3</title>
<path fill="none" stroke="black" d="M736.454,-505.026C766.403,-485.35 825.049,-452.075 879,-432 944.066,-407.789 987.936,-450.454 1031,-396 1078.8,-335.553 1043.19,-236.847 1025.15,-189.702"/>
<polygon fill="black" stroke="black" points="1028.35,-188.276 1021.5,-180.192 1021.81,-190.783 1028.35,-188.276"/>
</g>
<!-- sockpuppet8&#45;&gt;sockpuppet4 -->
<g id="edge150" class="edge"><title>sockpuppet8&#45;&gt;sockpuppet4</title>
<path fill="none" stroke="black" d="M665.309,-515.493C634.421,-509.274 597.805,-496.057 579,-468 536.038,-403.902 568.409,-306.615 591.639,-260.703"/>
<polygon fill="black" stroke="black" points="594.814,-262.187 596.427,-251.716 588.636,-258.896 594.814,-262.187"/>
</g>
<!-- sockpuppet8&#45;&gt;sockpuppet5 -->
<g id="edge151" class="edge"><title>sockpuppet8&#45;&gt;sockpuppet5</title>
<path fill="none" stroke="black" d="M667.05,-514.311C638.444,-507.58 605.095,-494.238 588,-468 579.266,-454.594 581.069,-446.421 588,-432 612.862,-380.272 670.82,-343.779 712.034,-324.067"/>
<polygon fill="black" stroke="black" points="713.728,-327.14 721.336,-319.767 710.791,-320.786 713.728,-327.14"/>
</g>
<!-- sockpuppet8&#45;&gt;sockpuppet6 -->
<g id="edge152" class="edge"><title>sockpuppet8&#45;&gt;sockpuppet6</title>
<path fill="none" stroke="black" d="M756.179,-509.252C789.503,-499.815 838.062,-485.306 879,-468 909.776,-454.99 913.881,-444.167 945,-432 948.856,-430.493 1046.44,-406.179 1110.43,-391.013"/>
<polygon fill="black" stroke="black" points="1111.46,-394.365 1120.39,-388.662 1109.85,-387.553 1111.46,-394.365"/>
</g>
<!-- sockpuppet8&#45;&gt;sockpuppet7 -->
<g id="edge153" class="edge"><title>sockpuppet8&#45;&gt;sockpuppet7</title>
<path fill="none" stroke="black" d="M698.211,-504.765C690.539,-496.354 681.928,-485.89 674.828,-476.436"/>
<polygon fill="black" stroke="black" points="677.505,-474.166 668.802,-468.124 671.838,-478.275 677.505,-474.166"/>
</g>
<!-- sockpuppet8&#45;&gt;sockpuppet9 -->
<g id="edge154" class="edge"><title>sockpuppet8&#45;&gt;sockpuppet9</title>
<path fill="none" stroke="black" d="M766.983,-529.874C853.994,-542.468 1032.53,-569.258 1124.9,-583.553"/>
<polygon fill="black" stroke="black" points="1124.49,-587.032 1134.91,-585.106 1125.57,-580.115 1124.49,-587.032"/>
</g>
<!-- sockpuppet8&#45;&gt;sockpuppet10 -->
<g id="edge155" class="edge"><title>sockpuppet8&#45;&gt;sockpuppet10</title>
<path fill="none" stroke="black" d="M699.776,-539.32C668.295,-565.101 601.71,-615.249 561.212,-643.788"/>
<polygon fill="black" stroke="black" points="559.181,-640.937 552.988,-649.533 563.19,-646.675 559.181,-640.937"/>
</g>
<!-- sockpuppet8&#45;&gt;sockpuppet11 -->
<g id="edge156" class="edge"><title>sockpuppet8&#45;&gt;sockpuppet11</title>
<path fill="none" stroke="black" d="M738.456,-538.803C748.486,-549.119 759.838,-563.032 769,-576 801.459,-621.944 788.095,-652.946 835,-684 880.104,-713.862 1026.77,-727.552 1114.71,-733.301"/>
<polygon fill="black" stroke="black" points="1114.67,-736.805 1124.87,-733.947 1115.12,-729.819 1114.67,-736.805"/>
</g>
<!-- sockpuppet9&#45;&gt;sockpuppet0 -->
<g id="edge157" class="edge"><title>sockpuppet9&#45;&gt;sockpuppet0</title>
<path fill="none" stroke="black" d="M1206.62,-610.335C1258.6,-647.404 1381.78,-742.046 1435.46,-785.966"/>
<polygon fill="black" stroke="black" points="1433.51,-788.9 1443.46,-792.563 1437.97,-783.5 1433.51,-788.9"/>
</g>
<!-- sockpuppet9&#45;&gt;sockpuppet1 -->
<g id="edge158" class="edge"><title>sockpuppet9&#45;&gt;sockpuppet1</title>
<path fill="none" stroke="black" d="M1222.7,-581.409C1244.94,-573.433 1271.32,-560.473 1288,-540 1358.75,-453.173 1330.76,-390.672 1286,-288 1236.06,-173.447 1217.22,-128.971 1106,-72 1066.44,-51.7353 1018.15,-38.3952 981.329,-30.1672"/>
<polygon fill="black" stroke="black" points="981.779,-26.6835 971.264,-27.9806 980.293,-33.5239 981.779,-26.6835"/>
</g>
<!-- sockpuppet9&#45;&gt;sockpuppet2 -->
<g id="edge159" class="edge"><title>sockpuppet9&#45;&gt;sockpuppet2</title>
<path fill="none" stroke="black" d="M1208.41,-577.766C1223.81,-568.828 1242.59,-556.107 1255,-540 1275.59,-513.282 1273.6,-501.295 1279,-468 1297.64,-353.142 1272.61,-312.772 1208,-216 1183.89,-179.898 1179.46,-165.93 1142,-144 1094.47,-116.176 1033.28,-102.955 987.928,-96.675"/>
<polygon fill="black" stroke="black" points="988.292,-93.1929 977.923,-95.3659 987.384,-100.134 988.292,-93.1929"/>
</g>
<!-- sockpuppet9&#45;&gt;sockpuppet3 -->
<g id="edge160" class="edge"><title>sockpuppet9&#45;&gt;sockpuppet3</title>
<path fill="none" stroke="black" d="M1195.18,-576.369C1204.4,-566.8 1216.11,-553.93 1223,-540 1258.79,-467.594 1266.77,-438.556 1248,-360 1231.32,-290.211 1229.67,-262.47 1175,-216 1158.39,-201.88 1108.01,-186.955 1068.48,-176.554"/>
<polygon fill="black" stroke="black" points="1069.25,-173.137 1058.69,-174.01 1067.49,-179.912 1069.25,-173.137"/>
</g>
<!-- sockpuppet9&#45;&gt;sockpuppet4 -->
<g id="edge161" class="edge"><title>sockpuppet9&#45;&gt;sockpuppet4</title>
<path fill="none" stroke="black" d="M1185.7,-575.727C1199.22,-527.66 1246.89,-393.664 1220,-360 1151.97,-274.841 816.573,-246.588 673.617,-238.195"/>
<polygon fill="black" stroke="black" points="673.437,-234.679 663.253,-237.602 673.037,-241.668 673.437,-234.679"/>
</g>
<!-- sockpuppet9&#45;&gt;sockpuppet5 -->
<g id="edge162" class="edge"><title>sockpuppet9&#45;&gt;sockpuppet5</title>
<path fill="none" stroke="black" d="M1168.86,-576.593C1146.58,-544.69 1102.01,-473.767 1047,-432 1005.92,-400.803 870.273,-350.162 799.926,-323.94"/>
<polygon fill="black" stroke="black" points="801.043,-320.621 790.45,-320.407 798.597,-327.18 801.043,-320.621"/>
</g>
<!-- sockpuppet9&#45;&gt;sockpuppet6 -->
<g id="edge163" class="edge"><title>sockpuppet9&#45;&gt;sockpuppet6</title>
<path fill="none" stroke="black" d="M1173.5,-575.82C1171.32,-565.449 1170.05,-551.969 1169,-540 1164.91,-493.27 1160.61,-438.868 1160.64,-406.772"/>
<polygon fill="black" stroke="black" points="1164.15,-406.463 1160.84,-396.398 1157.15,-406.33 1164.15,-406.463"/>
</g>
<!-- sockpuppet9&#45;&gt;sockpuppet7 -->
<g id="edge164" class="edge"><title>sockpuppet9&#45;&gt;sockpuppet7</title>
<path fill="none" stroke="black" d="M1140.44,-582.443C1044.36,-557.344 811.591,-494.071 709.849,-465.453"/>
<polygon fill="black" stroke="black" points="710.706,-462.059 700.131,-462.713 708.806,-468.796 710.706,-462.059"/>
</g>
<!-- sockpuppet9&#45;&gt;sockpuppet8 -->
<g id="edge165" class="edge"><title>sockpuppet9&#45;&gt;sockpuppet8</title>
<path fill="none" stroke="black" d="M1133.26,-586.161C1046.31,-573.577 867.428,-546.736 775.003,-532.432"/>
<polygon fill="black" stroke="black" points="775.401,-528.952 764.982,-530.878 774.328,-535.869 775.401,-528.952"/>
</g>
<!-- sockpuppet9&#45;&gt;sockpuppet10 -->
<g id="edge166" class="edge"><title>sockpuppet9&#45;&gt;sockpuppet10</title>
<path fill="none" stroke="black" d="M1131.73,-600.902C1013.94,-613.882 724.441,-644.827 593.781,-658.413"/>
<polygon fill="black" stroke="black" points="593.107,-654.964 583.522,-659.478 593.83,-661.927 593.107,-654.964"/>
</g>
<!-- sockpuppet9&#45;&gt;sockpuppet11 -->
<g id="edge167" class="edge"><title>sockpuppet9&#45;&gt;sockpuppet11</title>
<path fill="none" stroke="black" d="M1187.59,-612.189C1190.15,-636.424 1190.43,-680.888 1188.45,-709.679"/>
<polygon fill="black" stroke="black" points="1184.95,-709.61 1187.58,-719.871 1191.92,-710.205 1184.95,-709.61"/>
</g>
<!-- sockpuppet10&#45;&gt;sockpuppet0 -->
<g id="edge168" class="edge"><title>sockpuppet10&#45;&gt;sockpuppet0</title>
<path fill="none" stroke="black" d="M542.489,-683.676C556.837,-704.752 579.817,-740.184 611,-756 680.601,-791.302 1208.73,-804.283 1395.71,-807.864"/>
<polygon fill="black" stroke="black" points="1395.88,-811.367 1405.95,-808.057 1396.01,-804.369 1395.88,-811.367"/>
</g>
<!-- sockpuppet10&#45;&gt;sockpuppet1 -->
<g id="edge169" class="edge"><title>sockpuppet10&#45;&gt;sockpuppet1</title>
<path fill="none" stroke="black" d="M471.707,-660.188C346.418,-647.528 56,-608.234 56,-523 56,-523 56,-523 56,-161 56,-108.695 86.192,-95.3412 133,-72 196.958,-40.1066 682.064,-24.8902 859.954,-20.4382"/>
<polygon fill="black" stroke="black" points="860.303,-23.9308 870.213,-20.185 860.13,-16.9329 860.303,-23.9308"/>
</g>
<!-- sockpuppet10&#45;&gt;sockpuppet2 -->
<g id="edge170" class="edge"><title>sockpuppet10&#45;&gt;sockpuppet2</title>
<path fill="none" stroke="black" d="M474.234,-658.297C373.75,-642.014 168,-590.886 168,-451 168,-451 168,-451 168,-233 168,-163.022 679.831,-111.65 861.81,-95.9862"/>
<polygon fill="black" stroke="black" points="862.363,-99.4518 872.029,-95.1144 861.768,-92.4772 862.363,-99.4518"/>
</g>
<!-- sockpuppet10&#45;&gt;sockpuppet3 -->
<g id="edge171" class="edge"><title>sockpuppet10&#45;&gt;sockpuppet3</title>
<path fill="none" stroke="black" d="M518.581,-648.21C490.048,-582.445 417.254,-339.901 536,-216 564.06,-186.722 827.709,-171.144 952.391,-165.5"/>
<polygon fill="black" stroke="black" points="952.734,-168.988 962.568,-165.047 952.423,-161.995 952.734,-168.988"/>
</g>
<!-- sockpuppet10&#45;&gt;sockpuppet4 -->
<g id="edge172" class="edge"><title>sockpuppet10&#45;&gt;sockpuppet4</title>
<path fill="none" stroke="black" d="M519.735,-647.924C516.058,-629.997 514.444,-600.997 516,-576 521.4,-489.26 562.763,-288.574 563,-288 567.331,-277.518 574.008,-267.053 581.059,-258.224"/>
<polygon fill="black" stroke="black" points="583.726,-260.49 587.582,-250.622 578.414,-255.932 583.726,-260.49"/>
</g>
<!-- sockpuppet10&#45;&gt;sockpuppet5 -->
<g id="edge173" class="edge"><title>sockpuppet10&#45;&gt;sockpuppet5</title>
<path fill="none" stroke="black" d="M523.769,-647.868C518.751,-596.223 526.28,-440.659 611,-360 634.564,-337.565 668.666,-324.329 698.065,-316.694"/>
<polygon fill="black" stroke="black" points="698.945,-320.082 707.833,-314.314 697.288,-313.281 698.945,-320.082"/>
</g>
<!-- sockpuppet10&#45;&gt;sockpuppet6 -->
<g id="edge174" class="edge"><title>sockpuppet10&#45;&gt;sockpuppet6</title>
<path fill="none" stroke="black" d="M557.701,-650.226C660.712,-601.892 1002.06,-448.598 1122.54,-396.515"/>
<polygon fill="black" stroke="black" points="1124.03,-399.682 1131.83,-392.51 1121.26,-393.253 1124.03,-399.682"/>
</g>
<!-- sockpuppet10&#45;&gt;sockpuppet7 -->
<g id="edge175" class="edge"><title>sockpuppet10&#45;&gt;sockpuppet7</title>
<path fill="none" stroke="black" d="M527.987,-647.798C534.364,-616.951 558.335,-551.06 593,-504 601.74,-492.135 613.484,-480.928 624.85,-471.902"/>
<polygon fill="black" stroke="black" points="627.142,-474.557 633.011,-465.737 622.922,-468.972 627.142,-474.557"/>
</g>
<!-- sockpuppet10&#45;&gt;sockpuppet8 -->
<g id="edge176" class="edge"><title>sockpuppet10&#45;&gt;sockpuppet8</title>
<path fill="none" stroke="black" d="M545.187,-648.711C576.741,-622.866 643.647,-572.482 684.128,-543.973"/>
<polygon fill="black" stroke="black" points="686.146,-546.833 692.342,-538.239 682.139,-541.093 686.146,-546.833"/>
</g>
<!-- sockpuppet10&#45;&gt;sockpuppet9 -->
<g id="edge177" class="edge"><title>sockpuppet10&#45;&gt;sockpuppet9</title>
<path fill="none" stroke="black" d="M582.64,-658.726C703.635,-645.412 993.212,-614.466 1120.86,-601.209"/>
<polygon fill="black" stroke="black" points="1121.28,-604.684 1130.86,-600.171 1120.56,-597.721 1121.28,-604.684"/>
</g>
<!-- sockpuppet10&#45;&gt;sockpuppet11 -->
<g id="edge178" class="edge"><title>sockpuppet10&#45;&gt;sockpuppet11</title>
<path fill="none" stroke="black" d="M583.775,-672.548C704.621,-685.069 989.745,-715.523 1118.27,-729.618"/>
<polygon fill="black" stroke="black" points="1118.04,-733.113 1128.36,-730.726 1118.8,-726.155 1118.04,-733.113"/>
</g>
<!-- sockpuppet11&#45;&gt;sockpuppet0 -->
<g id="edge179" class="edge"><title>sockpuppet11&#45;&gt;sockpuppet0</title>
<path fill="none" stroke="black" d="M1229.15,-749.37C1279.36,-761.466 1359.2,-781.522 1410.91,-794.995"/>
<polygon fill="black" stroke="black" points="1410.3,-798.453 1420.86,-797.597 1412.07,-791.681 1410.3,-798.453"/>
</g>
<!-- sockpuppet11&#45;&gt;sockpuppet1 -->
<g id="edge180" class="edge"><title>sockpuppet11&#45;&gt;sockpuppet1</title>
<path fill="none" stroke="black" d="M1235.2,-729.361C1375.91,-706.2 1752,-622.745 1752,-379 1752,-379 1752,-379 1752,-161 1752,-83.2162 1182.22,-37.0828 988.505,-23.3546"/>
<polygon fill="black" stroke="black" points="988.694,-19.8594 978.473,-22.6489 988.203,-26.8421 988.694,-19.8594"/>
</g>
<!-- sockpuppet11&#45;&gt;sockpuppet2 -->
<g id="edge181" class="edge"><title>sockpuppet11&#45;&gt;sockpuppet2</title>
<path fill="none" stroke="black" d="M1219.73,-723.613C1239.02,-715.354 1261.29,-702.679 1275,-684 1379.17,-542.053 1357.38,-448.947 1286,-288 1254.51,-217.004 1253.15,-184.691 1187,-144 1126.84,-106.996 1046.17,-95.0299 990.233,-91.539"/>
<polygon fill="black" stroke="black" points="990.265,-88.0355 980.088,-90.9816 989.881,-95.025 990.265,-88.0355"/>
</g>
<!-- sockpuppet11&#45;&gt;sockpuppet3 -->
<g id="edge182" class="edge"><title>sockpuppet11&#45;&gt;sockpuppet3</title>
<path fill="none" stroke="black" d="M1204.34,-721.167C1217.64,-712.071 1233.83,-699.389 1244,-684 1262.18,-656.479 1256.99,-644.602 1262,-612 1283.88,-469.661 1311.41,-421.74 1258,-288 1244.26,-253.596 1245.58,-238.305 1216,-216 1193.34,-198.91 1123.99,-183.391 1073.44,-173.625"/>
<polygon fill="black" stroke="black" points="1074.08,-170.184 1063.6,-171.75 1072.77,-177.06 1074.08,-170.184"/>
</g>
<!-- sockpuppet11&#45;&gt;sockpuppet4 -->
<g id="edge183" class="edge"><title>sockpuppet11&#45;&gt;sockpuppet4</title>
<path fill="none" stroke="black" d="M1136.82,-726.545C1107.12,-717.844 1068.84,-703.691 1039,-684 847.503,-557.647 674.184,-335.611 623.564,-260.59"/>
<polygon fill="black" stroke="black" points="626.442,-258.597 618.006,-252.186 620.603,-262.458 626.442,-258.597"/>
</g>
<!-- sockpuppet11&#45;&gt;sockpuppet5 -->
<g id="edge184" class="edge"><title>sockpuppet11&#45;&gt;sockpuppet5</title>
<path fill="none" stroke="black" d="M1145.32,-723.952C1098.16,-703.528 1024,-659.548 1024,-595 1024,-595 1024,-595 1024,-521 1024,-490.619 854.822,-376.635 785.691,-328.58"/>
<polygon fill="black" stroke="black" points="787.594,-325.64 777.391,-322.788 783.588,-331.381 787.594,-325.64"/>
</g>
<!-- sockpuppet11&#45;&gt;sockpuppet6 -->
<g id="edge185" class="edge"><title>sockpuppet11&#45;&gt;sockpuppet6</title>
<path fill="none" stroke="black" d="M1191.39,-719.825C1209.58,-691.112 1247.81,-631.079 1238,-576 1226.54,-511.659 1191.93,-442.443 1174.47,-405.626"/>
<polygon fill="black" stroke="black" points="1177.44,-403.709 1170.03,-396.131 1171.09,-406.673 1177.44,-403.709"/>
</g>
<!-- sockpuppet11&#45;&gt;sockpuppet7 -->
<g id="edge186" class="edge"><title>sockpuppet11&#45;&gt;sockpuppet7</title>
<path fill="none" stroke="black" d="M1125.3,-733.592C1074.69,-728.479 1000.89,-715.731 945,-684 848.506,-629.22 862.911,-567.616 772,-504 750.964,-489.28 725.184,-477.246 703.687,-468.388"/>
<polygon fill="black" stroke="black" points="704.727,-465.033 694.143,-464.543 702.111,-471.526 704.727,-465.033"/>
</g>
<!-- sockpuppet11&#45;&gt;sockpuppet8 -->
<g id="edge187" class="edge"><title>sockpuppet11&#45;&gt;sockpuppet8</title>
<path fill="none" stroke="black" d="M1124.33,-734.573C1033.82,-729.714 865.85,-716.342 817,-684 770.095,-652.946 783.459,-621.944 751,-576 744.436,-566.71 736.749,-556.934 730.177,-548.343"/>
<polygon fill="black" stroke="black" points="732.869,-546.099 724.061,-540.21 727.274,-550.306 732.869,-546.099"/>
</g>
<!-- sockpuppet11&#45;&gt;sockpuppet9 -->
<g id="edge188" class="edge"><title>sockpuppet11&#45;&gt;sockpuppet9</title>
<path fill="none" stroke="black" d="M1178.42,-719.871C1175.86,-695.67 1175.57,-651.211 1177.54,-622.393"/>
<polygon fill="black" stroke="black" points="1181.05,-622.45 1178.41,-612.189 1174.07,-621.857 1181.05,-622.45"/>
</g>
<!-- sockpuppet11&#45;&gt;sockpuppet10 -->
<g id="edge189" class="edge"><title>sockpuppet11&#45;&gt;sockpuppet10</title>
<path fill="none" stroke="black" d="M1127.48,-731.478C1006.73,-718.968 721.097,-688.46 592.563,-674.364"/>
<polygon fill="black" stroke="black" points="592.795,-670.868 582.472,-673.255 592.03,-677.826 592.795,-670.868"/>
</g>
</g>
</svg>
