<?xml version="1.0" encoding="UTF-8" standalone="no"?>
<!DOCTYPE svg PUBLIC "-//W3C//DTD SVG 1.1//EN"
 "http://www.w3.org/Graphics/SVG/1.1/DTD/svg11.dtd">
<!-- Generated by graphviz version 2.36.0 (20140111.2315)
 -->
<!-- Title: %3 Pages: 1 -->
<svg width="472pt" height="476pt"
 viewBox="0.00 0.00 472.00 476.00" xmlns="http://www.w3.org/2000/svg" xmlns:xlink="http://www.w3.org/1999/xlink">
<g id="graph0" class="graph" transform="scale(1 1) rotate(0) translate(4 472)">
<title>%3</title>
<polygon fill="white" stroke="none" points="-4,4 -4,-472 468,-472 468,4 -4,4"/>
<!-- 0 -->
<g id="node1" class="node"><title>0</title>
<ellipse fill="none" stroke="black" cx="103" cy="-450" rx="27" ry="18"/>
<text text-anchor="middle" x="103" y="-446.3" font-family="Times,serif" font-size="14.00">0</text>
</g>
<!-- 7 -->
<g id="node2" class="node"><title>7</title>
<ellipse fill="none" stroke="black" cx="187" cy="-378" rx="27" ry="18"/>
<text text-anchor="middle" x="187" y="-374.3" font-family="Times,serif" font-size="14.00">7</text>
</g>
<!-- 0&#45;&gt;7 -->
<g id="edge1" class="edge"><title>0&#45;&gt;7</title>
<path fill="none" stroke="black" d="M119.196,-435.503C131.63,-425.142 148.991,-410.674 163.032,-398.973"/>
<polygon fill="black" stroke="black" points="165.412,-401.546 170.854,-392.455 160.931,-396.168 165.412,-401.546"/>
</g>
<!-- 8 -->
<g id="node3" class="node"><title>8</title>
<ellipse fill="none" stroke="black" cx="137" cy="-306" rx="27" ry="18"/>
<text text-anchor="middle" x="137" y="-302.3" font-family="Times,serif" font-size="14.00">8</text>
</g>
<!-- 0&#45;&gt;8 -->
<g id="edge2" class="edge"><title>0&#45;&gt;8</title>
<path fill="none" stroke="black" d="M107.034,-432.153C112.862,-407.813 123.695,-362.568 130.615,-333.665"/>
<polygon fill="black" stroke="black" points="134.047,-334.365 132.971,-323.825 127.239,-332.735 134.047,-334.365"/>
</g>
<!-- 9 -->
<g id="node4" class="node"><title>9</title>
<ellipse fill="none" stroke="black" cx="27" cy="-234" rx="27" ry="18"/>
<text text-anchor="middle" x="27" y="-230.3" font-family="Times,serif" font-size="14.00">9</text>
</g>
<!-- 0&#45;&gt;9 -->
<g id="edge3" class="edge"><title>0&#45;&gt;9</title>
<path fill="none" stroke="black" d="M90.8024,-433.569C83.287,-423.401 73.9777,-409.513 68,-396 48.1857,-351.209 36.6184,-295.003 31.0753,-262.232"/>
<polygon fill="black" stroke="black" points="34.4821,-261.376 29.4232,-252.067 27.5728,-262.499 34.4821,-261.376"/>
</g>
<!-- 10 -->
<g id="node5" class="node"><title>10</title>
<ellipse fill="none" stroke="black" cx="82" cy="-162" rx="27" ry="18"/>
<text text-anchor="middle" x="82" y="-158.3" font-family="Times,serif" font-size="14.00">10</text>
</g>
<!-- 0&#45;&gt;10 -->
<g id="edge4" class="edge"><title>0&#45;&gt;10</title>
<path fill="none" stroke="black" d="M101.749,-431.966C98.2486,-384.291 88.3282,-249.185 84.0288,-190.63"/>
<polygon fill="black" stroke="black" points="87.4937,-190.023 83.2708,-180.306 80.5125,-190.536 87.4937,-190.023"/>
</g>
<!-- 7&#45;&gt;8 -->
<g id="edge17" class="edge"><title>7&#45;&gt;8</title>
<path fill="none" stroke="black" d="M175.903,-361.465C169.495,-352.493 161.299,-341.019 154.084,-330.918"/>
<polygon fill="black" stroke="black" points="156.726,-328.595 148.066,-322.492 151.03,-332.664 156.726,-328.595"/>
</g>
<!-- 7&#45;&gt;10 -->
<g id="edge18" class="edge"><title>7&#45;&gt;10</title>
<path fill="none" stroke="black" d="M186.678,-359.961C185.8,-341.56 182.815,-311.7 173,-288 156.462,-248.068 124.728,-208.918 103.456,-185.363"/>
<polygon fill="black" stroke="black" points="105.757,-182.695 96.4105,-177.706 100.606,-187.435 105.757,-182.695"/>
</g>
<!-- 12 -->
<g id="node12" class="node"><title>12</title>
<ellipse fill="none" stroke="black" cx="82" cy="-18" rx="27" ry="18"/>
<text text-anchor="middle" x="82" y="-14.3" font-family="Times,serif" font-size="14.00">12</text>
</g>
<!-- 7&#45;&gt;12 -->
<g id="edge19" class="edge"><title>7&#45;&gt;12</title>
<path fill="none" stroke="black" d="M195.291,-360.868C207.786,-335.017 230,-282.395 230,-235 230,-235 230,-235 230,-161 230,-97.1078 157.294,-53.0209 113.801,-32.3637"/>
<polygon fill="black" stroke="black" points="115.026,-29.075 104.478,-28.0805 112.104,-35.4358 115.026,-29.075"/>
</g>
<!-- 8&#45;&gt;9 -->
<g id="edge20" class="edge"><title>8&#45;&gt;9</title>
<path fill="none" stroke="black" d="M117.839,-292.807C100.331,-281.665 74.2405,-265.062 54.5068,-252.504"/>
<polygon fill="black" stroke="black" points="56.2567,-249.469 45.941,-247.053 52.4985,-255.375 56.2567,-249.469"/>
</g>
<!-- 11 -->
<g id="node13" class="node"><title>11</title>
<ellipse fill="none" stroke="black" cx="82" cy="-90" rx="27" ry="18"/>
<text text-anchor="middle" x="82" y="-86.3" font-family="Times,serif" font-size="14.00">11</text>
</g>
<!-- 8&#45;&gt;11 -->
<g id="edge21" class="edge"><title>8&#45;&gt;11</title>
<path fill="none" stroke="black" d="M137.598,-287.93C138.088,-257.842 136.593,-193.84 118,-144 114.093,-133.526 107.705,-123.108 101.387,-114.315"/>
<polygon fill="black" stroke="black" points="104.012,-111.984 95.1857,-106.123 98.4303,-116.209 104.012,-111.984"/>
</g>
<!-- 9&#45;&gt;10 -->
<g id="edge22" class="edge"><title>9&#45;&gt;10</title>
<path fill="none" stroke="black" d="M38.9342,-217.811C46.2136,-208.546 55.6626,-196.52 63.8544,-186.094"/>
<polygon fill="black" stroke="black" points="66.663,-188.185 70.0891,-178.159 61.1587,-183.86 66.663,-188.185"/>
</g>
<!-- 9&#45;&gt;12 -->
<g id="edge24" class="edge"><title>9&#45;&gt;12</title>
<path fill="none" stroke="black" d="M25.956,-215.752C24.7745,-185.389 25.2346,-120.974 46,-72 50.3639,-61.708 56.8496,-51.3286 63.1188,-42.5166"/>
<polygon fill="black" stroke="black" points="66.0771,-44.4035 69.229,-34.2883 60.4571,-40.2301 66.0771,-44.4035"/>
</g>
<!-- 9&#45;&gt;11 -->
<g id="edge23" class="edge"><title>9&#45;&gt;11</title>
<path fill="none" stroke="black" d="M28.6561,-216.012C30.8901,-197.654 35.8264,-167.83 46,-144 50.3892,-133.719 56.8804,-123.342 63.1468,-114.529"/>
<polygon fill="black" stroke="black" points="66.1053,-116.415 69.2521,-106.298 60.4833,-112.244 66.1053,-116.415"/>
</g>
<!-- 10&#45;&gt;11 -->
<g id="edge25" class="edge"><title>10&#45;&gt;11</title>
<path fill="none" stroke="black" d="M82,-143.697C82,-135.983 82,-126.712 82,-118.112"/>
<polygon fill="black" stroke="black" points="85.5001,-118.104 82,-108.104 78.5001,-118.104 85.5001,-118.104"/>
</g>
<!-- 1 -->
<g id="node6" class="node"><title>1</title>
<ellipse fill="none" stroke="black" cx="371" cy="-450" rx="27" ry="18"/>
<text text-anchor="middle" x="371" y="-446.3" font-family="Times,serif" font-size="14.00">1</text>
</g>
<!-- 2 -->
<g id="node7" class="node"><title>2</title>
<ellipse fill="none" stroke="black" cx="399" cy="-378" rx="27" ry="18"/>
<text text-anchor="middle" x="399" y="-374.3" font-family="Times,serif" font-size="14.00">2</text>
</g>
<!-- 1&#45;&gt;2 -->
<g id="edge5" class="edge"><title>1&#45;&gt;2</title>
<path fill="none" stroke="black" d="M377.636,-432.411C380.913,-424.216 384.944,-414.14 388.618,-404.955"/>
<polygon fill="black" stroke="black" points="391.948,-406.055 392.412,-395.47 385.448,-403.455 391.948,-406.055"/>
</g>
<!-- 3 -->
<g id="node8" class="node"><title>3</title>
<ellipse fill="none" stroke="black" cx="437" cy="-306" rx="27" ry="18"/>
<text text-anchor="middle" x="437" y="-302.3" font-family="Times,serif" font-size="14.00">3</text>
</g>
<!-- 1&#45;&gt;3 -->
<g id="edge6" class="edge"><title>1&#45;&gt;3</title>
<path fill="none" stroke="black" d="M391.834,-438.18C406.83,-429.131 425.949,-414.699 435,-396 444.288,-376.812 444.148,-352.465 442.043,-334.088"/>
<polygon fill="black" stroke="black" points="445.489,-333.458 440.633,-324.041 438.557,-334.431 445.489,-333.458"/>
</g>
<!-- 4 -->
<g id="node9" class="node"><title>4</title>
<ellipse fill="none" stroke="black" cx="361" cy="-234" rx="27" ry="18"/>
<text text-anchor="middle" x="361" y="-230.3" font-family="Times,serif" font-size="14.00">4</text>
</g>
<!-- 1&#45;&gt;4 -->
<g id="edge7" class="edge"><title>1&#45;&gt;4</title>
<path fill="none" stroke="black" d="M367.806,-431.884C366.028,-421.536 363.98,-408.058 363,-396 359.211,-349.394 359.52,-294.953 360.189,-262.816"/>
<polygon fill="black" stroke="black" points="363.697,-262.509 360.434,-252.429 356.699,-262.343 363.697,-262.509"/>
</g>
<!-- 5 -->
<g id="node10" class="node"><title>5</title>
<ellipse fill="none" stroke="black" cx="325" cy="-162" rx="27" ry="18"/>
<text text-anchor="middle" x="325" y="-158.3" font-family="Times,serif" font-size="14.00">5</text>
</g>
<!-- 1&#45;&gt;5 -->
<g id="edge8" class="edge"><title>1&#45;&gt;5</title>
<path fill="none" stroke="black" d="M364.637,-432.471C352.157,-399.027 324.908,-320.668 316,-252 313.32,-231.338 315.92,-207.89 319.003,-190.251"/>
<polygon fill="black" stroke="black" points="322.504,-190.574 320.942,-180.095 315.629,-189.261 322.504,-190.574"/>
</g>
<!-- 2&#45;&gt;3 -->
<g id="edge9" class="edge"><title>2&#45;&gt;3</title>
<path fill="none" stroke="black" d="M407.813,-360.765C412.418,-352.283 418.155,-341.714 423.321,-332.197"/>
<polygon fill="black" stroke="black" points="426.539,-333.606 428.234,-323.147 420.387,-330.266 426.539,-333.606"/>
</g>
<!-- 2&#45;&gt;4 -->
<g id="edge10" class="edge"><title>2&#45;&gt;4</title>
<path fill="none" stroke="black" d="M394.492,-360.153C387.978,-335.813 375.87,-290.568 368.136,-261.665"/>
<polygon fill="black" stroke="black" points="371.469,-260.58 365.502,-251.825 364.707,-262.39 371.469,-260.58"/>
</g>
<!-- 2&#45;&gt;5 -->
<g id="edge11" class="edge"><title>2&#45;&gt;5</title>
<path fill="none" stroke="black" d="M386.179,-361.694C368.351,-339.305 336.921,-295.54 325,-252 319.466,-231.789 319.795,-208.014 321.329,-190.123"/>
<polygon fill="black" stroke="black" points="324.82,-190.392 322.367,-180.085 317.857,-189.672 324.82,-190.392"/>
</g>
<!-- 3&#45;&gt;4 -->
<g id="edge13" class="edge"><title>3&#45;&gt;4</title>
<path fill="none" stroke="black" d="M421.62,-290.834C410.804,-280.872 396.143,-267.369 383.949,-256.137"/>
<polygon fill="black" stroke="black" points="386.084,-253.345 376.357,-249.144 381.341,-258.494 386.084,-253.345"/>
</g>
<!-- 3&#45;&gt;5 -->
<g id="edge14" class="edge"><title>3&#45;&gt;5</title>
<path fill="none" stroke="black" d="M432.302,-288.189C426.38,-269.178 414.774,-238.01 397,-216 385.129,-201.3 368.267,-188.596 353.845,-179.313"/>
<polygon fill="black" stroke="black" points="355.592,-176.278 345.247,-173.989 351.906,-182.229 355.592,-176.278"/>
</g>
<!-- 6 -->
<g id="node11" class="node"><title>6</title>
<ellipse fill="none" stroke="black" cx="435" cy="-162" rx="27" ry="18"/>
<text text-anchor="middle" x="435" y="-158.3" font-family="Times,serif" font-size="14.00">6</text>
</g>
<!-- 3&#45;&gt;6 -->
<g id="edge12" class="edge"><title>3&#45;&gt;6</title>
<path fill="none" stroke="black" d="M436.759,-287.871C436.418,-263.67 435.792,-219.211 435.386,-190.393"/>
<polygon fill="black" stroke="black" points="438.883,-190.139 435.242,-180.189 431.883,-190.238 438.883,-190.139"/>
</g>
<!-- 4&#45;&gt;5 -->
<g id="edge15" class="edge"><title>4&#45;&gt;5</title>
<path fill="none" stroke="black" d="M352.65,-216.765C348.288,-208.283 342.853,-197.714 337.959,-188.197"/>
<polygon fill="black" stroke="black" points="340.99,-186.439 333.304,-179.147 334.765,-189.641 340.99,-186.439"/>
</g>
<!-- 4&#45;&gt;6 -->
<g id="edge16" class="edge"><title>4&#45;&gt;6</title>
<path fill="none" stroke="black" d="M375.975,-218.834C386.507,-208.872 400.782,-195.369 412.655,-184.137"/>
<polygon fill="black" stroke="black" points="415.188,-186.559 420.047,-177.144 410.377,-181.474 415.188,-186.559"/>
</g>
<!-- 11&#45;&gt;12 -->
<g id="edge26" class="edge"><title>11&#45;&gt;12</title>
<path fill="none" stroke="black" d="M82,-71.6966C82,-63.9827 82,-54.7125 82,-46.1124"/>
<polygon fill="black" stroke="black" points="85.5001,-46.1043 82,-36.1043 78.5001,-46.1044 85.5001,-46.1043"/>
</g>
</g>
</svg>
